{
.appVersion = "1271";
copyright = "Copyright (c) 2014 by Robert E. Leuschke. All rights reserved.";
customParameters = (
{
name = description;
value = "Copyright (c) 2014 by Robert E. Leuschke. All rights reserved.";
},
{
name = trademark;
value = "WindSong is a trademark of Robert E. Leuschke.";
},
{
name = licenseURL;
value = "http://www.typesetit.com/license.html";
},
{
name = license;

glyphs = (
{
glyphname = lslash;
layers = (
{
hints = (
{
horizontal = 1;
place = "{-11, 529}";
type = Stem;
},
{
place = "{0, 456}";
type = Stem;
}
);
layerId = "A14CB8BB-4075-44A2-8ACC-F29FBF19C8BE";
paths = (
{
closed = 1;
nodes = (
"646 182 OFFCURVE",
"642 182 OFFCURVE",
"637 177 CURVE SMOOTH",
"610 152 OFFCURVE",
"528 90 OFFCURVE",
"444 48 CURVE SMOOTH",
"394 23 OFFCURVE",
"344 6 OFFCURVE",
"306 7 CURVE SMOOTH",
"269 7 OFFCURVE",
"247 29 OFFCURVE",
"236 58 CURVE",
"349 97 LINE SMOOTH",
"385 110 OFFCURVE",
"406 125 OFFCURVE",
"342 121 CURVE SMOOTH",
"316 120 OFFCURVE",
"293 115 OFFCURVE",
"273 110 CURVE SMOOTH",
"256 106 OFFCURVE",
"241 101 OFFCURVE",
"227 97 CURVE",
"226 120 OFFCURVE",
"229 142 OFFCURVE",
"237 161 CURVE",
"357 225 OFFCURVE",
"491 329 OFFCURVE",
"552 435 CURVE SMOOTH",
"560 448 OFFCURVE",
"568 466 OFFCURVE",
"568 482 CURVE SMOOTH",
"568 502 OFFCURVE",
"555 518 OFFCURVE",
"525 518 CURVE SMOOTH",
"414 518 OFFCURVE",
"256 327 OFFCURVE",
"205 186 CURVE SMOOTH",
"203 181 OFFCURVE",
"198 176 OFFCURVE",
"184 167 CURVE",
"170 154 OFFCURVE",
"177 145 OFFCURVE",
"190 145 CURVE",
"188 129 OFFCURVE",
"186 107 OFFCURVE",
"186 96 CURVE SMOOTH",
"186 92 OFFCURVE",
"186 88 OFFCURVE",
"186 85 CURVE",
"166 78 OFFCURVE",
"146 71 OFFCURVE",
"136 66 CURVE SMOOTH",
"119 57 OFFCURVE",
"110 47 OFFCURVE",
"109 38 CURVE SMOOTH",
"108 27 OFFCURVE",
"118 22 OFFCURVE",
"128 24 CURVE SMOOTH",
"149 30 OFFCURVE",
"172 37 OFFCURVE",
"195 45 CURVE",
"214 -1 OFFCURVE",
"260 -18 OFFCURVE",
"311 -18 CURVE SMOOTH",
"355 -18 OFFCURVE",
"404 -7 OFFCURVE",
"449 14 CURVE SMOOTH",
"521 47 OFFCURVE",
"587 100 OFFCURVE",
"643 155 CURVE",
"647 160 OFFCURVE",
"651 167 OFFCURVE",
"652 172 CURVE SMOOTH",
"653 178 OFFCURVE",
"651 181 OFFCURVE",
"647 182 CURVE SMOOTH"
);
},
{
closed = 1;
nodes = (
"537 491 OFFCURVE",
"540 489 OFFCURVE",
"540 483 CURVE",
"487 361 OFFCURVE",
"352 263 OFFCURVE",
"250 198 CURVE",
"267 238 OFFCURVE",
"287 270 OFFCURVE",
"307 296 CURVE SMOOTH",
"330 326 OFFCURVE",
"353 350 OFFCURVE",
"376 374 CURVE SMOOTH",
"401 401 OFFCURVE",
"444 439 OFFCURVE",
"480 464 CURVE SMOOTH",
"499 476 OFFCURVE",
"515 485 OFFCURVE",
"526 489 CURVE"
);
}
);
width = 448;
}
);
note = lslash;
unicode = 0142;
},
{
glyphname = Scaron;
layers = (
{
hints = (
{
horizontal = 1;
place = "{681, 127}";
type = Stem;
},
{
place = "{503, 271}";
type = Stem;
}
);
layerId = "A14CB8BB-4075-44A2-8ACC-F29FBF19C8BE";
paths = (
{
closed = 1;
nodes = (
"772 787 OFFCURVE",
"770 795 OFFCURVE",
"761 802 CURVE",
"747 801 OFFCURVE",
"720 789 OFFCURVE",
"683 768 CURVE SMOOTH",
"651 750 OFFCURVE",
"627 735 OFFCURVE",
"613 722 CURVE",
"577 770 OFFCURVE",
"552 798 OFFCURVE",
"542 798 CURVE SMOOTH",
"533 798 OFFCURVE",
"530 792 OFFCURVE",
"527 785 CURVE",
"527 775 OFFCURVE",
"538 755 OFFCURVE",
"562 725 CURVE SMOOTH",
"584 695 OFFCURVE",
"601 676 OFFCURVE",
"613 674 CURVE",
"620 678 LINE",
"651 705 OFFCURVE",
"696 737 OFFCURVE",
"756 777 CURVE SMOOTH"
);
},
{
closed = 1;
nodes = (
"755 358 OFFCURVE",
"900 415 OFFCURVE",
"900 491 CURVE SMOOTH",
"900 597 OFFCURVE",
"739 647 OFFCURVE",
"584 647 CURVE SMOOTH",
"446 647 OFFCURVE",
"245 596 OFFCURVE",
"238 445 CURVE SMOOTH",
"234 362 OFFCURVE",
"267 266 OFFCURVE",
"297 180 CURVE SMOOTH",
"301 166 OFFCURVE",
"306 149 OFFCURVE",
"313 132 CURVE SMOOTH",
"314 130 OFFCURVE",
"314 128 OFFCURVE",
"315 126 CURVE",
"202 129 OFFCURVE",
"100 138 OFFCURVE",
"42 145 CURVE",
"36 159 OFFCURVE",
"22 176 OFFCURVE",
"-6 182 CURVE SMOOTH",
"-19 184 OFFCURVE",
"-29 186 OFFCURVE",
"-37 186 CURVE SMOOTH",
"-62 186 OFFCURVE",
"-69 175 OFFCURVE",
"-69 160 CURVE SMOOTH",
"-67 134 OFFCURVE",
"-18 114 OFFCURVE",
"31 107 CURVE",
"59 -15 OFFCURVE",
"176 -131 OFFCURVE",
"320 -131 CURVE SMOOTH",
"385 -131 OFFCURVE",
"407 -100 OFFCURVE",
"407 -58 CURVE SMOOTH",
"407 -11 OFFCURVE",
"380 49 OFFCURVE",
"360 92 CURVE",
"530 96 OFFCURVE",
"700 118 OFFCURVE",
"765 163 CURVE SMOOTH",
"770 166 OFFCURVE",
"775 172 OFFCURVE",
"776 177 CURVE",
"780 187 OFFCURVE",
"770 189 OFFCURVE",
"763 185 CURVE SMOOTH",
"673 139 OFFCURVE",
"521 126 OFFCURVE",
"373 126 CURVE SMOOTH",
"345 126 LINE",
"342 134 LINE SMOOTH",
"337 150 OFFCURVE",
"328 169 OFFCURVE",
"323 182 CURVE SMOOTH",
"297 250 OFFCURVE",
"272 324 OFFCURVE",
"272 397 CURVE SMOOTH",
"272 438 OFFCURVE",
"274 595 OFFCURVE",
"590 595 CURVE SMOOTH",
"702 595 OFFCURVE",
"867 571 OFFCURVE",
"867 488 CURVE SMOOTH",
"867 431 OFFCURVE",
"755 389 OFFCURVE",
"680 389 CURVE SMOOTH",
"657 389 OFFCURVE",
"657 358 OFFCURVE",
"680 358 CURVE SMOOTH"
);
},
{
closed = 1;
nodes = (
"342 46 OFFCURVE",
"352 1 OFFCURVE",
"351 -34 CURVE SMOOTH",
"349 -69 OFFCURVE",
"323 -87 OFFCURVE",
"279 -82 CURVE SMOOTH",
"209 -73 OFFCURVE",
"112 -23 OFFCURVE",
"56 105 CURVE",
"129 94 OFFCURVE",
"226 90 OFFCURVE",
"327 91 CURVE"
);
}
);
width = 547;
}
);
note = Scaron;
unicode = 0160;
},
{
glyphname = scaron;
layers = (
{
hints = (
{
horizontal = 1;
place = "{-35, 35}";
type = Stem;
},
{
horizontal = 1;
place = "{3, 26}";
type = Stem;
},
{
horizontal = 1;
place = "{351, 28}";
type = Stem;
},
{
horizontal = 1;
place = "{425, 127}";
type = Stem;
},
{
place = "{159, 7}";
type = Stem;
},
{
place = "{330, 33}";
type = Stem;
},
{
place = "{317, 15}";
type = Stem;
}
);
layerId = "A14CB8BB-4075-44A2-8ACC-F29FBF19C8BE";
paths = (
{
closed = 1;
nodes = (
"561 532 OFFCURVE",
"560 539 OFFCURVE",
"551 546 CURVE",
"537 545 OFFCURVE",
"510 533 OFFCURVE",
"473 512 CURVE SMOOTH",
"441 494 OFFCURVE",
"417 479 OFFCURVE",
"403 467 CURVE",
"367 515 OFFCURVE",
"342 542 OFFCURVE",
"332 542 CURVE SMOOTH",
"324 542 OFFCURVE",
"321 536 OFFCURVE",
"318 529 CURVE",
"318 519 OFFCURVE",
"329 499 OFFCURVE",
"352 469 CURVE SMOOTH",
"375 440 OFFCURVE",
"391 420 OFFCURVE",
"403 419 CURVE",
"410 423 LINE",
"441 450 OFFCURVE",
"486 481 OFFCURVE",
"546 521 CURVE SMOOTH"
);
},
{
closed = 1;
nodes = (
"264 230 OFFCURVE",
"204 177 OFFCURVE",
"144 132 CURVE",
"143 134 OFFCURVE",
"142 137 OFFCURVE",
"140 140 CURVE SMOOTH",
"139 141 LINE",
"133 166 LINE SMOOTH",
"127 193 OFFCURVE",
"108 186 OFFCURVE",
"98 173 CURVE SMOOTH",
"88 162 OFFCURVE",
"79 140 OFFCURVE",
"87 126 CURVE SMOOTH",
"91 117 OFFCURVE",
"99 110 OFFCURVE",
"107 105 CURVE",
"83 88 OFFCURVE",
"59 72 OFFCURVE",
"37 59 CURVE SMOOTH",
"27 53 OFFCURVE",
"22 45 OFFCURVE",
"22 38 CURVE SMOOTH",
"22 33 OFFCURVE",
"25 24 OFFCURVE",
"33 26 CURVE",
"57 36 OFFCURVE",
"91 58 OFFCURVE",
"128 85 CURVE",
"132 73 OFFCURVE",
"137 60 OFFCURVE",
"144 43 CURVE SMOOTH",
"169 -15 OFFCURVE",
"208 -55 OFFCURVE",
"255 -55 CURVE SMOOTH",
"286 -55 OFFCURVE",
"304 -37 OFFCURVE",
"314 -10 CURVE",
"364 -12 OFFCURVE",
"416 -5 OFFCURVE",
"463 14 CURVE SMOOTH",
"553 50 OFFCURVE",
"627 116 OFFCURVE",
"683 171 CURVE SMOOTH",
"694 182 OFFCURVE",
"688 196 OFFCURVE",
"672 190 CURVE",
"656 178 OFFCURVE",
"622 147 OFFCURVE",
"606 136 CURVE SMOOTH",
"555 98 OFFCURVE",
"509 68 OFFCURVE",
"459 46 CURVE SMOOTH",
"419 28 OFFCURVE",
"368 21 OFFCURVE",
"322 23 CURVE",
"326 45 OFFCURVE",
"326 69 OFFCURVE",
"326 94 CURVE SMOOTH",
"326 118 OFFCURVE",
"325 144 OFFCURVE",
"325 168 CURVE SMOOTH",
"325 224 OFFCURVE",
"329 272 OFFCURVE",
"352 295 CURVE SMOOTH",
"366 310 OFFCURVE",
"379 317 OFFCURVE",
"403 313 CURVE SMOOTH",
"439 307 OFFCURVE",
"452 347 OFFCURVE",
"429 356 CURVE SMOOTH",
"371 378 OFFCURVE",
"321 321 OFFCURVE",
"306 273 CURVE"
);
},
{
closed = 1;
nodes = (
"207 148 OFFCURVE",
"258 192 OFFCURVE",
"296 229 CURVE",
"290 197 OFFCURVE",
"286 161 OFFCURVE",
"282 128 CURVE SMOOTH",
"277 91 OFFCURVE",
"272 58 OFFCURVE",
"263 34 CURVE",
"219 48 OFFCURVE",
"186 75 OFFCURVE",
"159 109 CURVE"
);
},
{
closed = 1;
nodes = (
"195 30 OFFCURVE",
"219 14 OFFCURVE",
"247 4 CURVE",
"241 -1 OFFCURVE",
"235 -4 OFFCURVE",
"228 -4 CURVE SMOOTH",
"208 -4 OFFCURVE",
"189 20 OFFCURVE",
"173 52 CURVE"
);
}
);
width = 463;
}
);
note = scaron;
unicode = 0161;
},
{
glyphname = Yacute;
layers = (
{
hints = (
{
horizontal = 1;
place = "{-556, 28}";
type = Stem;
},
{
horizontal = 1;
place = "{-31, 28}";
type = Stem;
},
{
horizontal = 1;
place = "{218, 32}";
type = Stem;
},
{
place = "{10, 52}";
type = Stem;
},
{
place = "{292, 51}";
type = Stem;
},
{
place = "{851, 72}";
type = Stem;
},
{
horizontal = 1;
place = "{-72, 34}";
type = Stem;
},
{
horizontal = 1;
place = "{-39, 21}";
target = up;
type = BottomGhost;
}
);
layerId = "A14CB8BB-4075-44A2-8ACC-F29FBF19C8BE";
paths = (
{
closed = 1;
nodes = (
"762 599 OFFCURVE",
"821 628 OFFCURVE",
"850 645 CURVE",
"855 653 OFFCURVE",
"832 680 OFFCURVE",
"813 676 CURVE",
"788 655 OFFCURVE",
"747 627 OFFCURVE",
"708 604 CURVE SMOOTH",
"697 597 OFFCURVE",
"690 593 OFFCURVE",
"688 589 CURVE",
"682 581 OFFCURVE",
"684 577 OFFCURVE",
"694 577 CURVE SMOOTH",
"702 577 OFFCURVE",
"718 582 OFFCURVE",
"726 585 CURVE SMOOTH"
);
},
{
closed = 1;
nodes = (
"960 -61 OFFCURVE",
"966 -56 OFFCURVE",
"961 -49 CURVE",
"950 -21 OFFCURVE",
"899 -9 OFFCURVE",
"855 -4 CURVE SMOOTH",
"840 -3 OFFCURVE",
"825 -3 OFFCURVE",
"811 -3 CURVE",
"866 112 OFFCURVE",
"921 284 OFFCURVE",
"923 346 CURVE SMOOTH",
"926 413 OFFCURVE",
"903 461 OFFCURVE",
"857 460 CURVE SMOOTH",
"832 459 OFFCURVE",
"819 452 OFFCURVE",
"815 441 CURVE SMOOTH",
"812 431 OFFCURVE",
"819 422 OFFCURVE",
"827 418 CURVE SMOOTH",
"832 415 LINE",
"761 315 OFFCURVE",
"677 226 OFFCURVE",
"594 143 CURVE SMOOTH",
"527 75 OFFCURVE",
"461 11 OFFCURVE",
"424 -14 CURVE SMOOTH",
"398 -32 OFFCURVE",
"381 -38 OFFCURVE",
"369 -38 CURVE SMOOTH",
"351 -38 OFFCURVE",
"343 -23 OFFCURVE",
"343 6 CURVE SMOOTH",
"343 57 OFFCURVE",
"368 132 OFFCURVE",
"378 161 CURVE SMOOTH",
"431 318 OFFCURVE",
"545 485 OFFCURVE",
"588 545 CURVE SMOOTH",
"593 553 OFFCURVE",
"585 564 OFFCURVE",
"571 571 CURVE SMOOTH",
"560 576 OFFCURVE",
"545 581 OFFCURVE",
"537 581 CURVE SMOOTH",
"515 581 OFFCURVE",
"476 518 OFFCURVE",
"443 461 CURVE",
"369 386 OFFCURVE",
"221 256 OFFCURVE",
"101 250 CURVE SMOOTH",
"69 249 OFFCURVE",
"59 264 OFFCURVE",
"62 291 CURVE SMOOTH",
"69 343 OFFCURVE",
"119 398 OFFCURVE",
"159 431 CURVE",
"167 436 OFFCURVE",
"163 440 OFFCURVE",
"159 442 CURVE",
"157 442 OFFCURVE",
"154 442 OFFCURVE",
"151 442 CURVE SMOOTH",
"146 441 OFFCURVE",
"138 439 OFFCURVE",
"132 435 CURVE SMOOTH",
"72 400 OFFCURVE",
"10 327 OFFCURVE",
"10 274 CURVE SMOOTH",
"10 243 OFFCURVE",
"32 221 OFFCURVE",
"81 218 CURVE SMOOTH",
"158 212 OFFCURVE",
"284 277 OFFCURVE",
"387 358 CURVE",
"381 346 LINE",
"351 265 LINE SMOOTH",
"323 191 OFFCURVE",
"291 73 OFFCURVE",
"292 19 CURVE SMOOTH",
"293 -44 OFFCURVE",
"329 -72 OFFCURVE",
"371 -72 CURVE SMOOTH",
"393 -72 OFFCURVE",
"417 -64 OFFCURVE",
"438 -51 CURVE SMOOTH",
"497 -15 OFFCURVE",
"559 48 OFFCURVE",
"620 116 CURVE SMOOTH",
"696 200 OFFCURVE",
"770 283 OFFCURVE",
"850 389 CURVE",
"851 382 OFFCURVE",
"851 373 OFFCURVE",
"851 364 CURVE SMOOTH",
"851 269 OFFCURVE",
"798 79 OFFCURVE",
"752 -3 CURVE",
"752 -3 OFFCURVE",
"751 -4 OFFCURVE",
"751 -5 CURVE",
"731 -7 OFFCURVE",
"712 -10 OFFCURVE",
"692 -15 CURVE SMOOTH",
"520 -58 OFFCURVE",
"87 -217 OFFCURVE",
"47 -438 CURVE SMOOTH",
"30 -531 OFFCURVE",
"115 -558 OFFCURVE",
"184 -556 CURVE SMOOTH",
"413 -548 OFFCURVE",
"640 -320 OFFCURVE",
"795 -32 CURVE",
"803 -32 OFFCURVE",
"812 -31 OFFCURVE",
"820 -31 CURVE SMOOTH",
"830 -31 OFFCURVE",
"840 -32 OFFCURVE",
"850 -32 CURVE SMOOTH",
"895 -34 OFFCURVE",
"934 -43 OFFCURVE",
"942 -59 CURVE",
"944 -67 OFFCURVE",
"954 -65 OFFCURVE",
"956 -63 CURVE"
);
},
{
closed = 1;
nodes = (
"702 -45 OFFCURVE",
"716 -42 OFFCURVE",
"731 -39 CURVE",
"598 -267 OFFCURVE",
"385 -520 OFFCURVE",
"172 -528 CURVE SMOOTH",
"112 -531 OFFCURVE",
"75 -502 OFFCURVE",
"75 -459 CURVE SMOOTH",
"75 -415 OFFCURVE",
"113 -351 OFFCURVE",
"210 -278 CURVE SMOOTH",
"355 -170 OFFCURVE",
"539 -80 OFFCURVE",
"688 -48 CURVE SMOOTH"
);
}
);
width = 829;
}
);
note = Yacute;
unicode = 00DD;
},
{
glyphname = yacute;
layers = (
{
hints = (
{
horizontal = 1;
place = "{-447, 14}";
type = Stem;
},
{
horizontal = 1;
place = "{-12, 16}";
type = Stem;
},
{
horizontal = 1;
place = "{-5, 13}";
type = Stem;
},
{
horizontal = 1;
place = "{-1, 13}";
type = Stem;
},
{
horizontal = 1;
place = "{223, 30}";
type = Stem;
},
{
horizontal = 1;
place = "{257, 17}";
type = Stem;
},
{
horizontal = 1;
place = "{332, 7}";
type = Stem;
},
{
place = "{-98, 34}";
type = Stem;
},
{
place = "{14, 28}";
type = Stem;
},
{
place = "{31, 30}";
type = Stem;
},
{
place = "{156, 13}";
type = Stem;
},
{
place = "{256, 26}";
type = Stem;
},
{
place = "{278, 55}";
type = Stem;
},
{
place = "{318, 30}";
type = Stem;
},
{
place = "{327, 7}";
type = Stem;
}
);
layerId = "A14CB8BB-4075-44A2-8ACC-F29FBF19C8BE";
paths = (
{
closed = 1;
nodes = (
"423 365 OFFCURVE",
"481 394 OFFCURVE",
"510 411 CURVE",
"516 419 OFFCURVE",
"492 446 OFFCURVE",
"474 442 CURVE",
"449 421 OFFCURVE",
"408 393 OFFCURVE",
"369 370 CURVE SMOOTH",
"358 364 OFFCURVE",
"351 359 OFFCURVE",
"349 355 CURVE",
"342 348 OFFCURVE",
"345 344 OFFCURVE",
"355 344 CURVE SMOOTH",
"363 344 OFFCURVE",
"379 348 OFFCURVE",
"387 351 CURVE SMOOTH"
);
},
{
closed = 1;
nodes = (
"422 149 OFFCURVE",
"425 137 OFFCURVE",
"425 121 CURVE SMOOTH",
"425 82 OFFCURVE",
"407 21 OFFCURVE",
"380 -29 CURVE",
"363 -30 OFFCURVE",
"345 -33 OFFCURVE",
"328 -37 CURVE SMOOTH",
"174 -70 OFFCURVE",
"-211 -200 OFFCURVE",
"-242 -389 CURVE SMOOTH",
"-255 -470 OFFCURVE",
"-176 -495 OFFCURVE",
"-115 -494 CURVE SMOOTH",
"90 -492 OFFCURVE",
"318 -250 OFFCURVE",
"421 -55 CURVE",
"437 -54 OFFCURVE",
"453 -54 OFFCURVE",
"471 -56 CURVE SMOOTH",
"512 -59 OFFCURVE",
"548 -67 OFFCURVE",
"554 -81 CURVE SMOOTH",
"557 -87 OFFCURVE",
"563 -87 OFFCURVE",
"567 -85 CURVE SMOOTH",
"570 -83 OFFCURVE",
"574 -78 OFFCURVE",
"572 -72 CURVE SMOOTH",
"561 -47 OFFCURVE",
"514 -36 OFFCURVE",
"474 -31 CURVE SMOOTH",
"460 -29 OFFCURVE",
"448 -28 OFFCURVE",
"434 -28 CURVE",
"436 -25 OFFCURVE",
"437 -21 OFFCURVE",
"439 -18 CURVE",
"468 45 OFFCURVE",
"482 101 OFFCURVE",
"482 139 CURVE SMOOTH",
"482 179 OFFCURVE",
"467 205 OFFCURVE",
"433 201 CURVE SMOOTH",
"409 197 OFFCURVE",
"398 184 OFFCURVE",
"399 173 CURVE",
"364 140 OFFCURVE",
"328 104 OFFCURVE",
"291 73 CURVE SMOOTH",
"273 58 OFFCURVE",
"219 13 OFFCURVE",
"190 13 CURVE SMOOTH",
"180 13 OFFCURVE",
"170 19 OFFCURVE",
"174 49 CURVE SMOOTH",
"178 83 OFFCURVE",
"239 144 OFFCURVE",
"292 194 CURVE SMOOTH",
"313 214 LINE SMOOTH",
"335 235 OFFCURVE",
"317 249 OFFCURVE",
"299 258 CURVE SMOOTH",
"285 266 OFFCURVE",
"268 254 OFFCURVE",
"258 243 CURVE SMOOTH",
"249 234 OFFCURVE",
"244 223 OFFCURVE",
"243 216 CURVE",
"235 210 OFFCURVE",
"223 199 OFFCURVE",
"219 194 CURVE",
"174 149 OFFCURVE",
"137 96 OFFCURVE",
"137 52 CURVE SMOOTH",
"137 39 OFFCURVE",
"141 28 OFFCURVE",
"148 17 CURVE SMOOTH",
"161 -3 OFFCURVE",
"179 -10 OFFCURVE",
"200 -10 CURVE SMOOTH",
"232 -10 OFFCURVE",
"270 11 OFFCURVE",
"305 40 CURVE SMOOTH",
"329 60 OFFCURVE",
"352 83 OFFCURVE",
"371 105 CURVE SMOOTH",
"390 126 OFFCURVE",
"406 144 OFFCURVE",
"417 155 CURVE"
);
},
{
closed = 1;
nodes = (
"338 -64 OFFCURVE",
"351 -62 OFFCURVE",
"363 -60 CURVE",
"270 -223 OFFCURVE",
"67 -465 OFFCURVE",
"-127 -468 CURVE SMOOTH",
"-181 -469 OFFCURVE",
"-214 -443 OFFCURVE",
"-214 -406 CURVE SMOOTH",
"-214 -369 OFFCURVE",
"-181 -316 OFFCURVE",
"-98 -257 CURVE SMOOTH",
"29 -166 OFFCURVE",
"193 -93 OFFCURVE",
"325 -66 CURVE SMOOTH"
);
}
);
width = 544;
}
);
note = yacute;
unicode = 00FD;
},
{
glyphname = Thorn;
layers = (
{
hints = (
{
horizontal = 1;
place = "{-279, 12}";
type = Stem;
},
{
horizontal = 1;
place = "{-1, 26}";
type = Stem;
},
{
horizontal = 1;
place = "{121, 11}";
type = Stem;
},
{
horizontal = 1;
place = "{261, 14}";
type = Stem;
},
{
horizontal = 1;
place = "{261, 22}";
type = Stem;
},
{
place = "{-50, 36}";
type = Stem;
},
{
place = "{156, 16}";
type = Stem;
},
{
place = "{499, 23}";
type = Stem;
}
);
layerId = "A14CB8BB-4075-44A2-8ACC-F29FBF19C8BE";
paths = (
{
closed = 1;
nodes = (
"448 135 OFFCURVE",
"664 191 OFFCURVE",
"661 326 CURVE SMOOTH",
"660 351 OFFCURVE",
"640 379 OFFCURVE",
"626 390 CURVE SMOOTH",
"586 420 OFFCURVE",
"536 427 OFFCURVE",
"493 427 CURVE SMOOTH",
"457 427 OFFCURVE",
"426 421 OFFCURVE",
"411 419 CURVE",
"411 427 OFFCURVE",
"438 468 OFFCURVE",
"466 518 CURVE SMOOTH",
"482 545 OFFCURVE",
"499 575 OFFCURVE",
"513 602 CURVE SMOOTH",
"528 630 OFFCURVE",
"540 654 OFFCURVE",
"547 672 CURVE SMOOTH",
"554 692 OFFCURVE",
"551 712 OFFCURVE",
"545 726 CURVE SMOOTH",
"542 733 OFFCURVE",
"539 739 OFFCURVE",
"535 742 CURVE SMOOTH",
"529 748 OFFCURVE",
"524 747 OFFCURVE",
"521 741 CURVE SMOOTH",
"465 630 OFFCURVE",
"428 554 OFFCURVE",
"386 480 CURVE SMOOTH",
"344 405 OFFCURVE",
"297 333 OFFCURVE",
"223 229 CURVE SMOOTH",
"156 135 OFFCURVE",
"87 14 OFFCURVE",
"88 -70 CURVE SMOOTH",
"88 -76 OFFCURVE",
"91 -97 OFFCURVE",
"99 -108 CURVE SMOOTH",
"110 -122 OFFCURVE",
"148 -138 OFFCURVE",
"155 -138 CURVE SMOOTH",
"160 -138 OFFCURVE",
"167 -135 OFFCURVE",
"169 -129 CURVE SMOOTH",
"170 -125 OFFCURVE",
"168 -117 OFFCURVE",
"153 -117 CURVE SMOOTH",
"136 -117 OFFCURVE",
"135 -87 OFFCURVE",
"134 -78 CURVE SMOOTH",
"126 78 OFFCURVE",
"371 367 OFFCURVE",
"408 381 CURVE SMOOTH",
"429 389 OFFCURVE",
"471 395 OFFCURVE",
"514 395 CURVE SMOOTH",
"575 395 OFFCURVE",
"629 380 OFFCURVE",
"629 339 CURVE SMOOTH",
"629 299 OFFCURVE",
"569 241 OFFCURVE",
"490 207 CURVE SMOOTH",
"443 186 OFFCURVE",
"387 175 OFFCURVE",
"352 175 CURVE SMOOTH",
"335 175 OFFCURVE",
"324 176 OFFCURVE",
"324 182 CURVE SMOOTH",
"324 186 OFFCURVE",
"331 195 OFFCURVE",
"360 210 CURVE SMOOTH",
"371 215 OFFCURVE",
"420 236 OFFCURVE",
"462 255 CURVE SMOOTH",
"484 264 OFFCURVE",
"504 274 OFFCURVE",
"517 281 CURVE SMOOTH",
"523 284 OFFCURVE",
"528 287 OFFCURVE",
"531 289 CURVE SMOOTH",
"536 294 OFFCURVE",
"534 301 OFFCURVE",
"526 301 CURVE SMOOTH",
"518 301 OFFCURVE",
"492 294 OFFCURVE",
"443 280 CURVE SMOOTH",
"376 260 OFFCURVE",
"323 239 OFFCURVE",
"300 219 CURVE SMOOTH",
"284 206 OFFCURVE",
"278 191 OFFCURVE",
"278 179 CURVE SMOOTH",
"278 149 OFFCURVE",
"319 135 OFFCURVE",
"357 135 CURVE SMOOTH"
);
}
);
width = 566;
}
);
note = Thorn;
unicode = 00DE;
},
{
glyphname = thorn;
layers = (
{
hints = (
{
horizontal = 1;
place = "{-16, 15}";
type = Stem;
},
{
horizontal = 1;
place = "{38, 16}";
type = Stem;
},
{
horizontal = 1;
place = "{208, 15}";
type = Stem;
},
{
horizontal = 1;
place = "{459, 51}";
type = Stem;
},
{
place = "{-307, 35}";
type = Stem;
},
{
place = "{-214, 19}";
type = Stem;
},
{
place = "{56, 33}";
type = Stem;
},
{
place = "{95, 32}";
type = Stem;
}
);
layerId = "A14CB8BB-4075-44A2-8ACC-F29FBF19C8BE";
paths = (
{
closed = 1;
nodes = (
"610 180 OFFCURVE",
"670 187 OFFCURVE",
"733 189 CURVE SMOOTH",
"790 191 OFFCURVE",
"742 208 OFFCURVE",
"733 208 CURVE SMOOTH",
"709 208 OFFCURVE",
"631 203 OFFCURVE",
"555 191 CURVE",
"548 214 OFFCURVE",
"521 241 OFFCURVE",
"465 237 CURVE SMOOTH",
"366 231 OFFCURVE",
"252 156 OFFCURVE",
"185 83 CURVE",
"237 189 OFFCURVE",
"367 392 OFFCURVE",
"518 458 CURVE",
"519 459 OFFCURVE",
"520 459 OFFCURVE",
"521 459 CURVE SMOOTH",
"524 459 OFFCURVE",
"530 456 OFFCURVE",
"532 453 CURVE",
"532 452 OFFCURVE",
"532 452 OFFCURVE",
"532 452 CURVE",
"534 449 LINE SMOOTH",
"536 445 OFFCURVE",
"540 442 OFFCURVE",
"542 442 CURVE SMOOTH",
"548 442 OFFCURVE",
"555 457 OFFCURVE",
"555 462 CURVE SMOOTH",
"556 480 OFFCURVE",
"539 518 OFFCURVE",
"516 518 CURVE SMOOTH",
"505 518 OFFCURVE",
"495 512 OFFCURVE",
"488 507 CURVE SMOOTH",
"356 413 OFFCURVE",
"226 259 OFFCURVE",
"156 120 CURVE SMOOTH",
"149 106 OFFCURVE",
"144 94 OFFCURVE",
"138 81 CURVE SMOOTH",
"75 -65 OFFCURVE",
"-12 -226 OFFCURVE",
"-39 -269 CURVE",
"-43 -274 OFFCURVE",
"-45 -279 OFFCURVE",
"-45 -283 CURVE SMOOTH",
"-45 -288 OFFCURVE",
"-40 -291 OFFCURVE",
"-36 -291 CURVE SMOOTH",
"-29 -291 OFFCURVE",
"-20 -285 OFFCURVE",
"-13 -276 CURVE SMOOTH",
"17 -240 OFFCURVE",
"82 -128 OFFCURVE",
"139 -13 CURVE",
"142 -14 OFFCURVE",
"145 -15 OFFCURVE",
"149 -15 CURVE SMOOTH",
"156 -15 OFFCURVE",
"160 -11 OFFCURVE",
"163 -6 CURVE SMOOTH",
"185 30 LINE SMOOTH",
"224 93 OFFCURVE",
"323 166 OFFCURVE",
"391 193 CURVE SMOOTH",
"417 203 OFFCURVE",
"451 213 OFFCURVE",
"476 213 CURVE SMOOTH",
"493 213 OFFCURVE",
"511 207 OFFCURVE",
"515 184 CURVE",
"379 157 OFFCURVE",
"289 109 OFFCURVE",
"260 78 CURVE SMOOTH",
"247 63 OFFCURVE",
"239 48 OFFCURVE",
"239 34 CURVE SMOOTH",
"239 9 OFFCURVE",
"263 -6 OFFCURVE",
"296 -6 CURVE SMOOTH",
"384 -6 OFFCURVE",
"553 69 OFFCURVE",
"557 168 CURVE"
);
},
{
closed = 1;
nodes = (
"331 97 OFFCURVE",
"407 132 OFFCURVE",
"508 157 CURVE",
"494 131 OFFCURVE",
"458 91 OFFCURVE",
"408 59 CURVE SMOOTH",
"372 36 OFFCURVE",
"329 25 OFFCURVE",
"302 25 CURVE SMOOTH",
"280 25 OFFCURVE",
"272 31 OFFCURVE",
"272 38 CURVE SMOOTH",
"272 44 OFFCURVE",
"279 56 OFFCURVE",
"299 72 CURVE SMOOTH"
);
}
);
width = 300;
}
);
note = thorn;
unicode = 00FE;
},
{
glyphname = eth;
layers = (
{
hints = (
{
horizontal = 1;
place = "{-12, 15}";
type = Stem;
},
{
horizontal = 1;
place = "{8, 16}";
type = Stem;
},
{
horizontal = 1;
place = "{268, 23}";
type = Stem;
},
{
horizontal = 1;
place = "{389, 51}";
type = Stem;
},
{
place = "{15, 27}";
type = Stem;
},
{
place = "{255, 24}";
type = Stem;
},
{
place = "{570, 14}";
type = Stem;
}
);
layerId = "A14CB8BB-4075-44A2-8ACC-F29FBF19C8BE";
paths = (
{
closed = 1;
nodes = (
"642 481 OFFCURVE",
"668 491 OFFCURVE",
"692 499 CURVE SMOOTH",
"705 503 OFFCURVE",
"715 510 OFFCURVE",
"716 513 CURVE SMOOTH",
"717 517 OFFCURVE",
"716 522 OFFCURVE",
"707 523 CURVE SMOOTH",
"702 524 OFFCURVE",
"695 524 OFFCURVE",
"685 523 CURVE SMOOTH",
"663 522 OFFCURVE",
"642 518 OFFCURVE",
"625 514 CURVE",
"627 531 OFFCURVE",
"629 546 OFFCURVE",
"629 562 CURVE SMOOTH",
"629 632 OFFCURVE",
"581 689 OFFCURVE",
"522 689 CURVE SMOOTH",
"479 689 OFFCURVE",
"436 659 OFFCURVE",
"427 631 CURVE SMOOTH",
"424 622 OFFCURVE",
"428 616 OFFCURVE",
"432 615 CURVE SMOOTH",
"435 614 OFFCURVE",
"441 615 OFFCURVE",
"449 625 CURVE SMOOTH",
"466 647 OFFCURVE",
"492 657 OFFCURVE",
"517 657 CURVE SMOOTH",
"553 657 OFFCURVE",
"580 630 OFFCURVE",
"580 570 CURVE SMOOTH",
"580 547 OFFCURVE",
"577 524 OFFCURVE",
"572 500 CURVE",
"557 496 LINE SMOOTH",
"531 488 OFFCURVE",
"494 476 OFFCURVE",
"479 468 CURVE SMOOTH",
"462 459 OFFCURVE",
"453 448 OFFCURVE",
"452 439 CURVE SMOOTH",
"451 428 OFFCURVE",
"461 423 OFFCURVE",
"471 426 CURVE SMOOTH",
"499 434 OFFCURVE",
"530 444 OFFCURVE",
"560 454 CURVE",
"538 386 OFFCURVE",
"502 316 OFFCURVE",
"463 257 CURVE",
"459 266 OFFCURVE",
"451 273 OFFCURVE",
"443 279 CURVE SMOOTH",
"424 292 OFFCURVE",
"404 297 OFFCURVE",
"384 297 CURVE SMOOTH",
"369 297 OFFCURVE",
"352 294 OFFCURVE",
"337 287 CURVE SMOOTH",
"265 257 OFFCURVE",
"156 152 OFFCURVE",
"156 76 CURVE SMOOTH",
"156 60 OFFCURVE",
"161 45 OFFCURVE",
"172 32 CURVE SMOOTH",
"186 17 OFFCURVE",
"205 5 OFFCURVE",
"229 9 CURVE SMOOTH",
"271 16 OFFCURVE",
"333 71 OFFCURVE",
"377 113 CURVE SMOOTH",
"469 198 OFFCURVE",
"578 337 OFFCURVE",
"615 472 CURVE"
);
},
{
closed = 1;
nodes = (
"444 229 LINE",
"416 190 OFFCURVE",
"388 157 OFFCURVE",
"362 135 CURVE SMOOTH",
"324 103 OFFCURVE",
"285 73 OFFCURVE",
"245 49 CURVE SMOOTH",
"231 40 OFFCURVE",
"216 34 OFFCURVE",
"206 34 CURVE SMOOTH",
"198 34 OFFCURVE",
"189 39 OFFCURVE",
"193 70 CURVE SMOOTH",
"204 143 OFFCURVE",
"328 273 OFFCURVE",
"406 265 CURVE SMOOTH",
"429 263 OFFCURVE",
"436 247 OFFCURVE",
"442 231 CURVE"
);
}
);
width = 568;
}
);
note = eth;
unicode = 00F0;
},
{
glyphname = Zcaron;
layers = (
{
hints = (
{
horizontal = 1;
place = "{618, 127}";
type = Stem;
},
{
place = "{544, 271}";
type = Stem;
}
);
layerId = "A14CB8BB-4075-44A2-8ACC-F29FBF19C8BE";
paths = (
{
closed = 1;
nodes = (
"814 724 OFFCURVE",
"812 732 OFFCURVE",
"803 739 CURVE",
"789 738 OFFCURVE",
"762 726 OFFCURVE",
"725 705 CURVE SMOOTH",
"693 687 OFFCURVE",
"669 672 OFFCURVE",
"655 659 CURVE",
"619 707 OFFCURVE",
"593 735 OFFCURVE",
"584 735 CURVE SMOOTH",
"575 735 OFFCURVE",
"572 729 OFFCURVE",
"569 722 CURVE",
"569 712 OFFCURVE",
"580 692 OFFCURVE",
"603 662 CURVE SMOOTH",
"626 632 OFFCURVE",
"643 613 OFFCURVE",
"655 611 CURVE",
"662 615 LINE",
"693 642 OFFCURVE",
"738 674 OFFCURVE",
"798 714 CURVE SMOOTH"
);
},
{
closed = 1;
nodes = (
"982 -336 OFFCURVE",
"1047 -318 OFFCURVE",
"1056 -272 CURVE SMOOTH",
"1088 -98 OFFCURVE",
"711 73 OFFCURVE",
"429 85 CURVE SMOOTH",
"393 87 LINE",
"543 232 OFFCURVE",
"731 406 OFFCURVE",
"844 463 CURVE",
"861 456 OFFCURVE",
"875 448 OFFCURVE",
"887 440 CURVE SMOOTH",
"905 427 OFFCURVE",
"912 448 OFFCURVE",
"902 458 CURVE SMOOTH",
"894 466 OFFCURVE",
"886 472 OFFCURVE",
"876 477 CURVE",
"904 494 OFFCURVE",
"885 513 OFFCURVE",
"854 507 CURVE",
"852 507 OFFCURVE",
"850 507 OFFCURVE",
"847 507 CURVE SMOOTH",
"838 508 OFFCURVE",
"827 511 OFFCURVE",
"818 509 CURVE",
"749 530 LINE SMOOTH",
"692 547 OFFCURVE",
"615 559 OFFCURVE",
"537 559 CURVE SMOOTH",
"399 559 OFFCURVE",
"254 521 OFFCURVE",
"214 406 CURVE SMOOTH",
"206 380 OFFCURVE",
"212 341 OFFCURVE",
"245 332 CURVE",
"259 330 OFFCURVE",
"277 339 OFFCURVE",
"251 351 CURVE SMOOTH",
"231 361 OFFCURVE",
"240 381 OFFCURVE",
"248 401 CURVE SMOOTH",
"284 488 OFFCURVE",
"456 523 OFFCURVE",
"597 523 CURVE SMOOTH",
"634 523 OFFCURVE",
"667 521 OFFCURVE",
"696 516 CURVE SMOOTH",
"727 511 OFFCURVE",
"756 504 OFFCURVE",
"784 494 CURVE",
"717 459 OFFCURVE",
"641 389 OFFCURVE",
"565 314 CURVE SMOOTH",
"487 235 OFFCURVE",
"408 149 OFFCURVE",
"341 87 CURVE",
"183 82 OFFCURVE",
"49 30 OFFCURVE",
"31 -26 CURVE SMOOTH",
"28 -38 OFFCURVE",
"26 -48 OFFCURVE",
"26 -58 CURVE SMOOTH",
"26 -72 OFFCURVE",
"30 -85 OFFCURVE",
"38 -89 CURVE SMOOTH",
"45 -93 OFFCURVE",
"56 -88 OFFCURVE",
"61 -69 CURVE SMOOTH",
"85 12 OFFCURVE",
"202 53 OFFCURVE",
"313 62 CURVE",
"251 9 OFFCURVE",
"170 -45 OFFCURVE",
"135 -50 CURVE SMOOTH",
"123 -51 OFFCURVE",
"114 -50 OFFCURVE",
"108 -49 CURVE SMOOTH",
"105 -48 OFFCURVE",
"103 -47 OFFCURVE",
"101 -47 CURVE SMOOTH",
"97 -46 OFFCURVE",
"94 -47 OFFCURVE",
"92 -49 CURVE",
"87 -58 OFFCURVE",
"101 -73 OFFCURVE",
"122 -74 CURVE SMOOTH",
"197 -79 OFFCURVE",
"292 -10 OFFCURVE",
"371 64 CURVE",
"383 64 OFFCURVE",
"395 63 OFFCURVE",
"406 62 CURVE SMOOTH",
"671 43 OFFCURVE",
"1029 -129 OFFCURVE",
"1004 -261 CURVE SMOOTH",
"998 -292 OFFCURVE",
"951 -307 OFFCURVE",
"890 -307 CURVE SMOOTH",
"867 -307 OFFCURVE",
"844 -305 OFFCURVE",
"820 -301 CURVE SMOOTH",
"812 -300 OFFCURVE",
"804 -301 OFFCURVE",
"799 -304 CURVE SMOOTH",
"796 -306 OFFCURVE",
"794 -310 OFFCURVE",
"797 -314 CURVE SMOOTH",
"799 -317 OFFCURVE",
"803 -318 OFFCURVE",
"807 -320 CURVE SMOOTH",
"829 -328 OFFCURVE",
"879 -333 OFFCURVE",
"893 -334 CURVE SMOOTH",
"903 -335 OFFCURVE",
"913 -336 OFFCURVE",
"924 -336 CURVE SMOOTH"
);
}
);
width = 638;
}
);
note = Zcaron;
unicode = 017D;
},
{
glyphname = zcaron;
layers = (
{
hints = (
{
horizontal = 1;
place = "{-19, 21}";
target = up;
type = BottomGhost;
},
{
horizontal = 1;
place = "{47, 28}";
type = Stem;
},
{
horizontal = 1;
place = "{237, 26}";
type = Stem;
},
{
horizontal = 1;
place = "{347, 127}";
type = Stem;
},
{
place = "{278, 271}";
type = Stem;
},
{
place = "{353, 41}";
type = Stem;
}
);
layerId = "A14CB8BB-4075-44A2-8ACC-F29FBF19C8BE";
paths = (
{
closed = 1;
nodes = (
"547 454 OFFCURVE",
"545 461 OFFCURVE",
"536 468 CURVE",
"522 467 OFFCURVE",
"496 455 OFFCURVE",
"459 434 CURVE SMOOTH",
"427 416 OFFCURVE",
"403 401 OFFCURVE",
"389 389 CURVE",
"354 437 OFFCURVE",
"329 464 OFFCURVE",
"319 464 CURVE SMOOTH",
"311 464 OFFCURVE",
"308 458 OFFCURVE",
"304 451 CURVE",
"304 441 OFFCURVE",
"316 421 OFFCURVE",
"339 391 CURVE SMOOTH",
"361 362 OFFCURVE",
"378 343 OFFCURVE",
"390 341 CURVE",
"397 345 LINE",
"427 372 OFFCURVE",
"472 403 OFFCURVE",
"532 443 CURVE SMOOTH"
);
},
{
closed = 1;
nodes = (
"616 -42 OFFCURVE",
"624 -20 OFFCURVE",
"624 -3 CURVE SMOOTH",
"624 37 OFFCURVE",
"588 55 OFFCURVE",
"562 60 CURVE SMOOTH",
"531 66 OFFCURVE",
"498 68 OFFCURVE",
"465 68 CURVE SMOOTH",
"394 68 OFFCURVE",
"320 58 OFFCURVE",
"248 44 CURVE",
"315 73 OFFCURVE",
"439 140 OFFCURVE",
"497 186 CURVE SMOOTH",
"514 200 OFFCURVE",
"523 213 OFFCURVE",
"523 224 CURVE SMOOTH",
"523 254 OFFCURVE",
"456 266 OFFCURVE",
"429 267 CURVE SMOOTH",
"308 271 OFFCURVE",
"200 245 OFFCURVE",
"200 209 CURVE SMOOTH",
"200 199 OFFCURVE",
"204 189 OFFCURVE",
"209 182 CURVE SMOOTH",
"213 175 OFFCURVE",
"218 169 OFFCURVE",
"221 165 CURVE SMOOTH",
"223 161 OFFCURVE",
"227 159 OFFCURVE",
"230 158 CURVE",
"232 158 OFFCURVE",
"241 158 OFFCURVE",
"239 167 CURVE",
"234 179 OFFCURVE",
"239 187 OFFCURVE",
"244 190 CURVE",
"249 195 OFFCURVE",
"255 198 OFFCURVE",
"260 200 CURVE SMOOTH",
"265 203 OFFCURVE",
"271 204 OFFCURVE",
"275 206 CURVE SMOOTH",
"292 214 OFFCURVE",
"381 232 OFFCURVE",
"436 232 CURVE SMOOTH",
"457 232 OFFCURVE",
"473 232 OFFCURVE",
"473 223 CURVE SMOOTH",
"473 185 OFFCURVE",
"297 92 OFFCURVE",
"268 79 CURVE SMOOTH",
"232 62 OFFCURVE",
"194 46 OFFCURVE",
"156 28 CURVE SMOOTH",
"148 25 LINE SMOOTH",
"115 14 OFFCURVE",
"127 -22 OFFCURVE",
"151 -19 CURVE",
"204 -5 OFFCURVE",
"363 30 OFFCURVE",
"476 30 CURVE SMOOTH",
"549 30 OFFCURVE",
"596 16 OFFCURVE",
"596 -19 CURVE SMOOTH",
"596 -30 OFFCURVE",
"591 -43 OFFCURVE",
"582 -60 CURVE",
"579 -63 OFFCURVE",
"578 -67 OFFCURVE",
"578 -70 CURVE SMOOTH",
"578 -75 OFFCURVE",
"583 -77 OFFCURVE",
"586 -76 CURVE",
"591 -76 OFFCURVE",
"596 -71 OFFCURVE",
"600 -66 CURVE SMOOTH"
);
}
);
width = 535;
}
);
note = zcaron;
unicode = 017E;
},
{
glyphname = onehalf;
layers = (
{
hints = (
{
horizontal = 1;
place = "{-12, 20}";
type = Stem;
},
{
horizontal = 1;
place = "{33, 14}";
type = Stem;
},
{
horizontal = 1;
place = "{109, 16}";
type = Stem;
},
{
horizontal = 1;
place = "{111, 23}";
type = Stem;
},
{
horizontal = 1;
place = "{116, 13}";
type = Stem;
},
{
horizontal = 1;
place = "{97, 21}";
target = up;
type = BottomGhost;
},
{
horizontal = 1;
place = "{303, 33}";
type = Stem;
},
{
horizontal = 1;
place = "{336, 20}";
type = Stem;
},
{
horizontal = 1;
place = "{319, 21}";
target = up;
type = BottomGhost;
},
{
horizontal = 1;
place = "{354, 12}";
type = Stem;
},
{
horizontal = 1;
place = "{387, -20}";
target = down;
type = TopGhost;
},
{
horizontal = 1;
place = "{394, 15}";
type = Stem;
},
{
horizontal = 1;
place = "{550, 29}";
type = Stem;
},
{
horizontal = 1;
place = "{589, 13}";
type = Stem;
},
{
place = "{-27, 14}";
type = Stem;
},
{
place = "{80, 17}";
type = Stem;
},
{
place = "{81, 28}";
type = Stem;
},
{
place = "{100, 16}";
type = Stem;
},
{
place = "{100, 226}";
type = Stem;
},
{
place = "{105, 424}";
type = Stem;
},
{
place = "{172, 83}";
type = Stem;
},
{
place = "{323, 26}";
type = Stem;
},
{
place = "{345, 55}";
type = Stem;
},
{
place = "{490, 17}";
type = Stem;
},
{
place = "{752, 35}";
type = Stem;
}
);
layerId = "A14CB8BB-4075-44A2-8ACC-F29FBF19C8BE";
paths = (
{
closed = 1;
nodes = (
"734 587 LINE SMOOTH",
"736 589 OFFCURVE",
"738 592 OFFCURVE",
"738 595 CURVE SMOOTH",
"738 594 LINE",
"742 607 OFFCURVE",
"730 612 OFFCURVE",
"717 613 CURVE SMOOTH",
"711 614 OFFCURVE",
"705 613 OFFCURVE",
"699 609 CURVE SMOOTH",
"652 576 OFFCURVE",
"619 549 OFFCURVE",
"597 530 CURVE SMOOTH",
"420 385 OFFCURVE",
"292 259 OFFCURVE",
"211 148 CURVE SMOOTH",
"193 124 OFFCURVE",
"181 107 OFFCURVE",
"180 101 CURVE SMOOTH",
"179 94 OFFCURVE",
"192 85 OFFCURVE",
"199 85 CURVE SMOOTH",
"204 85 OFFCURVE",
"210 87 OFFCURVE",
"213 92 CURVE SMOOTH",
"229 118 OFFCURVE",
"240 134 OFFCURVE",
"246 142 CURVE SMOOTH",
"317 237 OFFCURVE",
"441 364 OFFCURVE",
"643 518 CURVE SMOOTH"
);
},
{
closed = 1;
nodes = (
"856 -51 OFFCURVE",
"864 -29 OFFCURVE",
"864 -12 CURVE SMOOTH",
"864 28 OFFCURVE",
"828 48 OFFCURVE",
"802 52 CURVE SMOOTH",
"771 58 OFFCURVE",
"739 59 OFFCURVE",
"706 59 CURVE SMOOTH",
"639 59 OFFCURVE",
"570 50 OFFCURVE",
"502 38 CURVE",
"556 74 OFFCURVE",
"630 115 OFFCURVE",
"695 158 CURVE SMOOTH",
"768 207 OFFCURVE",
"833 260 OFFCURVE",
"845 317 CURVE",
"852 377 OFFCURVE",
"798 390 OFFCURVE",
"749 390 CURVE SMOOTH",
"720 390 OFFCURVE",
"690 386 OFFCURVE",
"671 382 CURVE SMOOTH",
"577 365 OFFCURVE",
"524 316 OFFCURVE",
"508 299 CURVE",
"502 303 OFFCURVE",
"498 308 OFFCURVE",
"493 313 CURVE SMOOTH",
"488 317 OFFCURVE",
"481 319 OFFCURVE",
"476 316 CURVE SMOOTH",
"470 311 OFFCURVE",
"472 304 OFFCURVE",
"477 300 CURVE SMOOTH",
"482 296 OFFCURVE",
"485 292 OFFCURVE",
"488 289 CURVE",
"490 288 OFFCURVE",
"491 286 OFFCURVE",
"493 285 CURVE",
"487 277 OFFCURVE",
"484 266 OFFCURVE",
"483 259 CURVE SMOOTH",
"476 224 OFFCURVE",
"506 197 OFFCURVE",
"531 190 CURVE SMOOTH",
"559 182 OFFCURVE",
"584 197 OFFCURVE",
"562 240 CURVE SMOOTH",
"555 254 OFFCURVE",
"544 266 OFFCURVE",
"532 277 CURVE",
"555 300 OFFCURVE",
"651 364 OFFCURVE",
"757 364 CURVE SMOOTH",
"789 364 OFFCURVE",
"802 352 OFFCURVE",
"799 331 CURVE SMOOTH",
"794 298 OFFCURVE",
"752 252 OFFCURVE",
"672 188 CURVE SMOOTH",
"613 141 OFFCURVE",
"567 105 OFFCURVE",
"515 75 CURVE SMOOTH",
"498 66 OFFCURVE",
"482 55 OFFCURVE",
"465 46 CURVE SMOOTH",
"449 36 OFFCURVE",
"435 28 OFFCURVE",
"422 24 CURVE",
"383 17 LINE",
"351 6 OFFCURVE",
"362 -30 OFFCURVE",
"387 -28 CURVE",
"440 -14 OFFCURVE",
"601 22 OFFCURVE",
"715 22 CURVE SMOOTH",
"788 22 OFFCURVE",
"835 8 OFFCURVE",
"835 -28 CURVE SMOOTH",
"835 -38 OFFCURVE",
"831 -52 OFFCURVE",
"821 -69 CURVE SMOOTH",
"819 -72 OFFCURVE",
"817 -76 OFFCURVE",
"817 -79 CURVE SMOOTH",
"818 -84 OFFCURVE",
"822 -86 OFFCURVE",
"826 -85 CURVE SMOOTH",
"830 -85 OFFCURVE",
"836 -80 OFFCURVE",
"839 -75 CURVE SMOOTH"
);
},
{
closed = 1;
nodes = (
"110 373 OFFCURVE",
"70 369 OFFCURVE",
"39 358 CURVE SMOOTH",
"19 352 OFFCURVE",
"10 337 OFFCURVE",
"12 324 CURVE SMOOTH",
"14 311 OFFCURVE",
"26 302 OFFCURVE",
"42 307 CURVE SMOOTH",
"116 332 OFFCURVE",
"236 355 OFFCURVE",
"316 362 CURVE",
"324 361 OFFCURVE",
"326 367 OFFCURVE",
"325 372 CURVE SMOOTH",
"324 376 OFFCURVE",
"320 380 OFFCURVE",
"314 380 CURVE SMOOTH",
"276 376 OFFCURVE",
"228 376 OFFCURVE",
"180 376 CURVE",
"228 481 OFFCURVE",
"297 612 OFFCURVE",
"365 704 CURVE",
"364 728 OFFCURVE",
"353 738 OFFCURVE",
"331 738 CURVE SMOOTH",
"327 738 OFFCURVE",
"324 737 OFFCURVE",
"322 736 CURVE",
"288 706 OFFCURVE",
"153 596 OFFCURVE",
"135 580 CURVE",
"130 574 OFFCURVE",
"127 570 OFFCURVE",
"127 564 CURVE SMOOTH",
"127 560 OFFCURVE",
"128 554 OFFCURVE",
"136 554 CURVE SMOOTH",
"140 554 OFFCURVE",
"146 557 OFFCURVE",
"151 562 CURVE",
"157 566 OFFCURVE",
"186 587 OFFCURVE",
"214 608 CURVE SMOOTH",
"228 619 OFFCURVE",
"243 630 OFFCURVE",
"254 638 CURVE SMOOTH",
"259 642 LINE",
"229 569 OFFCURVE",
"189 455 OFFCURVE",
"151 378 CURVE",
"150 377 OFFCURVE",
"150 375 OFFCURVE",
"150 374 CURVE"
);
},
{
closed = 1;
nodes = (
"529 248 OFFCURVE",
"534 241 OFFCURVE",
"539 232 CURVE SMOOTH",
"541 227 OFFCURVE",
"542 220 OFFCURVE",
"541 217 CURVE SMOOTH",
"540 214 OFFCURVE",
"540 217 OFFCURVE",
"536 222 CURVE SMOOTH",
"527 231 OFFCURVE",
"522 243 OFFCURVE",
"521 256 CURVE"
);
}
);
width = 886;
}
);
note = onehalf;
unicode = 00BD;
},
{
glyphname = onequarter;
layers = (
{
hints = (
{
horizontal = 1;
place = "{-29, 20}";
type = Stem;
},
{
horizontal = 1;
place = "{97, 21}";
target = up;
type = BottomGhost;
},
{
horizontal = 1;
place = "{319, 21}";
target = up;
type = BottomGhost;
},
{
horizontal = 1;
place = "{387, -20}";
target = down;
type = TopGhost;
},
{
horizontal = 1;
place = "{394, 15}";
type = Stem;
},
{
horizontal = 1;
place = "{550, 29}";
type = Stem;
},
{
horizontal = 1;
place = "{589, 13}";
type = Stem;
},
{
place = "{-27, 14}";
type = Stem;
},
{
place = "{80, 17}";
type = Stem;
},
{
place = "{100, 16}";
type = Stem;
},
{
place = "{172, 83}";
type = Stem;
},
{
place = "{323, 26}";
type = Stem;
},
{
place = "{490, 17}";
type = Stem;
},
{
horizontal = 1;
place = "{116, 13}";
type = Stem;
}
);
layerId = "A14CB8BB-4075-44A2-8ACC-F29FBF19C8BE";
paths = (
{
closed = 1;
nodes = (
"734 587 LINE SMOOTH",
"736 589 OFFCURVE",
"739 592 OFFCURVE",
"739 595 CURVE SMOOTH",
"739 594 LINE SMOOTH",
"742 607 OFFCURVE",
"730 612 OFFCURVE",
"717 613 CURVE SMOOTH",
"711 614 OFFCURVE",
"705 613 OFFCURVE",
"699 609 CURVE SMOOTH",
"652 576 OFFCURVE",
"619 549 OFFCURVE",
"597 530 CURVE SMOOTH",
"420 386 OFFCURVE",
"292 259 OFFCURVE",
"211 148 CURVE SMOOTH",
"193 124 OFFCURVE",
"181 107 OFFCURVE",
"180 101 CURVE SMOOTH",
"179 94 OFFCURVE",
"192 85 OFFCURVE",
"199 85 CURVE SMOOTH",
"204 85 OFFCURVE",
"210 88 OFFCURVE",
"213 92 CURVE SMOOTH",
"229 118 OFFCURVE",
"240 135 OFFCURVE",
"246 142 CURVE SMOOTH",
"317 237 OFFCURVE",
"441 364 OFFCURVE",
"643 518 CURVE SMOOTH"
);
},
{
closed = 1;
nodes = (
"780 95 OFFCURVE",
"861 132 OFFCURVE",
"886 218 CURVE SMOOTH",
"893 241 OFFCURVE",
"888 276 OFFCURVE",
"863 285 CURVE",
"852 287 OFFCURVE",
"838 279 OFFCURVE",
"856 267 CURVE",
"872 259 OFFCURVE",
"865 240 OFFCURVE",
"859 222 CURVE SMOOTH",
"835 153 OFFCURVE",
"728 122 OFFCURVE",
"629 116 CURVE",
"675 208 OFFCURVE",
"727 302 OFFCURVE",
"779 369 CURVE",
"794 385 OFFCURVE",
"758 409 OFFCURVE",
"745 409 CURVE SMOOTH",
"741 409 OFFCURVE",
"738 409 OFFCURVE",
"735 407 CURVE",
"669 337 OFFCURVE",
"501 189 OFFCURVE",
"443 140 CURVE",
"429 142 OFFCURVE",
"417 142 OFFCURVE",
"405 142 CURVE SMOOTH",
"386 142 OFFCURVE",
"369 140 OFFCURVE",
"354 132 CURVE SMOOTH",
"340 124 OFFCURVE",
"344 111 OFFCURVE",
"353 103 CURVE SMOOTH",
"363 95 OFFCURVE",
"378 89 OFFCURVE",
"396 89 CURVE SMOOTH",
"413 89 OFFCURVE",
"432 95 OFFCURVE",
"448 112 CURVE",
"484 107 OFFCURVE",
"529 94 OFFCURVE",
"580 87 CURVE",
"563 48 OFFCURVE",
"547 9 OFFCURVE",
"531 -25 CURVE SMOOTH",
"526 -36 OFFCURVE",
"523 -44 OFFCURVE",
"523 -50 CURVE SMOOTH",
"523 -56 OFFCURVE",
"526 -62 OFFCURVE",
"533 -62 CURVE SMOOTH",
"542 -62 OFFCURVE",
"552 -51 OFFCURVE",
"557 -39 CURVE SMOOTH",
"574 -2 OFFCURVE",
"593 40 OFFCURVE",
"614 84 CURVE",
"625 83 OFFCURVE",
"636 83 OFFCURVE",
"647 83 CURVE SMOOTH",
"662 83 OFFCURVE",
"677 83 OFFCURVE",
"693 85 CURVE SMOOTH"
);
},
{
closed = 1;
nodes = (
"110 373 OFFCURVE",
"70 369 OFFCURVE",
"39 358 CURVE SMOOTH",
"19 352 OFFCURVE",
"10 337 OFFCURVE",
"12 324 CURVE SMOOTH",
"14 311 OFFCURVE",
"26 302 OFFCURVE",
"42 308 CURVE SMOOTH",
"116 332 OFFCURVE",
"236 355 OFFCURVE",
"316 362 CURVE",
"324 361 OFFCURVE",
"326 367 OFFCURVE",
"325 372 CURVE SMOOTH",
"324 376 OFFCURVE",
"320 380 OFFCURVE",
"314 380 CURVE SMOOTH",
"277 376 OFFCURVE",
"228 376 OFFCURVE",
"180 376 CURVE",
"228 481 OFFCURVE",
"298 612 OFFCURVE",
"365 704 CURVE",
"364 728 OFFCURVE",
"353 738 OFFCURVE",
"331 738 CURVE SMOOTH",
"327 738 OFFCURVE",
"324 737 OFFCURVE",
"322 736 CURVE",
"288 706 OFFCURVE",
"153 597 OFFCURVE",
"135 580 CURVE",
"130 574 OFFCURVE",
"127 570 OFFCURVE",
"127 564 CURVE SMOOTH",
"127 560 OFFCURVE",
"128 554 OFFCURVE",
"136 554 CURVE SMOOTH",
"140 554 OFFCURVE",
"146 557 OFFCURVE",
"152 562 CURVE SMOOTH",
"157 566 OFFCURVE",
"186 587 OFFCURVE",
"214 608 CURVE SMOOTH",
"228 619 OFFCURVE",
"243 630 OFFCURVE",
"254 638 CURVE SMOOTH",
"259 642 LINE",
"229 569 OFFCURVE",
"190 455 OFFCURVE",
"151 378 CURVE",
"150 377 OFFCURVE",
"150 376 OFFCURVE",
"150 374 CURVE"
);
},
{
closed = 1;
nodes = (
"602 236 OFFCURVE",
"641 267 OFFCURVE",
"668 292 CURVE",
"647 240 OFFCURVE",
"620 177 OFFCURVE",
"593 115 CURVE",
"569 115 OFFCURVE",
"546 117 OFFCURVE",
"527 121 CURVE SMOOTH",
"510 124 OFFCURVE",
"492 129 OFFCURVE",
"472 133 CURVE",
"490 148 OFFCURVE",
"527 176 OFFCURVE",
"565 207 CURVE SMOOTH"
);
}
);
width = 916;
}
);
note = onequarter;
unicode = 00BC;
},
{
glyphname = onesuperior;
layers = (
{
hints = (
{
horizontal = 1;
place = "{319, 21}";
target = up;
type = BottomGhost;
},
{
horizontal = 1;
place = "{550, 29}";
type = Stem;
},
{
horizontal = 1;
place = "{589, 13}";
type = Stem;
},
{
place = "{-27, 14}";
type = Stem;
},
{
place = "{100, 16}";
type = Stem;
},
{
place = "{172, 83}";
type = Stem;
},
{
place = "{100, 226}";
type = Stem;
}
);
layerId = "A14CB8BB-4075-44A2-8ACC-F29FBF19C8BE";
paths = (
{
closed = 1;
nodes = (
"108 377 OFFCURVE",
"69 373 OFFCURVE",
"39 363 CURVE SMOOTH",
"19 356 OFFCURVE",
"10 342 OFFCURVE",
"12 329 CURVE SMOOTH",
"14 316 OFFCURVE",
"26 307 OFFCURVE",
"42 312 CURVE SMOOTH",
"114 337 OFFCURVE",
"232 359 OFFCURVE",
"311 366 CURVE",
"319 365 OFFCURVE",
"321 371 OFFCURVE",
"320 376 CURVE SMOOTH",
"319 380 OFFCURVE",
"315 384 OFFCURVE",
"309 384 CURVE SMOOTH",
"272 380 OFFCURVE",
"225 380 OFFCURVE",
"177 380 CURVE",
"225 484 OFFCURVE",
"293 613 OFFCURVE",
"359 704 CURVE",
"358 728 OFFCURVE",
"347 738 OFFCURVE",
"326 738 CURVE SMOOTH",
"321 738 OFFCURVE",
"319 737 OFFCURVE",
"317 736 CURVE",
"283 706 OFFCURVE",
"151 598 OFFCURVE",
"133 582 CURVE",
"128 576 OFFCURVE",
"125 572 OFFCURVE",
"125 566 CURVE SMOOTH",
"125 562 OFFCURVE",
"127 556 OFFCURVE",
"133 556 CURVE SMOOTH",
"138 556 OFFCURVE",
"144 559 OFFCURVE",
"149 564 CURVE",
"155 568 OFFCURVE",
"183 589 OFFCURVE",
"210 610 CURVE SMOOTH",
"225 621 OFFCURVE",
"239 631 OFFCURVE",
"250 639 CURVE SMOOTH",
"255 643 LINE",
"225 571 OFFCURVE",
"187 458 OFFCURVE",
"148 382 CURVE",
"148 381 OFFCURVE",
"148 379 OFFCURVE",
"147 378 CURVE"
);
}
);
width = 366;
}
);
note = onesuperior;
unicode = 00B9;
},
{
glyphname = threequarters;
layers = (
{
hints = (
{
horizontal = 1;
place = "{-29, 20}";
type = Stem;
},
{
horizontal = 1;
place = "{97, 21}";
target = up;
type = BottomGhost;
},
{
horizontal = 1;
place = "{303, 33}";
type = Stem;
},
{
horizontal = 1;
place = "{340, 14}";
type = Stem;
},
{
horizontal = 1;
place = "{387, -20}";
target = down;
type = TopGhost;
},
{
horizontal = 1;
place = "{394, 15}";
type = Stem;
},
{
horizontal = 1;
place = "{705, 25}";
type = Stem;
},
{
place = "{74, 15}";
type = Stem;
},
{
place = "{166, 17}";
type = Stem;
},
{
place = "{330, 41}";
type = Stem;
},
{
place = "{377, 40}";
type = Stem;
},
{
place = "{431, 55}";
type = Stem;
},
{
place = "{576, 17}";
type = Stem;
},
{
horizontal = 1;
place = "{116, 13}";
type = Stem;
}
);
layerId = "A14CB8BB-4075-44A2-8ACC-F29FBF19C8BE";
paths = (
{
closed = 1;
nodes = (
"820 587 LINE",
"821 589 OFFCURVE",
"824 592 OFFCURVE",
"824 595 CURVE SMOOTH",
"824 594 LINE SMOOTH",
"827 607 OFFCURVE",
"816 613 OFFCURVE",
"803 613 CURVE",
"797 614 OFFCURVE",
"791 613 OFFCURVE",
"785 609 CURVE SMOOTH",
"738 576 OFFCURVE",
"705 549 OFFCURVE",
"683 531 CURVE SMOOTH",
"506 386 OFFCURVE",
"378 259 OFFCURVE",
"296 148 CURVE SMOOTH",
"278 124 OFFCURVE",
"267 107 OFFCURVE",
"266 101 CURVE SMOOTH",
"264 94 OFFCURVE",
"277 85 OFFCURVE",
"284 85 CURVE SMOOTH",
"290 85 OFFCURVE",
"295 88 OFFCURVE",
"298 92 CURVE SMOOTH",
"314 118 OFFCURVE",
"326 135 OFFCURVE",
"332 142 CURVE SMOOTH",
"403 237 OFFCURVE",
"527 365 OFFCURVE",
"728 518 CURVE SMOOTH"
);
},
{
closed = 1;
nodes = (
"832 95 OFFCURVE",
"914 132 OFFCURVE",
"939 218 CURVE SMOOTH",
"946 241 OFFCURVE",
"941 276 OFFCURVE",
"916 285 CURVE",
"905 287 OFFCURVE",
"891 279 OFFCURVE",
"909 267 CURVE",
"925 259 OFFCURVE",
"918 240 OFFCURVE",
"912 222 CURVE SMOOTH",
"888 153 OFFCURVE",
"781 122 OFFCURVE",
"682 116 CURVE",
"728 208 OFFCURVE",
"780 302 OFFCURVE",
"832 369 CURVE",
"847 385 OFFCURVE",
"811 409 OFFCURVE",
"798 409 CURVE SMOOTH",
"794 409 OFFCURVE",
"791 409 OFFCURVE",
"788 407 CURVE",
"722 337 OFFCURVE",
"554 189 OFFCURVE",
"495 140 CURVE",
"482 142 OFFCURVE",
"470 142 OFFCURVE",
"457 142 CURVE SMOOTH",
"439 142 OFFCURVE",
"422 140 OFFCURVE",
"407 132 CURVE SMOOTH",
"392 124 OFFCURVE",
"397 111 OFFCURVE",
"406 103 CURVE SMOOTH",
"415 95 OFFCURVE",
"431 89 OFFCURVE",
"448 89 CURVE SMOOTH",
"466 89 OFFCURVE",
"484 95 OFFCURVE",
"501 112 CURVE",
"537 107 OFFCURVE",
"582 94 OFFCURVE",
"633 87 CURVE",
"616 48 OFFCURVE",
"600 9 OFFCURVE",
"583 -25 CURVE",
"579 -36 OFFCURVE",
"576 -44 OFFCURVE",
"576 -50 CURVE SMOOTH",
"576 -56 OFFCURVE",
"579 -62 OFFCURVE",
"586 -62 CURVE SMOOTH",
"595 -62 OFFCURVE",
"605 -51 OFFCURVE",
"610 -39 CURVE SMOOTH",
"627 -2 OFFCURVE",
"646 40 OFFCURVE",
"667 84 CURVE",
"678 83 OFFCURVE",
"689 83 OFFCURVE",
"700 83 CURVE SMOOTH",
"715 83 OFFCURVE",
"730 83 OFFCURVE",
"746 85 CURVE SMOOTH"
);
},
{
closed = 1;
nodes = (
"459 618 OFFCURVE",
"503 648 OFFCURVE",
"508 690 CURVE SMOOTH",
"511 720 OFFCURVE",
"483 741 OFFCURVE",
"457 744 CURVE SMOOTH",
"447 745 OFFCURVE",
"434 746 OFFCURVE",
"420 746 CURVE SMOOTH",
"375 746 OFFCURVE",
"313 736 OFFCURVE",
"268 690 CURVE SMOOTH",
"248 669 OFFCURVE",
"264 653 OFFCURVE",
"277 668 CURVE SMOOTH",
"304 698 OFFCURVE",
"361 715 OFFCURVE",
"421 708 CURVE SMOOTH",
"440 706 OFFCURVE",
"450 698 OFFCURVE",
"450 686 CURVE SMOOTH",
"450 673 OFFCURVE",
"439 653 OFFCURVE",
"401 629 CURVE SMOOTH",
"370 609 OFFCURVE",
"357 604 OFFCURVE",
"335 603 CURVE",
"332 604 OFFCURVE",
"329 604 OFFCURVE",
"325 604 CURVE",
"322 605 OFFCURVE",
"320 605 OFFCURVE",
"318 606 CURVE",
"316 606 LINE",
"316 606 OFFCURVE",
"315 606 OFFCURVE",
"314 607 CURVE",
"295 609 OFFCURVE",
"284 602 OFFCURVE",
"282 589 CURVE SMOOTH",
"281 580 OFFCURVE",
"286 574 OFFCURVE",
"295 574 CURVE SMOOTH",
"301 573 OFFCURVE",
"308 574 OFFCURVE",
"317 577 CURVE",
"326 578 OFFCURVE",
"334 579 OFFCURVE",
"366 585 CURVE",
"366 585 LINE",
"427 585 OFFCURVE",
"449 564 OFFCURVE",
"449 528 CURVE SMOOTH",
"449 483 OFFCURVE",
"395 388 OFFCURVE",
"256 343 CURVE SMOOTH",
"225 333 OFFCURVE",
"189 325 OFFCURVE",
"157 325 CURVE SMOOTH",
"116 325 OFFCURVE",
"87 338 OFFCURVE",
"87 374 CURVE SMOOTH",
"87 431 OFFCURVE",
"154 486 OFFCURVE",
"206 506 CURVE SMOOTH",
"224 513 OFFCURVE",
"218 531 OFFCURVE",
"202 525 CURVE SMOOTH",
"137 504 OFFCURVE",
"42 444 OFFCURVE",
"42 378 CURVE SMOOTH",
"42 319 OFFCURVE",
"102 301 OFFCURVE",
"165 301 CURVE SMOOTH",
"209 301 OFFCURVE",
"258 310 OFFCURVE",
"295 321 CURVE SMOOTH",
"367 344 OFFCURVE",
"498 428 OFFCURVE",
"498 522 CURVE SMOOTH",
"498 533 OFFCURVE",
"496 545 OFFCURVE",
"492 556 CURVE SMOOTH",
"480 587 OFFCURVE",
"447 597 OFFCURVE",
"414 600 CURVE"
);
},
{
closed = 1;
nodes = (
"655 236 OFFCURVE",
"694 267 OFFCURVE",
"721 292 CURVE",
"700 240 OFFCURVE",
"673 177 OFFCURVE",
"646 115 CURVE",
"622 115 OFFCURVE",
"599 117 OFFCURVE",
"580 121 CURVE SMOOTH",
"563 124 OFFCURVE",
"545 129 OFFCURVE",
"525 133 CURVE",
"543 148 OFFCURVE",
"580 176 OFFCURVE",
"618 207 CURVE SMOOTH"
);
}
);
width = 981;
}
);
note = threequarters;
unicode = 00BE;
},
{
glyphname = threesuperior;
layers = (
{
hints = (
{
horizontal = 1;
place = "{340, 14}";
type = Stem;
},
{
horizontal = 1;
place = "{705, 25}";
type = Stem;
},
{
place = "{74, 15}";
type = Stem;
},
{
place = "{330, 41}";
type = Stem;
},
{
place = "{377, 40}";
type = Stem;
}
);
layerId = "A14CB8BB-4075-44A2-8ACC-F29FBF19C8BE";
paths = (
{
closed = 1;
nodes = (
"455 620 OFFCURVE",
"498 649 OFFCURVE",
"503 691 CURVE SMOOTH",
"506 720 OFFCURVE",
"479 741 OFFCURVE",
"453 744 CURVE SMOOTH",
"443 745 OFFCURVE",
"430 746 OFFCURVE",
"416 746 CURVE SMOOTH",
"371 746 OFFCURVE",
"310 736 OFFCURVE",
"266 691 CURVE SMOOTH",
"246 670 OFFCURVE",
"262 654 OFFCURVE",
"275 668 CURVE SMOOTH",
"301 699 OFFCURVE",
"357 715 OFFCURVE",
"417 709 CURVE SMOOTH",
"436 707 OFFCURVE",
"446 698 OFFCURVE",
"446 686 CURVE SMOOTH",
"446 673 OFFCURVE",
"434 653 OFFCURVE",
"398 630 CURVE SMOOTH",
"367 610 OFFCURVE",
"354 605 OFFCURVE",
"332 604 CURVE",
"329 605 OFFCURVE",
"326 605 OFFCURVE",
"322 605 CURVE",
"319 606 OFFCURVE",
"317 607 OFFCURVE",
"315 607 CURVE SMOOTH",
"313 607 LINE",
"313 607 OFFCURVE",
"313 608 OFFCURVE",
"312 608 CURVE SMOOTH",
"293 610 OFFCURVE",
"282 604 OFFCURVE",
"280 590 CURVE SMOOTH",
"279 581 OFFCURVE",
"284 576 OFFCURVE",
"292 576 CURVE SMOOTH",
"298 575 OFFCURVE",
"306 576 OFFCURVE",
"314 579 CURVE",
"323 580 OFFCURVE",
"331 581 OFFCURVE",
"363 587 CURVE",
"363 587 LINE",
"423 587 OFFCURVE",
"445 566 OFFCURVE",
"445 530 CURVE SMOOTH",
"445 486 OFFCURVE",
"392 391 OFFCURVE",
"254 347 CURVE SMOOTH",
"223 337 OFFCURVE",
"187 329 OFFCURVE",
"156 329 CURVE SMOOTH",
"115 329 OFFCURVE",
"87 342 OFFCURVE",
"87 377 CURVE SMOOTH",
"87 434 OFFCURVE",
"153 489 OFFCURVE",
"204 509 CURVE SMOOTH",
"222 516 OFFCURVE",
"216 533 OFFCURVE",
"200 528 CURVE SMOOTH",
"136 507 OFFCURVE",
"42 447 OFFCURVE",
"42 381 CURVE SMOOTH",
"42 323 OFFCURVE",
"101 305 OFFCURVE",
"163 305 CURVE SMOOTH",
"207 305 OFFCURVE",
"255 314 OFFCURVE",
"292 326 CURVE SMOOTH",
"363 348 OFFCURVE",
"493 431 OFFCURVE",
"493 524 CURVE SMOOTH",
"493 535 OFFCURVE",
"491 547 OFFCURVE",
"487 558 CURVE SMOOTH",
"475 588 OFFCURVE",
"442 599 OFFCURVE",
"411 602 CURVE"
);
}
);
width = 528;
}
);
note = threesuperior;
unicode = 00B3;
},
{
glyphname = twosuperior;
layers = (
{
hints = (
{
horizontal = 1;
place = "{354, 20}";
type = Stem;
},
{
horizontal = 1;
place = "{399, 14}";
type = Stem;
},
{
horizontal = 1;
place = "{720, 12}";
type = Stem;
},
{
place = "{413, 35}";
type = Stem;
}
);
layerId = "A14CB8BB-4075-44A2-8ACC-F29FBF19C8BE";
paths = (
{
closed = 1;
nodes = (
"517 315 OFFCURVE",
"525 336 OFFCURVE",
"525 353 CURVE SMOOTH",
"525 393 OFFCURVE",
"489 412 OFFCURVE",
"463 417 CURVE SMOOTH",
"433 422 OFFCURVE",
"401 424 OFFCURVE",
"368 424 CURVE SMOOTH",
"302 424 OFFCURVE",
"234 415 OFFCURVE",
"166 403 CURVE",
"219 439 OFFCURVE",
"293 479 OFFCURVE",
"357 522 CURVE SMOOTH",
"430 570 OFFCURVE",
"494 623 OFFCURVE",
"506 680 CURVE",
"513 739 OFFCURVE",
"460 752 OFFCURVE",
"411 752 CURVE SMOOTH",
"383 752 OFFCURVE",
"353 748 OFFCURVE",
"334 744 CURVE SMOOTH",
"240 727 OFFCURVE",
"187 678 OFFCURVE",
"171 662 CURVE",
"166 666 OFFCURVE",
"162 671 OFFCURVE",
"157 675 CURVE SMOOTH",
"152 680 OFFCURVE",
"145 681 OFFCURVE",
"141 678 CURVE SMOOTH",
"134 674 OFFCURVE",
"136 667 OFFCURVE",
"141 662 CURVE SMOOTH",
"146 658 OFFCURVE",
"149 655 OFFCURVE",
"152 652 CURVE SMOOTH",
"154 650 OFFCURVE",
"155 649 OFFCURVE",
"157 648 CURVE",
"151 640 OFFCURVE",
"148 629 OFFCURVE",
"147 622 CURVE SMOOTH",
"140 587 OFFCURVE",
"170 561 OFFCURVE",
"195 554 CURVE SMOOTH",
"223 546 OFFCURVE",
"247 561 OFFCURVE",
"225 603 CURVE SMOOTH",
"219 617 OFFCURVE",
"207 629 OFFCURVE",
"196 640 CURVE",
"219 662 OFFCURVE",
"314 726 OFFCURVE",
"419 726 CURVE SMOOTH",
"450 726 OFFCURVE",
"463 714 OFFCURVE",
"460 693 CURVE SMOOTH",
"456 661 OFFCURVE",
"414 615 OFFCURVE",
"335 551 CURVE SMOOTH",
"276 505 OFFCURVE",
"230 469 OFFCURVE",
"179 440 CURVE SMOOTH",
"162 431 OFFCURVE",
"146 420 OFFCURVE",
"130 411 CURVE SMOOTH",
"114 401 OFFCURVE",
"99 393 OFFCURVE",
"87 389 CURVE",
"48 382 LINE",
"16 371 OFFCURVE",
"28 335 OFFCURVE",
"52 338 CURVE",
"105 352 OFFCURVE",
"264 387 OFFCURVE",
"377 387 CURVE SMOOTH",
"450 387 OFFCURVE",
"497 373 OFFCURVE",
"497 338 CURVE SMOOTH",
"497 327 OFFCURVE",
"492 313 OFFCURVE",
"483 297 CURVE",
"480 294 OFFCURVE",
"479 290 OFFCURVE",
"479 287 CURVE SMOOTH",
"479 282 OFFCURVE",
"484 280 OFFCURVE",
"487 281 CURVE",
"492 281 OFFCURVE",
"497 286 OFFCURVE",
"501 291 CURVE SMOOTH"
);
},
{
closed = 1;
nodes = (
"193 611 OFFCURVE",
"198 604 OFFCURVE",
"203 595 CURVE SMOOTH",
"205 590 OFFCURVE",
"206 583 OFFCURVE",
"205 580 CURVE SMOOTH",
"204 578 OFFCURVE",
"203 580 OFFCURVE",
"199 585 CURVE SMOOTH",
"190 594 OFFCURVE",
"186 606 OFFCURVE",
"185 619 CURVE"
);
}
);
width = 560;
}
);
note = twosuperior;
unicode = 00B2;
},
{
glyphname = brokenbar;
layers = (
{
hints = (
{
place = "{95, 32}";
type = Stem;
}
);
layerId = "A14CB8BB-4075-44A2-8ACC-F29FBF19C8BE";
paths = (
{
closed = 1;
nodes = (
"320 245 LINE",
"346 301 OFFCURVE",
"369 352 OFFCURVE",
"383 393 CURVE SMOOTH",
"401 442 OFFCURVE",
"396 467 OFFCURVE",
"373 467 CURVE SMOOTH",
"363 467 OFFCURVE",
"354 462 OFFCURVE",
"353 454 CURVE",
"340 398 OFFCURVE",
"311 322 OFFCURVE",
"273 235 CURVE"
);
},
{
closed = 1;
nodes = (
"169 -47 OFFCURVE",
"228 59 OFFCURVE",
"288 177 CURVE",
"243 171 LINE",
"190 59 OFFCURVE",
"135 -41 OFFCURVE",
"115 -74 CURVE",
"111 -79 OFFCURVE",
"109 -84 OFFCURVE",
"109 -88 CURVE SMOOTH",
"109 -93 OFFCURVE",
"114 -96 OFFCURVE",
"118 -96 CURVE SMOOTH",
"125 -96 OFFCURVE",
"134 -90 OFFCURVE",
"141 -81 CURVE SMOOTH"
);
}
);
width = 300;
}
);
note = brokenbar;
unicode = 00A6;
},
{
glyphname = minus;
layers = (
{
hints = (
{
horizontal = 1;
place = "{151, 35}";
type = Stem;
},
{
place = "{211, 249}";
type = Stem;
}
);
layerId = "A14CB8BB-4075-44A2-8ACC-F29FBF19C8BE";
paths = (
{
closed = 1;
nodes = (
"462 184 OFFCURVE",
"457 190 OFFCURVE",
"453 189 CURVE",
"430 187 OFFCURVE",
"402 186 OFFCURVE",
"374 186 CURVE SMOOTH",
"325 186 OFFCURVE",
"272 189 OFFCURVE",
"234 195 CURVE SMOOTH",
"220 197 OFFCURVE",
"212 188 OFFCURVE",
"211 179 CURVE SMOOTH",
"210 169 OFFCURVE",
"218 158 OFFCURVE",
"235 154 CURVE SMOOTH",
"248 152 OFFCURVE",
"262 151 OFFCURVE",
"277 151 CURVE SMOOTH",
"334 151 OFFCURVE",
"403 164 OFFCURVE",
"451 166 CURVE SMOOTH",
"455 166 OFFCURVE",
"459 172 OFFCURVE",
"460 177 CURVE SMOOTH"
);
}
);
width = 501;
}
);
note = minus;
unicode = 2212;
},
{
glyphname = multiply;
layers = (
{
hints = (
{
horizontal = 1;
place = "{54, 254}";
type = Stem;
},
{
place = "{276, 56}";
type = Stem;
},
{
horizontal = 1;
place = "{66, 43}";
type = Stem;
}
);
layerId = "A14CB8BB-4075-44A2-8ACC-F29FBF19C8BE";
paths = (
{
closed = 1;
nodes = (
"394 239 OFFCURVE",
"437 275 OFFCURVE",
"454 296 CURVE SMOOTH",
"463 307 OFFCURVE",
"453 310 OFFCURVE",
"441 307 CURVE SMOOTH",
"424 303 OFFCURVE",
"404 291 OFFCURVE",
"382 271 CURVE SMOOTH",
"345 239 LINE",
"332 227 LINE",
"330 257 OFFCURVE",
"327 281 OFFCURVE",
"322 293 CURVE SMOOTH",
"320 299 OFFCURVE",
"315 306 OFFCURVE",
"306 306 CURVE SMOOTH",
"290 306 OFFCURVE",
"279 301 OFFCURVE",
"276 289 CURVE SMOOTH",
"273 275 OFFCURVE",
"278 243 OFFCURVE",
"291 194 CURVE",
"210 128 OFFCURVE",
"169 87 OFFCURVE",
"164 72 CURVE SMOOTH",
"161 58 OFFCURVE",
"167 54 OFFCURVE",
"179 54 CURVE SMOOTH",
"185 54 OFFCURVE",
"191 57 OFFCURVE",
"197 61 CURVE",
"241 102 OFFCURVE",
"273 134 OFFCURVE",
"296 158 CURVE",
"300 141 OFFCURVE",
"306 124 OFFCURVE",
"315 108 CURVE SMOOTH",
"329 82 OFFCURVE",
"347 66 OFFCURVE",
"370 66 CURVE SMOOTH",
"380 66 OFFCURVE",
"394 71 OFFCURVE",
"408 78 CURVE SMOOTH",
"422 84 OFFCURVE",
"433 94 OFFCURVE",
"436 104 CURVE SMOOTH",
"440 114 OFFCURVE",
"437 122 OFFCURVE",
"432 122 CURVE",
"402 110 OFFCURVE",
"398 109 OFFCURVE",
"396 109 CURVE SMOOTH",
"383 109 OFFCURVE",
"371 117 OFFCURVE",
"358 133 CURVE",
"342 159 OFFCURVE",
"337 177 OFFCURVE",
"335 192 CURVE"
);
}
);
width = 407;
}
);
note = multiply;
unicode = 00D7;
},
{
glyphname = Lslash;
layers = (
{
hints = (
{
horizontal = 1;
place = "{-105, 21}";
target = up;
type = BottomGhost;
},
{
horizontal = 1;
place = "{-78, 13}";
type = Stem;
},
{
horizontal = 1;
place = "{-61, 42}";
type = Stem;
},
{
horizontal = 1;
place = "{-31, 24}";
type = Stem;
},
{
place = "{20, 401}";
type = Stem;
}
);
layerId = "A14CB8BB-4075-44A2-8ACC-F29FBF19C8BE";
paths = (
{
closed = 1;
nodes = (
"310 313 OFFCURVE",
"307 314 OFFCURVE",
"303 316 CURVE SMOOTH",
"266 334 OFFCURVE",
"246 364 OFFCURVE",
"251 408 CURVE SMOOTH",
"253 431 OFFCURVE",
"231 432 OFFCURVE",
"227 407 CURVE SMOOTH",
"218 353 OFFCURVE",
"246 315 OFFCURVE",
"290 290 CURVE SMOOTH",
"294 288 OFFCURVE",
"298 286 OFFCURVE",
"302 284 CURVE",
"282 247 LINE",
"253 247 OFFCURVE",
"206 245 OFFCURVE",
"197 243 CURVE SMOOTH",
"184 240 OFFCURVE",
"176 233 OFFCURVE",
"174 227 CURVE SMOOTH",
"171 219 OFFCURVE",
"175 211 OFFCURVE",
"184 211 CURVE SMOOTH",
"203 211 OFFCURVE",
"233 211 OFFCURVE",
"265 213 CURVE",
"226 140 LINE",
"184 176 OFFCURVE",
"149 208 OFFCURVE",
"121 231 CURVE SMOOTH",
"93 255 OFFCURVE",
"70 271 OFFCURVE",
"52 271 CURVE SMOOTH",
"33 270 OFFCURVE",
"16 251 OFFCURVE",
"19 201 CURVE SMOOTH",
"22 155 OFFCURVE",
"61 -36 OFFCURVE",
"101 -82 CURVE SMOOTH",
"130 -114 OFFCURVE",
"165 -83 OFFCURVE",
"194 -35 CURVE SMOOTH",
"219 6 OFFCURVE",
"241 57 OFFCURVE",
"252 80 CURVE",
"338 11 OFFCURVE",
"426 -63 OFFCURVE",
"516 -124 CURVE SMOOTH",
"607 -186 OFFCURVE",
"700 -236 OFFCURVE",
"791 -251 CURVE SMOOTH",
"817 -255 OFFCURVE",
"844 -258 OFFCURVE",
"872 -258 CURVE SMOOTH",
"948 -258 OFFCURVE",
"1023 -235 OFFCURVE",
"1023 -154 CURVE SMOOTH",
"1023 -137 OFFCURVE",
"1019 -117 OFFCURVE",
"1012 -95 CURVE SMOOTH",
"1010 -88 OFFCURVE",
"1007 -83 OFFCURVE",
"1004 -79 CURVE SMOOTH",
"1002 -76 OFFCURVE",
"997 -73 OFFCURVE",
"992 -78 CURVE SMOOTH",
"987 -83 OFFCURVE",
"988 -95 OFFCURVE",
"992 -107 CURVE SMOOTH",
"995 -117 OFFCURVE",
"996 -128 OFFCURVE",
"996 -136 CURVE SMOOTH",
"996 -186 OFFCURVE",
"951 -208 OFFCURVE",
"884 -208 CURVE SMOOTH",
"854 -208 OFFCURVE",
"821 -203 OFFCURVE",
"786 -195 CURVE SMOOTH",
"603 -152 OFFCURVE",
"429 -26 OFFCURVE",
"267 108 CURVE",
"278 128 OFFCURVE",
"301 175 OFFCURVE",
"321 215 CURVE",
"353 216 OFFCURVE",
"382 218 OFFCURVE",
"404 219 CURVE SMOOTH",
"441 221 OFFCURVE",
"463 229 OFFCURVE",
"405 241 CURVE SMOOTH",
"380 246 OFFCURVE",
"357 247 OFFCURVE",
"338 248 CURVE",
"353 277 LINE",
"518 275 OFFCURVE",
"682 375 OFFCURVE",
"767 487 CURVE SMOOTH",
"795 525 OFFCURVE",
"813 572 OFFCURVE",
"813 613 CURVE SMOOTH",
"813 664 OFFCURVE",
"784 705 OFFCURVE",
"713 705 CURVE SMOOTH",
"524 705 OFFCURVE",
"426 539 OFFCURVE",
"314 312 CURVE"
);
},
{
closed = 1;
nodes = (
"754 665 OFFCURVE",
"770 646 OFFCURVE",
"770 616 CURVE SMOOTH",
"770 570 OFFCURVE",
"733 500 OFFCURVE",
"669 434 CURVE SMOOTH",
"620 384 OFFCURVE",
"517 320 OFFCURVE",
"365 303 CURVE",
"410 403 OFFCURVE",
"561 665 OFFCURVE",
"717 665 CURVE SMOOTH"
);
},
{
closed = 1;
nodes = (
"149 167 OFFCURVE",
"177 142 OFFCURVE",
"212 113 CURVE",
"163 23 OFFCURVE",
"131 -32 OFFCURVE",
"117 -34 CURVE",
"86 5 OFFCURVE",
"61 162 OFFCURVE",
"61 201 CURVE SMOOTH",
"61 216 OFFCURVE",
"67 219 OFFCURVE",
"74 218 CURVE SMOOTH",
"85 217 OFFCURVE",
"102 206 OFFCURVE",
"126 186 CURVE SMOOTH"
);
}
);
width = 513;
}
);
note = Lslash;
unicode = 0141;
},
{
glyphname = exclam;
layers = (
{
hints = (
{
horizontal = 1;
place = "{-10, 21}";
target = up;
type = BottomGhost;
},
{
place = "{200, 70}";
type = Stem;
}
);
layerId = "A14CB8BB-4075-44A2-8ACC-F29FBF19C8BE";
paths = (
{
closed = 1;
nodes = (
"351 265 OFFCURVE",
"410 362 OFFCURVE",
"475 455 CURVE",
"472 472 OFFCURVE",
"436 479 OFFCURVE",
"427 476 CURVE SMOOTH",
"412 471 OFFCURVE",
"272 169 OFFCURVE",
"272 161 CURVE SMOOTH",
"272 155 OFFCURVE",
"276 151 OFFCURVE",
"283 151 CURVE SMOOTH",
"292 151 OFFCURVE",
"296 157 OFFCURVE",
"300 164 CURVE SMOOTH"
);
},
{
closed = 1;
nodes = (
"236 -12 OFFCURVE",
"255 -1 OFFCURVE",
"264 17 CURVE SMOOTH",
"275 38 OFFCURVE",
"272 55 OFFCURVE",
"257 57 CURVE SMOOTH",
"241 58 OFFCURVE",
"212 53 OFFCURVE",
"203 32 CURVE SMOOTH",
"195 13 OFFCURVE",
"201 -7 OFFCURVE",
"220 -10 CURVE SMOOTH"
);
}
);
width = 374;
}
);
note = exclam;
unicode = 0021;
},
{
glyphname = quotedbl;
layers = (
{
hints = (
{
horizontal = 1;
place = "{361, 131}";
type = Stem;
},
{
place = "{131, 229}";
type = Stem;
}
);
layerId = "A14CB8BB-4075-44A2-8ACC-F29FBF19C8BE";
paths = (
{
closed = 1;
nodes = (
"296 405 OFFCURVE",
"340 449 OFFCURVE",
"360 473 CURVE",
"361 478 OFFCURVE",
"355 486 OFFCURVE",
"344 490 CURVE SMOOTH",
"336 492 OFFCURVE",
"325 493 OFFCURVE",
"316 488 CURVE",
"300 462 OFFCURVE",
"273 423 OFFCURVE",
"246 390 CURVE SMOOTH",
"238 381 OFFCURVE",
"234 374 OFFCURVE",
"233 370 CURVE SMOOTH",
"230 361 OFFCURVE",
"234 359 OFFCURVE",
"243 362 CURVE SMOOTH",
"250 365 OFFCURVE",
"262 374 OFFCURVE",
"268 380 CURVE SMOOTH"
);
},
{
closed = 1;
nodes = (
"195 405 OFFCURVE",
"239 449 OFFCURVE",
"259 473 CURVE",
"261 478 OFFCURVE",
"254 486 OFFCURVE",
"243 490 CURVE SMOOTH",
"235 492 OFFCURVE",
"224 493 OFFCURVE",
"216 488 CURVE",
"200 462 OFFCURVE",
"173 423 OFFCURVE",
"145 390 CURVE SMOOTH",
"138 381 OFFCURVE",
"134 374 OFFCURVE",
"132 370 CURVE SMOOTH",
"129 361 OFFCURVE",
"133 359 OFFCURVE",
"142 362 CURVE SMOOTH",
"149 365 OFFCURVE",
"161 374 OFFCURVE",
"168 380 CURVE SMOOTH"
);
}
);
width = 358;
}
);
note = quotedbl;
unicode = 0022;
},
{
glyphname = numbersign;
layers = (
{
hints = (
{
horizontal = 1;
place = "{149, 32}";
type = Stem;
},
{
horizontal = 1;
place = "{292, 33}";
type = Stem;
},
{
horizontal = 1;
place = "{487, 14}";
type = Stem;
},
{
place = "{276, 28}";
type = Stem;
},
{
place = "{461, 29}";
type = Stem;
},
{
horizontal = 1;
place = "{145, 34}";
type = Stem;
}
);
layerId = "A14CB8BB-4075-44A2-8ACC-F29FBF19C8BE";
paths = (
{
closed = 1;
nodes = (
"703 300 LINE SMOOTH",
"731 301 OFFCURVE",
"751 309 OFFCURVE",
"751 313 CURVE SMOOTH",
"751 317 OFFCURVE",
"738 325 OFFCURVE",
"703 325 CURVE SMOOTH",
"690 325 OFFCURVE",
"667 326 OFFCURVE",
"641 326 CURVE",
"655 349 OFFCURVE",
"670 374 OFFCURVE",
"738 487 CURVE",
"737 498 OFFCURVE",
"725 502 OFFCURVE",
"713 501 CURVE",
"707 502 OFFCURVE",
"701 499 OFFCURVE",
"696 497 CURVE",
"669 457 OFFCURVE",
"650 426 OFFCURVE",
"640 406 CURVE SMOOTH",
"624 378 OFFCURVE",
"609 352 OFFCURVE",
"595 326 CURVE",
"552 326 OFFCURVE",
"503 325 OFFCURVE",
"455 325 CURVE",
"468 349 OFFCURVE",
"484 374 OFFCURVE",
"553 487 CURVE",
"551 498 OFFCURVE",
"539 502 OFFCURVE",
"527 501 CURVE",
"521 502 OFFCURVE",
"515 499 OFFCURVE",
"511 497 CURVE",
"484 457 OFFCURVE",
"465 426 OFFCURVE",
"454 406 CURVE SMOOTH",
"439 378 OFFCURVE",
"423 351 OFFCURVE",
"408 324 CURVE",
"369 324 OFFCURVE",
"332 324 OFFCURVE",
"306 323 CURVE SMOOTH",
"272 322 OFFCURVE",
"252 317 OFFCURVE",
"247 308 CURVE SMOOTH",
"243 302 OFFCURVE",
"247 296 OFFCURVE",
"252 294 CURVE SMOOTH",
"257 291 OFFCURVE",
"264 290 OFFCURVE",
"273 290 CURVE SMOOTH",
"310 290 OFFCURVE",
"350 290 OFFCURVE",
"390 290 CURVE",
"371 252 OFFCURVE",
"354 215 OFFCURVE",
"339 180 CURVE",
"304 179 OFFCURVE",
"273 179 OFFCURVE",
"250 179 CURVE SMOOTH",
"216 178 OFFCURVE",
"196 172 OFFCURVE",
"190 164 CURVE SMOOTH",
"186 158 OFFCURVE",
"190 152 OFFCURVE",
"195 149 CURVE SMOOTH",
"200 147 OFFCURVE",
"207 145 OFFCURVE",
"216 145 CURVE SMOOTH",
"251 145 OFFCURVE",
"287 145 OFFCURVE",
"325 146 CURVE",
"302 87 OFFCURVE",
"285 32 OFFCURVE",
"276 -17 CURVE SMOOTH",
"271 -42 OFFCURVE",
"267 -62 OFFCURVE",
"270 -69 CURVE SMOOTH",
"275 -80 OFFCURVE",
"303 -88 OFFCURVE",
"304 -70 CURVE SMOOTH",
"305 -43 OFFCURVE",
"309 -25 OFFCURVE",
"311 -17 CURVE SMOOTH",
"320 29 OFFCURVE",
"337 84 OFFCURVE",
"364 147 CURVE",
"513 151 LINE",
"489 90 OFFCURVE",
"471 34 OFFCURVE",
"461 -17 CURVE SMOOTH",
"456 -42 OFFCURVE",
"453 -62 OFFCURVE",
"456 -69 CURVE SMOOTH",
"460 -80 OFFCURVE",
"489 -88 OFFCURVE",
"490 -70 CURVE SMOOTH",
"491 -43 OFFCURVE",
"495 -25 OFFCURVE",
"496 -17 CURVE SMOOTH",
"506 30 OFFCURVE",
"524 87 OFFCURVE",
"552 152 CURVE",
"647 155 LINE SMOOTH",
"674 156 OFFCURVE",
"695 164 OFFCURVE",
"695 169 CURVE SMOOTH",
"695 172 OFFCURVE",
"681 180 OFFCURVE",
"647 181 CURVE SMOOTH",
"630 181 OFFCURVE",
"600 181 OFFCURVE",
"565 181 CURVE",
"582 218 OFFCURVE",
"601 257 OFFCURVE",
"624 298 CURVE"
);
},
{
closed = 1;
nodes = (
"484 293 OFFCURVE",
"532 294 OFFCURVE",
"579 296 CURVE",
"558 256 OFFCURVE",
"540 218 OFFCURVE",
"525 181 CURVE",
"479 181 OFFCURVE",
"427 181 OFFCURVE",
"379 181 CURVE",
"395 215 OFFCURVE",
"413 252 OFFCURVE",
"436 292 CURVE"
);
}
);
width = 769;
}
);
note = numbersign;
unicode = 0023;
},
{
glyphname = dollar;
layers = (
{
hints = (
{
horizontal = 1;
place = "{13, 38}";
type = Stem;
},
{
horizontal = 1;
place = "{259, -20}";
target = down;
type = TopGhost;
},
{
horizontal = 1;
place = "{532, -20}";
target = down;
type = TopGhost;
},
{
place = "{573, 43}";
type = Stem;
}
);
layerId = "A14CB8BB-4075-44A2-8ACC-F29FBF19C8BE";
paths = (
{
closed = 1;
nodes = (
"604 486 OFFCURVE",
"616 498 OFFCURVE",
"619 503 CURVE",
"624 518 OFFCURVE",
"617 530 OFFCURVE",
"601 532 CURVE SMOOTH",
"591 532 OFFCURVE",
"566 508 OFFCURVE",
"539 480 CURVE",
"494 482 OFFCURVE",
"433 478 OFFCURVE",
"381 459 CURVE SMOOTH",
"315 435 OFFCURVE",
"271 396 OFFCURVE",
"261 358 CURVE SMOOTH",
"250 320 OFFCURVE",
"275 270 OFFCURVE",
"328 225 CURVE",
"286 166 OFFCURVE",
"246 107 OFFCURVE",
"217 56 CURVE",
"190 63 OFFCURVE",
"164 101 OFFCURVE",
"160 134 CURVE SMOOTH",
"159 145 OFFCURVE",
"154 157 OFFCURVE",
"145 157 CURVE SMOOTH",
"140 157 OFFCURVE",
"132 150 OFFCURVE",
"132 130 CURVE SMOOTH",
"132 84 OFFCURVE",
"164 40 OFFCURVE",
"202 26 CURVE",
"180 -15 OFFCURVE",
"167 -44 OFFCURVE",
"164 -58 CURVE",
"161 -65 OFFCURVE",
"161 -73 OFFCURVE",
"174 -73 CURVE SMOOTH",
"186 -73 OFFCURVE",
"193 -66 OFFCURVE",
"197 -58 CURVE SMOOTH",
"201 -50 OFFCURVE",
"204 -42 OFFCURVE",
"207 -35 CURVE SMOOTH",
"214 -19 OFFCURVE",
"221 -2 OFFCURVE",
"232 17 CURVE",
"240 15 OFFCURVE",
"249 14 OFFCURVE",
"259 13 CURVE SMOOTH",
"317 6 OFFCURVE",
"423 40 OFFCURVE",
"442 109 CURVE SMOOTH",
"450 134 OFFCURVE",
"438 160 OFFCURVE",
"423 182 CURVE SMOOTH",
"409 201 OFFCURVE",
"393 217 OFFCURVE",
"377 234 CURVE",
"423 296 OFFCURVE",
"492 373 OFFCURVE",
"552 437 CURVE",
"573 431 OFFCURVE",
"577 419 OFFCURVE",
"573 406 CURVE SMOOTH",
"571 396 OFFCURVE",
"558 380 OFFCURVE",
"532 361 CURVE SMOOTH",
"520 352 OFFCURVE",
"524 345 OFFCURVE",
"530 343 CURVE SMOOTH",
"535 341 OFFCURVE",
"544 343 OFFCURVE",
"553 346 CURVE SMOOTH",
"571 352 OFFCURVE",
"597 368 OFFCURVE",
"611 397 CURVE SMOOTH",
"623 422 OFFCURVE",
"614 456 OFFCURVE",
"587 470 CURVE"
);
},
{
closed = 1;
nodes = (
"436 436 OFFCURVE",
"471 440 OFFCURVE",
"502 440 CURVE",
"449 385 OFFCURVE",
"399 324 OFFCURVE",
"352 259 CURVE",
"318 298 OFFCURVE",
"307 334 OFFCURVE",
"314 356 CURVE SMOOTH",
"323 384 OFFCURVE",
"352 409 OFFCURVE",
"402 425 CURVE SMOOTH"
);
},
{
closed = 1;
nodes = (
"397 168 OFFCURVE",
"419 142 OFFCURVE",
"413 119 CURVE SMOOTH",
"401 67 OFFCURVE",
"301 48 OFFCURVE",
"251 51 CURVE",
"278 102 OFFCURVE",
"312 153 OFFCURVE",
"353 203 CURVE"
);
}
);
width = 494;
}
);
note = dollar;
unicode = 0024;
},
{
glyphname = percent;
layers = (
{
hints = (
{
horizontal = 1;
place = "{-18, 23}";
type = Stem;
},
{
horizontal = 1;
place = "{136, 16}";
type = Stem;
},
{
horizontal = 1;
place = "{207, 24}";
type = Stem;
},
{
horizontal = 1;
place = "{309, 25}";
type = Stem;
},
{
place = "{112, 34}";
type = Stem;
},
{
place = "{178, 42}";
type = Stem;
},
{
place = "{301, 23}";
type = Stem;
},
{
place = "{487, 22}";
type = Stem;
},
{
horizontal = 1;
place = "{-32, 21}";
target = up;
type = BottomGhost;
},
{
horizontal = 1;
place = "{361, 17}";
type = Stem;
},
{
horizontal = 1;
place = "{310, 28}";
type = Stem;
},
{
horizontal = 1;
place = "{91, 11}";
type = Stem;
},
{
place = "{298, 34}";
type = Stem;
}
);
layerId = "A14CB8BB-4075-44A2-8ACC-F29FBF19C8BE";
paths = (
{
closed = 1;
nodes = (
"162 322 OFFCURVE",
"129 288 OFFCURVE",
"116 263 CURVE SMOOTH",
"105 240 OFFCURVE",
"114 207 OFFCURVE",
"151 207 CURVE SMOOTH",
"213 207 OFFCURVE",
"295 247 OFFCURVE",
"317 309 CURVE",
"351 308 OFFCURVE",
"384 311 OFFCURVE",
"413 315 CURVE",
"399 303 LINE SMOOTH",
"290 209 OFFCURVE",
"173 91 OFFCURVE",
"132 -20 CURVE",
"127 -29 OFFCURVE",
"136 -32 OFFCURVE",
"140 -32 CURVE SMOOTH",
"144 -32 OFFCURVE",
"150 -30 OFFCURVE",
"152 -26 CURVE SMOOTH",
"182 30 OFFCURVE",
"230 87 OFFCURVE",
"284 141 CURVE SMOOTH",
"337 196 OFFCURVE",
"396 247 OFFCURVE",
"446 291 CURVE SMOOTH",
"507 346 LINE",
"508 347 LINE SMOOTH",
"510 348 OFFCURVE",
"511 349 OFFCURVE",
"512 351 CURVE",
"512 360 OFFCURVE",
"492 366 OFFCURVE",
"480 365 CURVE SMOOTH",
"475 365 OFFCURVE",
"470 364 OFFCURVE",
"467 361 CURVE SMOOTH",
"448 346 LINE",
"421 337 OFFCURVE",
"392 334 OFFCURVE",
"362 334 CURVE SMOOTH",
"349 334 OFFCURVE",
"336 334 OFFCURVE",
"324 335 CURVE",
"324 342 LINE SMOOTH",
"324 367 OFFCURVE",
"304 377 OFFCURVE",
"282 378 CURVE SMOOTH",
"262 378 OFFCURVE",
"230 371 OFFCURVE",
"208 360 CURVE",
"202 362 LINE SMOOTH",
"195 364 OFFCURVE",
"187 361 OFFCURVE",
"183 357 CURVE SMOOTH",
"177 352 OFFCURVE",
"175 344 OFFCURVE",
"185 338 CURVE SMOOTH",
"209 322 OFFCURVE",
"246 314 OFFCURVE",
"286 310 CURVE",
"256 273 OFFCURVE",
"191 235 OFFCURVE",
"167 231 CURVE SMOOTH",
"147 227 OFFCURVE",
"146 233 OFFCURVE",
"146 235 CURVE SMOOTH",
"146 243 OFFCURVE",
"155 257 OFFCURVE",
"164 267 CURVE SMOOTH",
"174 278 OFFCURVE",
"199 304 OFFCURVE",
"208 299 CURVE",
"212 295 OFFCURVE",
"219 297 OFFCURVE",
"220 302 CURVE",
"223 308 OFFCURVE",
"219 313 OFFCURVE",
"188 327 CURVE"
);
},
{
closed = 1;
nodes = (
"375 123 OFFCURVE",
"373 110 OFFCURVE",
"377 101 CURVE",
"375 102 OFFCURVE",
"374 102 OFFCURVE",
"373 102 CURVE SMOOTH",
"347 96 OFFCURVE",
"315 63 OFFCURVE",
"303 38 CURVE SMOOTH",
"291 14 OFFCURVE",
"299 -18 OFFCURVE",
"336 -18 CURVE SMOOTH",
"409 -18 OFFCURVE",
"509 37 OFFCURVE",
"509 115 CURVE SMOOTH",
"509 142 OFFCURVE",
"490 152 OFFCURVE",
"468 152 CURVE SMOOTH",
"447 152 OFFCURVE",
"410 144 OFFCURVE",
"388 130 CURVE SMOOTH"
);
},
{
closed = 1;
nodes = (
"398 92 OFFCURVE",
"400 93 OFFCURVE",
"402 95 CURVE SMOOTH",
"417 110 LINE SMOOTH",
"431 124 OFFCURVE",
"444 136 OFFCURVE",
"465 136 CURVE SMOOTH",
"478 136 OFFCURVE",
"485 131 OFFCURVE",
"487 122 CURVE SMOOTH",
"494 81 OFFCURVE",
"390 11 OFFCURVE",
"353 5 CURVE SMOOTH",
"334 2 OFFCURVE",
"332 8 OFFCURVE",
"332 10 CURVE SMOOTH",
"332 18 OFFCURVE",
"341 30 OFFCURVE",
"351 41 CURVE SMOOTH",
"361 52 OFFCURVE",
"384 77 OFFCURVE",
"394 73 CURVE",
"399 68 OFFCURVE",
"405 73 OFFCURVE",
"406 77 CURVE SMOOTH",
"408 82 OFFCURVE",
"404 88 OFFCURVE",
"396 91 CURVE"
);
},
{
closed = 1;
nodes = (
"293 361 OFFCURVE",
"300 357 OFFCURVE",
"301 348 CURVE",
"302 345 OFFCURVE",
"302 342 OFFCURVE",
"301 338 CURVE",
"280 341 OFFCURVE",
"260 345 OFFCURVE",
"241 350 CURVE",
"251 356 OFFCURVE",
"263 361 OFFCURVE",
"280 361 CURVE SMOOTH"
);
}
);
width = 500;
}
);
note = percent;
unicode = 0025;
},
{
glyphname = ampersand;
layers = (
{
hints = (
{
horizontal = 1;
place = "{-31, 20}";
type = Stem;
},
{
horizontal = 1;
place = "{464, 18}";
type = Stem;
},
{
place = "{7, 31}";
type = Stem;
},
{
place = "{148, 32}";
type = Stem;
},
{
place = "{236, 12}";
type = Stem;
},
{
place = "{458, 20}";
type = Stem;
},
{
place = "{488, 25}";
type = Stem;
}
);
layerId = "A14CB8BB-4075-44A2-8ACC-F29FBF19C8BE";
paths = (
{
closed = 1;
nodes = (
"217 210 OFFCURVE",
"138 133 OFFCURVE",
"140 63 CURVE SMOOTH",
"142 -14 OFFCURVE",
"203 -37 OFFCURVE",
"271 -37 CURVE SMOOTH",
"346 -37 OFFCURVE",
"436 -9 OFFCURVE",
"478 14 CURVE SMOOTH",
"551 53 OFFCURVE",
"613 121 OFFCURVE",
"613 191 CURVE SMOOTH",
"613 205 OFFCURVE",
"611 218 OFFCURVE",
"604 230 CURVE SMOOTH",
"602 233 OFFCURVE",
"601 234 OFFCURVE",
"598 236 CURVE",
"602 236 OFFCURVE",
"606 237 OFFCURVE",
"611 238 CURVE SMOOTH",
"671 247 OFFCURVE",
"733 253 OFFCURVE",
"779 261 CURVE SMOOTH",
"871 276 OFFCURVE",
"910 302 OFFCURVE",
"910 339 CURVE SMOOTH",
"910 365 OFFCURVE",
"880 387 OFFCURVE",
"859 387 CURVE SMOOTH",
"841 387 OFFCURVE",
"848 375 OFFCURVE",
"853 372 CURVE",
"857 368 OFFCURVE",
"864 365 OFFCURVE",
"867 364 CURVE SMOOTH",
"874 361 OFFCURVE",
"875 354 OFFCURVE",
"875 349 CURVE SMOOTH",
"875 346 OFFCURVE",
"873 341 OFFCURVE",
"863 334 CURVE SMOOTH",
"816 301 OFFCURVE",
"745 290 OFFCURVE",
"670 282 CURVE SMOOTH",
"560 271 LINE SMOOTH",
"524 267 OFFCURVE",
"491 261 OFFCURVE",
"462 251 CURVE SMOOTH",
"392 226 OFFCURVE",
"366 179 OFFCURVE",
"366 114 CURVE SMOOTH",
"366 107 OFFCURVE",
"369 100 OFFCURVE",
"376 100 CURVE SMOOTH",
"383 100 OFFCURVE",
"386 107 OFFCURVE",
"386 112 CURVE SMOOTH",
"386 145 OFFCURVE",
"416 180 OFFCURVE",
"459 200 CURVE SMOOTH",
"489 215 OFFCURVE",
"534 225 OFFCURVE",
"582 233 CURVE",
"581 231 OFFCURVE",
"581 228 OFFCURVE",
"582 225 CURVE SMOOTH",
"584 217 OFFCURVE",
"584 209 OFFCURVE",
"584 200 CURVE SMOOTH",
"584 79 OFFCURVE",
"393 -9 OFFCURVE",
"278 -9 CURVE SMOOTH",
"213 -9 OFFCURVE",
"192 16 OFFCURVE",
"192 46 CURVE SMOOTH",
"192 100 OFFCURVE",
"260 178 OFFCURVE",
"323 200 CURVE SMOOTH",
"353 210 OFFCURVE",
"371 223 OFFCURVE",
"376 233 CURVE SMOOTH",
"382 245 OFFCURVE",
"374 256 OFFCURVE",
"351 256 CURVE SMOOTH",
"340 256 OFFCURVE",
"325 254 OFFCURVE",
"307 248 CURVE",
"289 257 OFFCURVE",
"276 272 OFFCURVE",
"276 299 CURVE SMOOTH",
"276 340 OFFCURVE",
"297 426 OFFCURVE",
"508 477 CURVE SMOOTH",
"547 486 OFFCURVE",
"597 495 OFFCURVE",
"640 495 CURVE SMOOTH",
"693 495 OFFCURVE",
"731 482 OFFCURVE",
"736 451 CURVE SMOOTH",
"743 411 OFFCURVE",
"649 363 OFFCURVE",
"590 350 CURVE SMOOTH",
"584 349 OFFCURVE",
"579 347 OFFCURVE",
"576 344 CURVE SMOOTH",
"573 342 OFFCURVE",
"570 337 OFFCURVE",
"573 332 CURVE SMOOTH",
"578 326 OFFCURVE",
"591 325 OFFCURVE",
"609 329 CURVE SMOOTH",
"668 340 OFFCURVE",
"773 402 OFFCURVE",
"764 459 CURVE SMOOTH",
"755 513 OFFCURVE",
"679 532 OFFCURVE",
"602 532 CURVE SMOOTH",
"562 532 OFFCURVE",
"520 527 OFFCURVE",
"484 518 CURVE SMOOTH",
"380 493 OFFCURVE",
"237 421 OFFCURVE",
"237 320 CURVE SMOOTH",
"237 278 OFFCURVE",
"259 253 OFFCURVE",
"281 238 CURVE"
);
}
);
width = 672;
}
);
note = ampersand;
unicode = 0026;
},
{
glyphname = quotesingle;
layers = (
{
hints = (
{
horizontal = 1;
place = "{361, 131}";
type = Stem;
},
{
place = "{131, 124}";
type = Stem;
}
);
layerId = "A14CB8BB-4075-44A2-8ACC-F29FBF19C8BE";
paths = (
{
closed = 1;
nodes = (
"193 405 OFFCURVE",
"235 449 OFFCURVE",
"255 473 CURVE",
"256 478 OFFCURVE",
"250 486 OFFCURVE",
"240 490 CURVE SMOOTH",
"232 492 OFFCURVE",
"221 493 OFFCURVE",
"213 488 CURVE",
"197 462 OFFCURVE",
"171 423 OFFCURVE",
"145 390 CURVE SMOOTH",
"138 381 OFFCURVE",
"133 374 OFFCURVE",
"132 370 CURVE SMOOTH",
"129 361 OFFCURVE",
"133 359 OFFCURVE",
"142 362 CURVE SMOOTH",
"149 365 OFFCURVE",
"160 374 OFFCURVE",
"167 380 CURVE SMOOTH"
);
}
);
width = 65;
}
);
note = quotesingle;
unicode = 0027;
},
{
glyphname = parenleft;
layers = (
{
hints = (
{
place = "{38, 30}";
type = Stem;
}
);
layerId = "A14CB8BB-4075-44A2-8ACC-F29FBF19C8BE";
paths = (
{
closed = 1;
nodes = (
"276 270 OFFCURVE",
"462 483 OFFCURVE",
"612 513 CURVE SMOOTH",
"628 517 OFFCURVE",
"628 525 OFFCURVE",
"626 529 CURVE SMOOTH",
"623 535 OFFCURVE",
"616 537 OFFCURVE",
"610 537 CURVE SMOOTH",
"410 522 OFFCURVE",
"219 280 OFFCURVE",
"188 141 CURVE SMOOTH",
"180 107 OFFCURVE",
"177 74 OFFCURVE",
"177 44 CURVE SMOOTH",
"177 -48 OFFCURVE",
"208 -121 OFFCURVE",
"247 -136 CURVE SMOOTH",
"268 -144 OFFCURVE",
"258 -126 OFFCURVE",
"253 -118 CURVE SMOOTH",
"252 -117 OFFCURVE",
"251 -116 OFFCURVE",
"251 -115 CURVE",
"235 -84 OFFCURVE",
"229 -51 OFFCURVE",
"229 -9 CURVE SMOOTH",
"229 26 OFFCURVE",
"234 66 OFFCURVE",
"244 115 CURVE SMOOTH"
);
}
);
width = 318;
}
);
note = parenleft;
unicode = 0028;
},
{
glyphname = parenright;
layers = (
{
hints = (
{
place = "{304, 28}";
type = Stem;
}
);
layerId = "A14CB8BB-4075-44A2-8ACC-F29FBF19C8BE";
paths = (
{
closed = 1;
nodes = (
"420 291 OFFCURVE",
"423 324 OFFCURVE",
"423 354 CURVE SMOOTH",
"423 446 OFFCURVE",
"392 519 OFFCURVE",
"353 534 CURVE SMOOTH",
"332 542 OFFCURVE",
"342 524 OFFCURVE",
"347 516 CURVE SMOOTH",
"348 515 OFFCURVE",
"349 514 OFFCURVE",
"349 513 CURVE",
"365 482 OFFCURVE",
"371 449 OFFCURVE",
"371 407 CURVE SMOOTH",
"371 372 OFFCURVE",
"366 332 OFFCURVE",
"356 283 CURVE SMOOTH",
"324 128 OFFCURVE",
"138 -85 OFFCURVE",
"-12 -115 CURVE SMOOTH",
"-28 -119 OFFCURVE",
"-28 -127 OFFCURVE",
"-26 -131 CURVE SMOOTH",
"-23 -137 OFFCURVE",
"-16 -139 OFFCURVE",
"-10 -139 CURVE SMOOTH",
"190 -124 OFFCURVE",
"381 118 OFFCURVE",
"412 257 CURVE SMOOTH"
);
}
);
width = 370;
}
);
note = parenright;
unicode = 0029;
},
{
glyphname = asterisk;
layers = (
{
hints = (
{
horizontal = 1;
place = "{437, 36}";
type = Stem;
},
{
place = "{217, 374}";
type = Stem;
}
);
layerId = "A14CB8BB-4075-44A2-8ACC-F29FBF19C8BE";
paths = (
{
closed = 1;
nodes = (
"585 444 OFFCURVE",
"589 449 OFFCURVE",
"591 453 CURVE SMOOTH",
"593 460 OFFCURVE",
"587 467 OFFCURVE",
"580 469 CURVE",
"450 479 LINE",
"537 599 LINE SMOOTH",
"549 616 OFFCURVE",
"525 622 OFFCURVE",
"517 614 CURVE SMOOTH",
"413 501 LINE",
"363 611 LINE SMOOTH",
"359 619 OFFCURVE",
"351 619 OFFCURVE",
"346 617 CURVE SMOOTH",
"342 615 OFFCURVE",
"337 609 OFFCURVE",
"340 602 CURVE",
"370 479 LINE",
"229 469 LINE",
"223 467 OFFCURVE",
"219 463 OFFCURVE",
"217 458 CURVE SMOOTH",
"215 451 OFFCURVE",
"221 444 OFFCURVE",
"228 443 CURVE SMOOTH",
"358 432 LINE",
"271 312 LINE SMOOTH",
"259 295 OFFCURVE",
"283 289 OFFCURVE",
"291 297 CURVE SMOOTH",
"394 410 LINE",
"445 301 LINE SMOOTH",
"449 293 OFFCURVE",
"456 293 OFFCURVE",
"461 294 CURVE",
"464 296 OFFCURVE",
"471 303 OFFCURVE",
"468 310 CURVE",
"438 432 LINE",
"578 443 LINE SMOOTH"
);
}
);
width = 500;
}
);
note = asterisk;
unicode = 002A;
},
{
glyphname = plus;
layers = (
{
hints = (
{
horizontal = 1;
place = "{110, 105}";
type = Stem;
}
);
layerId = "A14CB8BB-4075-44A2-8ACC-F29FBF19C8BE";
paths = (
{
closed = 1;
nodes = (
"272 41 OFFCURVE",
"272 41 OFFCURVE",
"278 55 CURVE SMOOTH",
"284 68 OFFCURVE",
"295 95 OFFCURVE",
"330 169 CURVE",
"388 172 OFFCURVE",
"416 173 OFFCURVE",
"451 173 CURVE SMOOTH",
"457 173 OFFCURVE",
"464 175 OFFCURVE",
"466 182 CURVE",
"466 187 OFFCURVE",
"462 189 OFFCURVE",
"459 190 CURVE SMOOTH",
"434 197 OFFCURVE",
"410 201 OFFCURVE",
"344 202 CURVE",
"374 277 OFFCURVE",
"376 290 OFFCURVE",
"387 320 CURVE",
"387 346 OFFCURVE",
"344 330 OFFCURVE",
"339 317 CURVE SMOOTH",
"319 265 OFFCURVE",
"315 250 OFFCURVE",
"296 202 CURVE",
"258 201 OFFCURVE",
"216 203 OFFCURVE",
"180 191 CURVE",
"180 183 OFFCURVE",
"184 176 OFFCURVE",
"189 171 CURVE SMOOTH",
"194 166 OFFCURVE",
"199 161 OFFCURVE",
"205 161 CURVE SMOOTH",
"219 161 OFFCURVE",
"263 166 OFFCURVE",
"284 168 CURVE",
"272 137 OFFCURVE",
"250 65 OFFCURVE",
"247 50 CURVE SMOOTH",
"246 45 OFFCURVE",
"244 36 OFFCURVE",
"244 29 CURVE SMOOTH",
"243 15 OFFCURVE",
"250 2 OFFCURVE",
"261 19 CURVE"
);
}
);
width = 377;
}
);
note = plus;
unicode = 002B;
},
{
glyphname = comma;
layers = (
{
hints = (
{
horizontal = 1;
place = "{-16, 21}";
target = up;
type = BottomGhost;
},
{
place = "{195, 90}";
type = Stem;
}
);
layerId = "A14CB8BB-4075-44A2-8ACC-F29FBF19C8BE";
paths = (
{
closed = 1;
nodes = (
"243 -76 OFFCURVE",
"263 -34 OFFCURVE",
"276 -4 CURVE SMOOTH",
"289 23 OFFCURVE",
"288 44 OFFCURVE",
"270 49 CURVE SMOOTH",
"248 55 OFFCURVE",
"226 45 OFFCURVE",
"219 26 CURVE SMOOTH",
"212 8 OFFCURVE",
"221 -11 OFFCURVE",
"237 -16 CURVE",
"229 -39 OFFCURVE",
"210 -63 OFFCURVE",
"203 -70 CURVE SMOOTH",
"194 -80 OFFCURVE",
"194 -86 OFFCURVE",
"195 -89 CURVE",
"197 -92 OFFCURVE",
"203 -93 OFFCURVE",
"211 -90 CURVE SMOOTH"
);
}
);
width = 306;
}
);
note = comma;
unicode = 002C;
},
{
glyphname = hyphen;
layers = (
{
hints = (
{
horizontal = 1;
place = "{168, 32}";
type = Stem;
},
{
place = "{210, 272}";
type = Stem;
}
);
layerId = "A14CB8BB-4075-44A2-8ACC-F29FBF19C8BE";
paths = (
{
closed = 1;
nodes = (
"296 168 OFFCURVE",
"379 173 OFFCURVE",
"445 176 CURVE SMOOTH",
"482 177 OFFCURVE",
"505 184 OFFCURVE",
"446 195 CURVE SMOOTH",
"418 200 OFFCURVE",
"391 201 OFFCURVE",
"370 201 CURVE SMOOTH",
"352 201 OFFCURVE",
"336 200 OFFCURVE",
"323 200 CURVE SMOOTH",
"297 200 OFFCURVE",
"260 199 OFFCURVE",
"244 196 CURVE SMOOTH",
"226 193 OFFCURVE",
"215 188 OFFCURVE",
"211 182 CURVE SMOOTH",
"207 174 OFFCURVE",
"215 168 OFFCURVE",
"224 168 CURVE SMOOTH"
);
}
);
width = 512;
}
);
note = hyphen;
unicode = 002D;
},
{
glyphname = period;
layers = (
{
hints = (
{
horizontal = 1;
place = "{-10, 21}";
target = up;
type = BottomGhost;
},
{
place = "{230, 63}";
type = Stem;
},
{
horizontal = 1;
place = "{-10, 58}";
type = Stem;
}
);
layerId = "A14CB8BB-4075-44A2-8ACC-F29FBF19C8BE";
paths = (
{
closed = 1;
nodes = (
"262 -12 OFFCURVE",
"279 -2 OFFCURVE",
"287 14 CURVE SMOOTH",
"297 32 OFFCURVE",
"294 47 OFFCURVE",
"281 48 CURVE SMOOTH",
"266 50 OFFCURVE",
"241 45 OFFCURVE",
"233 27 CURVE SMOOTH",
"226 10 OFFCURVE",
"231 -8 OFFCURVE",
"248 -10 CURVE SMOOTH"
);
}
);
width = 315;
}
);
note = period;
unicode = 002E;
},
{
glyphname = slash;
layers = (
{
hints = (
{
horizontal = 1;
place = "{-12, 16}";
type = Stem;
},
{
horizontal = 1;
place = "{-10, 23}";
type = Stem;
},
{
horizontal = 1;
place = "{-5, 13}";
type = Stem;
},
{
horizontal = 1;
place = "{-24, 21}";
target = up;
type = BottomGhost;
},
{
horizontal = 1;
place = "{182, 33}";
type = Stem;
},
{
horizontal = 1;
place = "{266, -20}";
target = down;
type = TopGhost;
},
{
horizontal = 1;
place = "{273, 15}";
type = Stem;
},
{
place = "{13, 17}";
type = Stem;
},
{
place = "{14, 28}";
type = Stem;
},
{
place = "{38, 424}";
type = Stem;
},
{
place = "{256, 26}";
type = Stem;
},
{
place = "{278, 55}";
type = Stem;
},
{
place = "{423, 17}";
type = Stem;
}
);
layerId = "A14CB8BB-4075-44A2-8ACC-F29FBF19C8BE";
paths = (
{
closed = 1;
nodes = (
"667 466 OFFCURVE",
"670 469 OFFCURVE",
"670 472 CURVE SMOOTH",
"670 471 LINE SMOOTH",
"673 484 OFFCURVE",
"662 490 OFFCURVE",
"649 490 CURVE",
"643 491 OFFCURVE",
"637 490 OFFCURVE",
"631 486 CURVE SMOOTH",
"584 454 OFFCURVE",
"552 427 OFFCURVE",
"529 408 CURVE SMOOTH",
"354 264 OFFCURVE",
"227 139 OFFCURVE",
"145 29 CURVE SMOOTH",
"128 5 OFFCURVE",
"116 -12 OFFCURVE",
"115 -18 CURVE SMOOTH",
"114 -25 OFFCURVE",
"127 -34 OFFCURVE",
"134 -34 CURVE SMOOTH",
"139 -34 OFFCURVE",
"145 -32 OFFCURVE",
"148 -27 CURVE SMOOTH",
"163 -2 OFFCURVE",
"175 15 OFFCURVE",
"181 23 CURVE SMOOTH",
"251 117 OFFCURVE",
"374 244 OFFCURVE",
"575 396 CURVE SMOOTH",
"665 465 LINE"
);
}
);
width = 449;
}
);
note = slash;
unicode = 002F;
},
{
glyphname = zero;
layers = (
{
hints = (
{
horizontal = 1;
place = "{-29, 15}";
type = Stem;
},
{
horizontal = 1;
place = "{378, 14}";
type = Stem;
},
{
place = "{94, 46}";
type = Stem;
},
{
place = "{642, 49}";
type = Stem;
}
);
layerId = "A14CB8BB-4075-44A2-8ACC-F29FBF19C8BE";
paths = (
{
closed = 1;
nodes = (
"715 294 OFFCURVE",
"716 306 OFFCURVE",
"716 318 CURVE SMOOTH",
"716 372 OFFCURVE",
"686 417 OFFCURVE",
"603 417 CURVE SMOOTH",
"551 417 OFFCURVE",
"454 387 OFFCURVE",
"372 336 CURVE SMOOTH",
"321 303 OFFCURVE",
"272 253 OFFCURVE",
"269 234 CURVE",
"268 231 OFFCURVE",
"269 227 OFFCURVE",
"271 224 CURVE",
"275 221 OFFCURVE",
"280 220 OFFCURVE",
"283 225 CURVE",
"312 259 OFFCURVE",
"382 312 OFFCURVE",
"403 324 CURVE SMOOTH",
"479 369 OFFCURVE",
"558 391 OFFCURVE",
"607 391 CURVE SMOOTH",
"658 391 OFFCURVE",
"672 371 OFFCURVE",
"672 338 CURVE SMOOTH",
"672 326 OFFCURVE",
"671 313 OFFCURVE",
"668 299 CURVE SMOOTH",
"640 153 OFFCURVE",
"408 -27 OFFCURVE",
"267 -23 CURVE SMOOTH",
"189 -20 OFFCURVE",
"163 40 OFFCURVE",
"175 98 CURVE SMOOTH",
"214 288 OFFCURVE",
"417 428 OFFCURVE",
"594 446 CURVE",
"596 447 OFFCURVE",
"599 447 OFFCURVE",
"601 448 CURVE SMOOTH",
"603 449 OFFCURVE",
"607 451 OFFCURVE",
"608 455 CURVE SMOOTH",
"609 461 OFFCURVE",
"597 468 OFFCURVE",
"575 468 CURVE SMOOTH",
"536 469 OFFCURVE",
"480 459 OFFCURVE",
"420 433 CURVE SMOOTH",
"361 408 OFFCURVE",
"309 382 OFFCURVE",
"271 350 CURVE SMOOTH",
"198 288 OFFCURVE",
"154 213 OFFCURVE",
"136 129 CURVE SMOOTH",
"133 114 OFFCURVE",
"132 99 OFFCURVE",
"132 86 CURVE SMOOTH",
"132 53 OFFCURVE",
"141 24 OFFCURVE",
"158 1 CURVE SMOOTH",
"180 -30 OFFCURVE",
"222 -48 OFFCURVE",
"265 -50 CURVE SMOOTH",
"448 -58 OFFCURVE",
"673 110 OFFCURVE",
"712 281 CURVE SMOOTH"
);
}
);
width = 590;
}
);
note = zero;
unicode = 0030;
},
{
glyphname = one;
layers = (
{
hints = (
{
horizontal = 1;
place = "{-19, 24}";
type = Stem;
},
{
horizontal = 1;
place = "{-35, 21}";
target = up;
type = BottomGhost;
},
{
horizontal = 1;
place = "{238, 34}";
type = Stem;
},
{
horizontal = 1;
place = "{284, 16}";
type = Stem;
},
{
place = "{-16, 17}";
type = Stem;
},
{
place = "{137, 19}";
type = Stem;
},
{
place = "{137, 271}";
type = Stem;
},
{
place = "{223, 100}";
type = Stem;
}
);
layerId = "A14CB8BB-4075-44A2-8ACC-F29FBF19C8BE";
paths = (
{
closed = 1;
nodes = (
"147 28 OFFCURVE",
"99 22 OFFCURVE",
"63 11 CURVE SMOOTH",
"41 3 OFFCURVE",
"31 -11 OFFCURVE",
"31 -24 CURVE SMOOTH",
"31 -42 OFFCURVE",
"46 -55 OFFCURVE",
"66 -48 CURVE SMOOTH",
"153 -18 OFFCURVE",
"295 9 OFFCURVE",
"391 17 CURVE",
"399 16 OFFCURVE",
"402 23 OFFCURVE",
"400 28 CURVE SMOOTH",
"399 32 OFFCURVE",
"395 37 OFFCURVE",
"388 37 CURVE",
"343 32 OFFCURVE",
"286 32 OFFCURVE",
"228 32 CURVE",
"285 157 OFFCURVE",
"368 314 OFFCURVE",
"448 424 CURVE",
"446 452 OFFCURVE",
"434 463 OFFCURVE",
"409 463 CURVE SMOOTH",
"403 463 OFFCURVE",
"400 462 OFFCURVE",
"399 461 CURVE SMOOTH",
"358 425 OFFCURVE",
"198 295 OFFCURVE",
"177 276 CURVE SMOOTH",
"173 272 OFFCURVE",
"171 269 OFFCURVE",
"170 266 CURVE",
"168 264 OFFCURVE",
"167 261 OFFCURVE",
"167 257 CURVE SMOOTH",
"167 251 OFFCURVE",
"170 246 OFFCURVE",
"177 246 CURVE SMOOTH",
"182 246 OFFCURVE",
"189 249 OFFCURVE",
"195 255 CURVE",
"198 257 OFFCURVE",
"208 264 OFFCURVE",
"220 274 CURVE SMOOTH",
"234 284 OFFCURVE",
"251 297 OFFCURVE",
"269 310 CURVE SMOOTH",
"291 327 OFFCURVE",
"313 345 OFFCURVE",
"325 354 CURVE",
"290 266 OFFCURVE",
"243 128 OFFCURVE",
"195 35 CURVE",
"195 33 OFFCURVE",
"195 32 OFFCURVE",
"194 30 CURVE"
);
}
);
width = 348;
}
);
note = one;
unicode = 0031;
},
{
glyphname = two;
layers = (
{
hints = (
{
horizontal = 1;
place = "{-14, 24}";
type = Stem;
},
{
horizontal = 1;
place = "{40, 16}";
type = Stem;
},
{
horizontal = 1;
place = "{425, 14}";
type = Stem;
},
{
place = "{565, 42}";
type = Stem;
}
);
layerId = "A14CB8BB-4075-44A2-8ACC-F29FBF19C8BE";
paths = (
{
closed = 1;
nodes = (
"691 -61 OFFCURVE",
"700 -38 OFFCURVE",
"700 -17 CURVE SMOOTH",
"700 30 OFFCURVE",
"657 55 OFFCURVE",
"626 60 CURVE SMOOTH",
"590 67 OFFCURVE",
"552 69 OFFCURVE",
"513 69 CURVE SMOOTH",
"432 69 OFFCURVE",
"348 57 OFFCURVE",
"264 42 CURVE",
"328 86 OFFCURVE",
"419 135 OFFCURVE",
"498 188 CURVE SMOOTH",
"586 246 OFFCURVE",
"663 310 OFFCURVE",
"677 378 CURVE",
"685 448 OFFCURVE",
"622 463 OFFCURVE",
"563 463 CURVE SMOOTH",
"529 463 OFFCURVE",
"494 458 OFFCURVE",
"471 454 CURVE SMOOTH",
"358 433 OFFCURVE",
"294 373 OFFCURVE",
"275 354 CURVE",
"270 358 OFFCURVE",
"263 364 OFFCURVE",
"257 371 CURVE",
"241 384 OFFCURVE",
"225 369 OFFCURVE",
"239 357 CURVE SMOOTH",
"245 352 OFFCURVE",
"249 348 OFFCURVE",
"253 345 CURVE SMOOTH",
"255 343 OFFCURVE",
"257 341 OFFCURVE",
"259 339 CURVE",
"251 330 OFFCURVE",
"249 318 OFFCURVE",
"246 307 CURVE SMOOTH",
"237 258 OFFCURVE",
"288 224 OFFCURVE",
"320 224 CURVE SMOOTH",
"336 224 OFFCURVE",
"350 232 OFFCURVE",
"350 251 CURVE SMOOTH",
"350 260 OFFCURVE",
"346 271 OFFCURVE",
"339 285 CURVE SMOOTH",
"331 301 OFFCURVE",
"317 316 OFFCURVE",
"303 329 CURVE",
"329 355 OFFCURVE",
"445 434 OFFCURVE",
"573 434 CURVE SMOOTH",
"611 434 OFFCURVE",
"627 419 OFFCURVE",
"623 393 CURVE SMOOTH",
"617 354 OFFCURVE",
"568 298 OFFCURVE",
"472 221 CURVE SMOOTH",
"402 166 OFFCURVE",
"346 123 OFFCURVE",
"284 88 CURVE SMOOTH",
"264 77 OFFCURVE",
"244 64 OFFCURVE",
"225 52 CURVE SMOOTH",
"206 41 OFFCURVE",
"188 31 OFFCURVE",
"173 26 CURVE",
"127 18 LINE",
"89 5 OFFCURVE",
"103 -37 OFFCURVE",
"132 -33 CURVE",
"195 -16 OFFCURVE",
"385 26 OFFCURVE",
"522 26 CURVE SMOOTH",
"609 26 OFFCURVE",
"668 8 OFFCURVE",
"668 -35 CURVE SMOOTH",
"668 -49 OFFCURVE",
"662 -64 OFFCURVE",
"651 -84 CURVE",
"648 -88 OFFCURVE",
"646 -92 OFFCURVE",
"646 -96 CURVE SMOOTH",
"646 -101 OFFCURVE",
"651 -103 OFFCURVE",
"655 -102 CURVE SMOOTH",
"660 -101 OFFCURVE",
"667 -96 OFFCURVE",
"671 -90 CURVE SMOOTH"
);
},
{
closed = 1;
nodes = (
"301 296 OFFCURVE",
"307 288 OFFCURVE",
"314 276 CURVE SMOOTH",
"317 269 OFFCURVE",
"318 261 OFFCURVE",
"316 257 CURVE SMOOTH",
"315 254 OFFCURVE",
"313 256 OFFCURVE",
"307 262 CURVE SMOOTH",
"297 275 OFFCURVE",
"291 290 OFFCURVE",
"290 306 CURVE"
);
}
);
width = 672;
}
);
note = two;
unicode = 0032;
},
{
glyphname = three;
layers = (
{
hints = (
{
horizontal = 1;
place = "{-35, 17}";
type = Stem;
},
{
horizontal = 1;
place = "{403, 30}";
type = Stem;
},
{
place = "{92, 18}";
type = Stem;
},
{
place = "{400, 49}";
type = Stem;
},
{
place = "{456, 48}";
type = Stem;
}
);
layerId = "A14CB8BB-4075-44A2-8ACC-F29FBF19C8BE";
paths = (
{
closed = 1;
nodes = (
"548 300 OFFCURVE",
"601 336 OFFCURVE",
"607 387 CURVE SMOOTH",
"611 421 OFFCURVE",
"579 446 OFFCURVE",
"548 450 CURVE SMOOTH",
"536 451 OFFCURVE",
"521 453 OFFCURVE",
"504 453 CURVE SMOOTH",
"449 453 OFFCURVE",
"376 441 OFFCURVE",
"323 386 CURVE SMOOTH",
"300 363 OFFCURVE",
"317 344 OFFCURVE",
"333 360 CURVE",
"359 392 OFFCURVE",
"412 412 OFFCURVE",
"473 412 CURVE SMOOTH",
"484 412 OFFCURVE",
"495 411 OFFCURVE",
"505 410 CURVE SMOOTH",
"528 408 OFFCURVE",
"541 396 OFFCURVE",
"541 381 CURVE SMOOTH",
"541 365 OFFCURVE",
"527 342 OFFCURVE",
"482 313 CURVE SMOOTH",
"445 289 OFFCURVE",
"429 283 OFFCURVE",
"403 281 CURVE",
"397 282 OFFCURVE",
"388 285 OFFCURVE",
"378 286 CURVE SMOOTH",
"355 289 OFFCURVE",
"344 281 OFFCURVE",
"341 265 CURVE SMOOTH",
"337 243 OFFCURVE",
"368 249 OFFCURVE",
"380 253 CURVE",
"391 254 OFFCURVE",
"401 256 OFFCURVE",
"440 263 CURVE",
"512 263 OFFCURVE",
"539 237 OFFCURVE",
"539 193 CURVE SMOOTH",
"539 140 OFFCURVE",
"475 25 OFFCURVE",
"309 -28 CURVE SMOOTH",
"272 -40 OFFCURVE",
"226 -50 OFFCURVE",
"189 -50 CURVE SMOOTH",
"140 -50 OFFCURVE",
"106 -34 OFFCURVE",
"106 9 CURVE SMOOTH",
"106 78 OFFCURVE",
"186 145 OFFCURVE",
"248 169 CURVE SMOOTH",
"268 176 OFFCURVE",
"263 196 OFFCURVE",
"244 190 CURVE SMOOTH",
"166 165 OFFCURVE",
"54 92 OFFCURVE",
"54 14 CURVE SMOOTH",
"54 -56 OFFCURVE",
"124 -76 OFFCURVE",
"199 -76 CURVE SMOOTH",
"252 -76 OFFCURVE",
"310 -67 OFFCURVE",
"354 -52 CURVE SMOOTH",
"440 -24 OFFCURVE",
"595 75 OFFCURVE",
"595 186 CURVE SMOOTH",
"595 199 OFFCURVE",
"593 214 OFFCURVE",
"588 227 CURVE SMOOTH",
"573 264 OFFCURVE",
"532 276 OFFCURVE",
"493 279 CURVE"
);
}
);
width = 540;
}
);
note = three;
unicode = 0033;
},
{
glyphname = four;
layers = (
{
hints = (
{
horizontal = 1;
place = "{-35, 24}";
type = Stem;
}
);
layerId = "A14CB8BB-4075-44A2-8ACC-F29FBF19C8BE";
paths = (
{
closed = 1;
nodes = (
"560 113 OFFCURVE",
"655 158 OFFCURVE",
"686 260 CURVE SMOOTH",
"694 287 OFFCURVE",
"689 327 OFFCURVE",
"659 338 CURVE",
"647 339 OFFCURVE",
"632 330 OFFCURVE",
"652 318 CURVE SMOOTH",
"660 314 OFFCURVE",
"663 307 OFFCURVE",
"663 297 CURVE SMOOTH",
"663 287 OFFCURVE",
"660 276 OFFCURVE",
"656 264 CURVE SMOOTH",
"627 180 OFFCURVE",
"497 142 OFFCURVE",
"379 137 CURVE",
"433 247 OFFCURVE",
"496 360 OFFCURVE",
"559 440 CURVE SMOOTH",
"568 450 OFFCURVE",
"563 462 OFFCURVE",
"551 472 CURVE SMOOTH",
"541 480 OFFCURVE",
"527 486 OFFCURVE",
"519 486 CURVE SMOOTH",
"515 486 OFFCURVE",
"511 486 OFFCURVE",
"508 484 CURVE",
"428 401 OFFCURVE",
"228 223 OFFCURVE",
"158 164 CURVE",
"141 167 OFFCURVE",
"125 168 OFFCURVE",
"110 168 CURVE SMOOTH",
"89 168 OFFCURVE",
"69 165 OFFCURVE",
"52 155 CURVE SMOOTH",
"35 147 OFFCURVE",
"40 132 OFFCURVE",
"51 123 CURVE SMOOTH",
"62 114 OFFCURVE",
"80 107 OFFCURVE",
"101 107 CURVE SMOOTH",
"121 107 OFFCURVE",
"144 114 OFFCURVE",
"163 134 CURVE",
"206 127 OFFCURVE",
"261 112 OFFCURVE",
"323 104 CURVE",
"303 56 OFFCURVE",
"282 10 OFFCURVE",
"263 -32 CURVE SMOOTH",
"257 -44 OFFCURVE",
"255 -54 OFFCURVE",
"255 -61 CURVE SMOOTH",
"255 -68 OFFCURVE",
"258 -74 OFFCURVE",
"266 -74 CURVE SMOOTH",
"276 -74 OFFCURVE",
"287 -62 OFFCURVE",
"294 -47 CURVE SMOOTH",
"313 -3 OFFCURVE",
"336 47 OFFCURVE",
"362 100 CURVE",
"375 99 OFFCURVE",
"388 99 OFFCURVE",
"401 99 CURVE SMOOTH",
"419 99 OFFCURVE",
"437 99 OFFCURVE",
"456 101 CURVE SMOOTH"
);
},
{
closed = 1;
nodes = (
"349 282 OFFCURVE",
"397 321 OFFCURVE",
"430 351 CURVE",
"404 288 OFFCURVE",
"371 211 OFFCURVE",
"338 134 CURVE",
"309 135 OFFCURVE",
"281 138 OFFCURVE",
"259 142 CURVE SMOOTH",
"238 146 OFFCURVE",
"215 152 OFFCURVE",
"190 158 CURVE",
"212 175 OFFCURVE",
"256 209 OFFCURVE",
"303 246 CURVE SMOOTH"
);
}
);
width = 475;
}
);
note = four;
unicode = 0034;
},
{
glyphname = five;
layers = (
{
hints = (
{
horizontal = 1;
place = "{-26, 21}";
type = Stem;
},
{
horizontal = 1;
place = "{271, 22}";
type = Stem;
},
{
place = "{408, 56}";
type = Stem;
}
);
layerId = "A14CB8BB-4075-44A2-8ACC-F29FBF19C8BE";
paths = (
{
closed = 1;
nodes = (
"383 410 OFFCURVE",
"385 404 OFFCURVE",
"391 399 CURVE",
"395 397 OFFCURVE",
"399 393 OFFCURVE",
"403 390 CURVE",
"367 345 OFFCURVE",
"343 307 OFFCURVE",
"326 272 CURVE SMOOTH",
"320 261 OFFCURVE",
"315 236 OFFCURVE",
"329 233 CURVE SMOOTH",
"342 229 OFFCURVE",
"355 229 OFFCURVE",
"371 253 CURVE",
"373 254 OFFCURVE",
"378 255 OFFCURVE",
"383 257 CURVE SMOOTH",
"389 259 OFFCURVE",
"397 262 OFFCURVE",
"404 265 CURVE SMOOTH",
"426 273 OFFCURVE",
"454 278 OFFCURVE",
"479 278 CURVE SMOOTH",
"524 278 OFFCURVE",
"560 261 OFFCURVE",
"560 210 CURVE SMOOTH",
"560 156 OFFCURVE",
"495 42 OFFCURVE",
"328 -11 CURVE SMOOTH",
"291 -23 OFFCURVE",
"244 -34 OFFCURVE",
"203 -34 CURVE SMOOTH",
"151 -34 OFFCURVE",
"112 -17 OFFCURVE",
"112 26 CURVE SMOOTH",
"112 94 OFFCURVE",
"205 161 OFFCURVE",
"268 186 CURVE SMOOTH",
"287 193 OFFCURVE",
"282 213 OFFCURVE",
"263 207 CURVE SMOOTH",
"186 181 OFFCURVE",
"73 109 OFFCURVE",
"73 31 CURVE SMOOTH",
"73 -39 OFFCURVE",
"143 -60 OFFCURVE",
"219 -60 CURVE SMOOTH",
"271 -60 OFFCURVE",
"329 -49 OFFCURVE",
"374 -35 CURVE SMOOTH",
"459 -8 OFFCURVE",
"615 91 OFFCURVE",
"615 202 CURVE SMOOTH",
"615 215 OFFCURVE",
"614 229 OFFCURVE",
"608 243 CURVE SMOOTH",
"591 285 OFFCURVE",
"542 298 OFFCURVE",
"493 298 CURVE SMOOTH",
"453 298 OFFCURVE",
"411 290 OFFCURVE",
"383 279 CURVE",
"385 286 OFFCURVE",
"388 291 OFFCURVE",
"389 295 CURVE",
"398 310 OFFCURVE",
"408 328 OFFCURVE",
"418 345 CURVE SMOOTH",
"428 362 OFFCURVE",
"439 376 OFFCURVE",
"448 386 CURVE",
"523 409 OFFCURVE",
"641 423 OFFCURVE",
"690 423 CURVE SMOOTH",
"710 424 OFFCURVE",
"714 445 OFFCURVE",
"693 448 CURVE",
"640 450 OFFCURVE",
"492 440 OFFCURVE",
"468 439 CURVE",
"461 444 OFFCURVE",
"447 448 OFFCURVE",
"438 446 CURVE",
"425 447 OFFCURVE",
"384 426 OFFCURVE",
"384 413 CURVE"
);
}
);
width = 504;
}
);
note = five;
unicode = 0035;
},
{
glyphname = six;
layers = (
{
hints = (
{
horizontal = 1;
place = "{-30, 16}";
type = Stem;
},
{
horizontal = 1;
place = "{-11, 22}";
type = Stem;
},
{
horizontal = 1;
place = "{250, 19}";
type = Stem;
},
{
horizontal = 1;
place = "{313, -20}";
target = down;
type = TopGhost;
},
{
place = "{22, 25}";
type = Stem;
},
{
place = "{110, 47}";
type = Stem;
},
{
place = "{224, 24}";
type = Stem;
},
{
place = "{280, 18}";
type = Stem;
},
{
place = "{377, 51}";
type = Stem;
}
);
layerId = "A14CB8BB-4075-44A2-8ACC-F29FBF19C8BE";
paths = (
{
closed = 1;
nodes = (
"593 477 OFFCURVE",
"582 479 OFFCURVE",
"575 478 CURVE SMOOTH",
"384 450 OFFCURVE",
"95 252 OFFCURVE",
"95 85 CURVE SMOOTH",
"95 65 OFFCURVE",
"99 46 OFFCURVE",
"107 28 CURVE SMOOTH",
"130 -22 OFFCURVE",
"176 -42 OFFCURVE",
"228 -42 CURVE SMOOTH",
"316 -42 OFFCURVE",
"425 15 OFFCURVE",
"485 91 CURVE SMOOTH",
"506 118 OFFCURVE",
"521 154 OFFCURVE",
"521 185 CURVE SMOOTH",
"521 207 OFFCURVE",
"513 227 OFFCURVE",
"495 236 CURVE SMOOTH",
"485 241 OFFCURVE",
"469 245 OFFCURVE",
"448 245 CURVE SMOOTH",
"388 245 OFFCURVE",
"289 213 OFFCURVE",
"193 85 CURVE SMOOTH",
"189 79 OFFCURVE",
"195 74 OFFCURVE",
"198 73 CURVE SMOOTH",
"202 72 OFFCURVE",
"207 72 OFFCURVE",
"214 76 CURVE",
"294 169 OFFCURVE",
"373 204 OFFCURVE",
"420 204 CURVE SMOOTH",
"452 204 OFFCURVE",
"468 188 OFFCURVE",
"463 164 CURVE SMOOTH",
"446 90 OFFCURVE",
"289 -31 OFFCURVE",
"192 -11 CURVE SMOOTH",
"156 -3 OFFCURVE",
"143 28 OFFCURVE",
"143 64 CURVE SMOOTH",
"143 93 OFFCURVE",
"151 123 OFFCURVE",
"162 147 CURVE SMOOTH",
"212 254 OFFCURVE",
"414 434 OFFCURVE",
"574 454 CURVE SMOOTH",
"593 457 OFFCURVE",
"597 466 OFFCURVE",
"595 470 CURVE SMOOTH"
);
}
);
width = 468;
}
);
note = six;
unicode = 0036;
},
{
glyphname = seven;
layers = (
{
hints = (
{
horizontal = 1;
place = "{-30, 24}";
type = Stem;
},
{
horizontal = 1;
place = "{423, 21}";
target = up;
type = BottomGhost;
},
{
place = "{448, 45}";
type = Stem;
}
);
layerId = "A14CB8BB-4075-44A2-8ACC-F29FBF19C8BE";
paths = (
{
closed = 1;
nodes = (
"592 370 OFFCURVE",
"605 366 OFFCURVE",
"612 366 CURVE SMOOTH",
"624 366 OFFCURVE",
"627 372 OFFCURVE",
"624 379 CURVE SMOOTH",
"622 383 OFFCURVE",
"617 387 OFFCURVE",
"611 390 CURVE",
"633 404 OFFCURVE",
"617 420 OFFCURVE",
"567 410 CURVE",
"492 431 OFFCURVE",
"423 453 OFFCURVE",
"343 453 CURVE SMOOTH",
"241 453 OFFCURVE",
"133 423 OFFCURVE",
"106 327 CURVE SMOOTH",
"99 301 OFFCURVE",
"123 265 OFFCURVE",
"147 258 CURVE SMOOTH",
"151 257 OFFCURVE",
"157 258 OFFCURVE",
"161 261 CURVE",
"166 263 OFFCURVE",
"171 270 OFFCURVE",
"163 277 CURVE",
"150 284 OFFCURVE",
"155 300 OFFCURVE",
"163 318 CURVE",
"185 388 OFFCURVE",
"303 419 OFFCURVE",
"402 419 CURVE SMOOTH",
"427 419 OFFCURVE",
"451 416 OFFCURVE",
"470 413 CURVE SMOOTH",
"492 409 OFFCURVE",
"515 403 OFFCURVE",
"537 396 CURVE",
"431 334 OFFCURVE",
"198 94 OFFCURVE",
"166 47 CURVE SMOOTH",
"139 8 OFFCURVE",
"127 -25 OFFCURVE",
"127 -50 CURVE SMOOTH",
"127 -76 OFFCURVE",
"141 -93 OFFCURVE",
"165 -96 CURVE SMOOTH",
"174 -97 OFFCURVE",
"180 -97 OFFCURVE",
"184 -97 CURVE",
"187 -96 OFFCURVE",
"194 -93 OFFCURVE",
"189 -86 CURVE SMOOTH",
"187 -82 OFFCURVE",
"177 -77 OFFCURVE",
"172 -74 CURVE SMOOTH",
"157 -65 OFFCURVE",
"175 -33 OFFCURVE",
"205 11 CURVE SMOOTH",
"237 58 OFFCURVE",
"287 117 OFFCURVE",
"339 174 CURVE SMOOTH",
"448 291 OFFCURVE",
"562 389 OFFCURVE",
"579 377 CURVE"
);
}
);
width = 432;
}
);
note = seven;
unicode = 0037;
},
{
glyphname = eight;
layers = (
{
hints = (
{
horizontal = 1;
place = "{-14, 14}";
type = Stem;
},
{
horizontal = 1;
place = "{437, 17}";
type = Stem;
},
{
place = "{130, 43}";
type = Stem;
},
{
place = "{275, 33}";
type = Stem;
},
{
place = "{330, 46}";
type = Stem;
}
);
layerId = "A14CB8BB-4075-44A2-8ACC-F29FBF19C8BE";
paths = (
{
closed = 1;
nodes = (
"599 412 OFFCURVE",
"609 418 OFFCURVE",
"622 426 CURVE SMOOTH",
"638 435 OFFCURVE",
"640 445 OFFCURVE",
"637 448 CURVE",
"633 454 OFFCURVE",
"622 453 OFFCURVE",
"616 450 CURVE SMOOTH",
"599 443 OFFCURVE",
"599 443 OFFCURVE",
"561 424 CURVE",
"536 459 OFFCURVE",
"491 469 OFFCURVE",
"449 473 CURVE SMOOTH",
"339 484 OFFCURVE",
"272 421 OFFCURVE",
"272 341 CURVE SMOOTH",
"272 318 OFFCURVE",
"277 286 OFFCURVE",
"290 259 CURVE",
"274 247 OFFCURVE",
"256 233 OFFCURVE",
"237 219 CURVE SMOOTH",
"216 204 OFFCURVE",
"196 188 OFFCURVE",
"177 171 CURVE SMOOTH",
"140 137 OFFCURVE",
"110 98 OFFCURVE",
"110 56 CURVE SMOOTH",
"110 6 OFFCURVE",
"146 -17 OFFCURVE",
"195 -17 CURVE SMOOTH",
"244 -17 OFFCURVE",
"293 -6 OFFCURVE",
"334 28 CURVE SMOOTH",
"371 59 OFFCURVE",
"388 97 OFFCURVE",
"388 141 CURVE SMOOTH",
"388 177 OFFCURVE",
"376 216 OFFCURVE",
"354 259 CURVE",
"358 264 OFFCURVE",
"384 285 OFFCURVE",
"440 322 CURVE SMOOTH",
"494 357 OFFCURVE",
"536 382 OFFCURVE",
"546 386 CURVE",
"551 379 OFFCURVE",
"553 373 OFFCURVE",
"554 370 CURVE SMOOTH",
"555 366 OFFCURVE",
"555 363 OFFCURVE",
"556 361 CURVE",
"556 355 OFFCURVE",
"561 346 OFFCURVE",
"568 345 CURVE SMOOTH",
"574 344 OFFCURVE",
"582 349 OFFCURVE",
"582 369 CURVE SMOOTH",
"582 375 OFFCURVE",
"579 390 OFFCURVE",
"575 400 CURVE",
"580 402 OFFCURVE",
"585 405 OFFCURVE",
"590 408 CURVE SMOOTH"
);
},
{
closed = 1;
nodes = (
"485 446 OFFCURVE",
"525 420 OFFCURVE",
"536 404 CURVE",
"480 370 OFFCURVE",
"377 313 OFFCURVE",
"341 288 CURVE",
"326 317 OFFCURVE",
"319 338 OFFCURVE",
"319 352 CURVE SMOOTH",
"319 411 OFFCURVE",
"384 446 OFFCURVE",
"443 446 CURVE SMOOTH"
);
},
{
closed = 1;
nodes = (
"335 140 OFFCURVE",
"336 131 OFFCURVE",
"336 122 CURVE SMOOTH",
"336 53 OFFCURVE",
"287 8 OFFCURVE",
"206 8 CURVE SMOOTH",
"180 8 OFFCURVE",
"167 21 OFFCURVE",
"167 50 CURVE SMOOTH",
"167 74 OFFCURVE",
"174 103 OFFCURVE",
"211 146 CURVE SMOOTH",
"228 166 OFFCURVE",
"248 183 OFFCURVE",
"266 198 CURVE SMOOTH",
"281 210 OFFCURVE",
"295 220 OFFCURVE",
"304 226 CURVE",
"318 199 OFFCURVE",
"331 167 OFFCURVE",
"334 150 CURVE SMOOTH"
);
}
);
width = 444;
}
);
note = eight;
unicode = 0038;
},
{
glyphname = nine;
layers = (
{
hints = (
{
horizontal = 1;
place = "{-30, 16}";
type = Stem;
},
{
horizontal = 1;
place = "{-11, 22}";
type = Stem;
},
{
horizontal = 1;
place = "{157, 27}";
type = Stem;
},
{
horizontal = 1;
place = "{250, 19}";
type = Stem;
},
{
horizontal = 1;
place = "{313, -20}";
target = down;
type = TopGhost;
},
{
horizontal = 1;
place = "{446, 16}";
type = Stem;
},
{
place = "{22, 25}";
type = Stem;
},
{
place = "{110, 47}";
type = Stem;
},
{
place = "{224, 24}";
type = Stem;
},
{
place = "{280, 18}";
type = Stem;
},
{
place = "{377, 51}";
type = Stem;
},
{
place = "{469, 18}";
type = Stem;
},
{
place = "{140, 48}";
type = Stem;
}
);
layerId = "A14CB8BB-4075-44A2-8ACC-F29FBF19C8BE";
paths = (
{
closed = 1;
nodes = (
"289 -41 OFFCURVE",
"554 157 OFFCURVE",
"535 345 CURVE SMOOTH",
"528 418 OFFCURVE",
"496 470 OFFCURVE",
"407 466 CURVE SMOOTH",
"291 461 OFFCURVE",
"112 339 OFFCURVE",
"125 211 CURVE SMOOTH",
"128 186 OFFCURVE",
"142 163 OFFCURVE",
"169 153 CURVE SMOOTH",
"179 150 OFFCURVE",
"194 147 OFFCURVE",
"212 147 CURVE SMOOTH",
"268 147 OFFCURVE",
"361 172 OFFCURVE",
"445 274 CURVE",
"449 281 OFFCURVE",
"448 295 OFFCURVE",
"433 291 CURVE",
"380 241 OFFCURVE",
"321 203 OFFCURVE",
"278 193 CURVE SMOOTH",
"262 189 OFFCURVE",
"250 188 OFFCURVE",
"239 188 CURVE SMOOTH",
"200 188 OFFCURVE",
"188 207 OFFCURVE",
"188 233 CURVE SMOOTH",
"188 262 OFFCURVE",
"204 299 OFFCURVE",
"226 326 CURVE SMOOTH",
"267 379 OFFCURVE",
"334 428 OFFCURVE",
"408 431 CURVE SMOOTH",
"467 433 OFFCURVE",
"484 397 OFFCURVE",
"484 352 CURVE SMOOTH",
"484 321 OFFCURVE",
"475 288 OFFCURVE",
"467 262 CURVE SMOOTH",
"429 152 OFFCURVE",
"260 -26 OFFCURVE",
"102 -54 CURVE SMOOTH",
"83 -58 OFFCURVE",
"80 -67 OFFCURVE",
"83 -71 CURVE SMOOTH",
"86 -77 OFFCURVE",
"96 -78 OFFCURVE",
"103 -77 CURVE SMOOTH"
);
}
);
width = 420;
}
);
note = nine;
unicode = 0039;
},
{
glyphname = colon;
layers = (
{
hints = (
{
horizontal = 1;
place = "{-10, 21}";
target = up;
type = BottomGhost;
},
{
place = "{200, 69}";
type = Stem;
},
{
horizontal = 1;
place = "{254, 66}";
type = Stem;
},
{
place = "{297, 69}";
type = Stem;
}
);
layerId = "A14CB8BB-4075-44A2-8ACC-F29FBF19C8BE";
paths = (
{
closed = 1;
nodes = (
"332 252 OFFCURVE",
"351 263 OFFCURVE",
"360 281 CURVE SMOOTH",
"370 301 OFFCURVE",
"367 319 OFFCURVE",
"353 320 CURVE SMOOTH",
"337 322 OFFCURVE",
"309 316 OFFCURVE",
"300 296 CURVE SMOOTH",
"293 277 OFFCURVE",
"299 257 OFFCURVE",
"316 254 CURVE SMOOTH"
);
},
{
closed = 1;
nodes = (
"235 -12 OFFCURVE",
"253 -1 OFFCURVE",
"263 17 CURVE SMOOTH",
"273 37 OFFCURVE",
"270 54 OFFCURVE",
"256 56 CURVE SMOOTH",
"240 58 OFFCURVE",
"211 52 OFFCURVE",
"203 32 CURVE SMOOTH",
"196 13 OFFCURVE",
"201 -7 OFFCURVE",
"219 -10 CURVE SMOOTH"
);
}
);
width = 294;
}
);
note = colon;
unicode = 003A;
},
{
glyphname = semicolon;
layers = (
{
hints = (
{
horizontal = 1;
place = "{-12, 21}";
target = up;
type = BottomGhost;
},
{
horizontal = 1;
place = "{254, 66}";
type = Stem;
},
{
place = "{297, 69}";
type = Stem;
}
);
layerId = "A14CB8BB-4075-44A2-8ACC-F29FBF19C8BE";
paths = (
{
closed = 1;
nodes = (
"332 251 OFFCURVE",
"350 263 OFFCURVE",
"360 281 CURVE SMOOTH",
"370 301 OFFCURVE",
"367 318 OFFCURVE",
"353 320 CURVE SMOOTH",
"337 322 OFFCURVE",
"308 316 OFFCURVE",
"300 296 CURVE SMOOTH",
"292 276 OFFCURVE",
"298 256 OFFCURVE",
"316 254 CURVE SMOOTH"
);
},
{
closed = 1;
nodes = (
"212 -75 OFFCURVE",
"234 -31 OFFCURVE",
"248 0 CURVE SMOOTH",
"261 29 OFFCURVE",
"260 50 OFFCURVE",
"241 55 CURVE SMOOTH",
"218 62 OFFCURVE",
"195 51 OFFCURVE",
"187 31 CURVE SMOOTH",
"180 13 OFFCURVE",
"190 -8 OFFCURVE",
"206 -12 CURVE",
"198 -37 OFFCURVE",
"178 -62 OFFCURVE",
"171 -69 CURVE SMOOTH",
"161 -79 OFFCURVE",
"161 -86 OFFCURVE",
"162 -89 CURVE",
"164 -92 OFFCURVE",
"171 -93 OFFCURVE",
"179 -90 CURVE SMOOTH"
);
}
);
width = 294;
}
);
note = semicolon;
unicode = 003B;
},
{
glyphname = less;
layers = (
{
hints = (
{
horizontal = 1;
place = "{136, 306}";
type = Stem;
},
{
place = "{85, 144}";
type = Stem;
}
);
layerId = "A14CB8BB-4075-44A2-8ACC-F29FBF19C8BE";
paths = (
{
closed = 1;
nodes = (
"227 275 OFFCURVE",
"329 371 OFFCURVE",
"360 399 CURVE SMOOTH",
"366 405 OFFCURVE",
"368 416 OFFCURVE",
"360 421 CURVE SMOOTH",
"353 426 OFFCURVE",
"341 423 OFFCURVE",
"329 413 CURVE SMOOTH",
"310 398 OFFCURVE",
"269 366 OFFCURVE",
"224 323 CURVE SMOOTH",
"198 299 OFFCURVE",
"178 281 OFFCURVE",
"165 268 CURVE SMOOTH",
"153 256 OFFCURVE",
"144 247 OFFCURVE",
"142 242 CURVE SMOOTH",
"139 237 OFFCURVE",
"141 233 OFFCURVE",
"143 231 CURVE SMOOTH",
"183 186 OFFCURVE",
"241 114 OFFCURVE",
"264 64 CURVE SMOOTH",
"271 47 OFFCURVE",
"282 52 OFFCURVE",
"285 64 CURVE SMOOTH",
"288 73 OFFCURVE",
"288 87 OFFCURVE",
"283 99 CURVE",
"283 100 OFFCURVE",
"282 102 OFFCURVE",
"274 114 CURVE SMOOTH",
"269 122 OFFCURVE",
"262 133 OFFCURVE",
"254 146 CURVE SMOOTH",
"239 171 OFFCURVE",
"220 205 OFFCURVE",
"205 243 CURVE"
);
}
);
width = 373;
}
);
note = less;
unicode = 003C;
},
{
glyphname = equal;
layers = (
{
hints = (
{
horizontal = 1;
place = "{110, 105}";
type = Stem;
}
);
layerId = "A14CB8BB-4075-44A2-8ACC-F29FBF19C8BE";
paths = (
{
closed = 1;
nodes = (
"449 235 OFFCURVE",
"463 242 OFFCURVE",
"463 247 CURVE SMOOTH",
"463 251 OFFCURVE",
"450 259 OFFCURVE",
"422 261 CURVE SMOOTH",
"366 266 OFFCURVE",
"340 266 OFFCURVE",
"311 266 CURVE SMOOTH",
"287 266 OFFCURVE",
"267 265 OFFCURVE",
"252 261 CURVE SMOOTH",
"220 253 OFFCURVE",
"205 242 OFFCURVE",
"205 233 CURVE SMOOTH",
"205 228 OFFCURVE",
"215 221 OFFCURVE",
"235 222 CURVE SMOOTH",
"302 226 OFFCURVE",
"350 235 OFFCURVE",
"421 235 CURVE SMOOTH"
);
},
{
closed = 1;
nodes = (
"411 115 OFFCURVE",
"425 120 OFFCURVE",
"425 126 CURVE SMOOTH",
"425 130 OFFCURVE",
"411 137 OFFCURVE",
"383 140 CURVE SMOOTH",
"327 145 OFFCURVE",
"306 149 OFFCURVE",
"276 149 CURVE SMOOTH",
"252 149 OFFCURVE",
"233 147 OFFCURVE",
"218 143 CURVE SMOOTH",
"186 135 OFFCURVE",
"170 125 OFFCURVE",
"170 115 CURVE SMOOTH",
"170 109 OFFCURVE",
"181 104 OFFCURVE",
"200 104 CURVE SMOOTH",
"269 104 OFFCURVE",
"311 110 OFFCURVE",
"383 113 CURVE SMOOTH"
);
}
);
width = 377;
}
);
note = equal;
unicode = 003D;
},
{
glyphname = greater;
layers = (
{
hints = (
{
horizontal = 1;
place = "{129, 306}";
type = Stem;
},
{
place = "{85, 144}";
type = Stem;
}
);
layerId = "A14CB8BB-4075-44A2-8ACC-F29FBF19C8BE";
paths = (
{
closed = 1;
nodes = (
"359 215 OFFCURVE",
"368 224 OFFCURVE",
"370 229 CURVE SMOOTH",
"373 234 OFFCURVE",
"371 238 OFFCURVE",
"369 240 CURVE SMOOTH",
"329 285 OFFCURVE",
"271 357 OFFCURVE",
"248 407 CURVE SMOOTH",
"241 424 OFFCURVE",
"230 419 OFFCURVE",
"227 407 CURVE SMOOTH",
"224 398 OFFCURVE",
"224 384 OFFCURVE",
"229 372 CURVE",
"229 365 OFFCURVE",
"253 332 OFFCURVE",
"258 325 CURVE SMOOTH",
"273 300 OFFCURVE",
"292 266 OFFCURVE",
"307 228 CURVE",
"285 196 OFFCURVE",
"183 100 OFFCURVE",
"152 72 CURVE SMOOTH",
"146 66 OFFCURVE",
"144 55 OFFCURVE",
"152 50 CURVE SMOOTH",
"159 45 OFFCURVE",
"171 48 OFFCURVE",
"183 58 CURVE SMOOTH",
"202 73 OFFCURVE",
"243 105 OFFCURVE",
"288 148 CURVE SMOOTH",
"314 172 OFFCURVE",
"334 190 OFFCURVE",
"347 203 CURVE SMOOTH"
);
}
);
width = 318;
}
);
note = greater;
unicode = 003E;
},
{
glyphname = question;
layers = (
{
hints = (
{
horizontal = 1;
place = "{-10, 21}";
target = up;
type = BottomGhost;
},
{
horizontal = 1;
place = "{537, 26}";
type = Stem;
},
{
place = "{267, 71}";
type = Stem;
},
{
place = "{371, 32}";
type = Stem;
}
);
layerId = "A14CB8BB-4075-44A2-8ACC-F29FBF19C8BE";
paths = (
{
closed = 1;
nodes = (
"601 365 OFFCURVE",
"676 430 OFFCURVE",
"688 489 CURVE SMOOTH",
"697 536 OFFCURVE",
"665 557 OFFCURVE",
"627 561 CURVE SMOOTH",
"611 562 OFFCURVE",
"596 563 OFFCURVE",
"582 563 CURVE SMOOTH",
"436 563 OFFCURVE",
"359 492 OFFCURVE",
"338 471 CURVE",
"322 485 LINE SMOOTH",
"317 489 OFFCURVE",
"311 491 OFFCURVE",
"306 488 CURVE SMOOTH",
"300 484 OFFCURVE",
"302 476 OFFCURVE",
"307 472 CURVE SMOOTH",
"311 468 OFFCURVE",
"318 462 OFFCURVE",
"323 456 CURVE",
"316 448 OFFCURVE",
"313 437 OFFCURVE",
"312 429 CURVE SMOOTH",
"304 387 OFFCURVE",
"349 357 OFFCURVE",
"377 357 CURVE SMOOTH",
"391 357 OFFCURVE",
"403 364 OFFCURVE",
"403 380 CURVE SMOOTH",
"403 407 OFFCURVE",
"382 430 OFFCURVE",
"363 448 CURVE",
"387 472 OFFCURVE",
"486 537 OFFCURVE",
"597 537 CURVE SMOOTH",
"630 537 OFFCURVE",
"644 526 OFFCURVE",
"640 504 CURVE SMOOTH",
"635 471 OFFCURVE",
"578 408 OFFCURVE",
"495 342 CURVE SMOOTH",
"428 289 OFFCURVE",
"352 223 OFFCURVE",
"326 164 CURVE SMOOTH",
"320 150 OFFCURVE",
"321 138 OFFCURVE",
"328 133 CURVE SMOOTH",
"337 126 OFFCURVE",
"345 136 OFFCURVE",
"347 147 CURVE",
"359 167 OFFCURVE",
"383 191 OFFCURVE",
"415 218 CURVE SMOOTH",
"448 245 OFFCURVE",
"487 274 OFFCURVE",
"525 305 CURVE SMOOTH"
);
},
{
closed = 1;
nodes = (
"303 -12 OFFCURVE",
"322 -1 OFFCURVE",
"332 17 CURVE SMOOTH",
"343 38 OFFCURVE",
"340 55 OFFCURVE",
"325 57 CURVE SMOOTH",
"308 59 OFFCURVE",
"279 53 OFFCURVE",
"270 32 CURVE SMOOTH",
"262 13 OFFCURVE",
"268 -7 OFFCURVE",
"287 -10 CURVE SMOOTH"
);
},
{
closed = 1;
nodes = (
"353 426 LINE SMOOTH",
"361 418 OFFCURVE",
"366 412 OFFCURVE",
"371 402 CURVE SMOOTH",
"373 397 OFFCURVE",
"374 389 OFFCURVE",
"373 386 CURVE SMOOTH",
"372 384 OFFCURVE",
"371 386 OFFCURVE",
"366 391 CURVE SMOOTH",
"357 401 OFFCURVE",
"353 414 OFFCURVE",
"352 427 CURVE"
);
}
);
width = 562;
}
);
note = question;
unicode = 003F;
},
{
glyphname = at;
layers = (
{
hints = (
{
horizontal = 1;
place = "{-4, 26}";
type = Stem;
},
{
horizontal = 1;
place = "{109, 20}";
type = Stem;
},
{
horizontal = 1;
place = "{293, 31}";
type = Stem;
},
{
horizontal = 1;
place = "{406, 25}";
type = Stem;
},
{
place = "{239, 52}";
type = Stem;
},
{
place = "{366, 34}";
type = Stem;
},
{
place = "{599, 21}";
type = Stem;
},
{
place = "{729, 49}";
type = Stem;
},
{
horizontal = 1;
place = "{128, 28}";
type = Stem;
},
{
place = "{560, 46}";
type = Stem;
}
);
layerId = "A14CB8BB-4075-44A2-8ACC-F29FBF19C8BE";
paths = (
{
closed = 1;
nodes = (
"741 215 OFFCURVE",
"778 278 OFFCURVE",
"778 331 CURVE SMOOTH",
"778 389 OFFCURVE",
"736 431 OFFCURVE",
"644 431 CURVE SMOOTH",
"620 431 OFFCURVE",
"590 428 OFFCURVE",
"557 421 CURVE SMOOTH",
"424 393 OFFCURVE",
"271 275 OFFCURVE",
"243 159 CURVE SMOOTH",
"240 147 OFFCURVE",
"239 135 OFFCURVE",
"239 124 CURVE SMOOTH",
"239 45 OFFCURVE",
"311 -4 OFFCURVE",
"406 -4 CURVE SMOOTH",
"557 -4 OFFCURVE",
"701 64 OFFCURVE",
"734 148 CURVE",
"738 155 OFFCURVE",
"739 168 OFFCURVE",
"736 173 CURVE SMOOTH",
"732 178 OFFCURVE",
"726 177 OFFCURVE",
"722 174 CURVE",
"717 172 OFFCURVE",
"711 166 OFFCURVE",
"703 157 CURVE SMOOTH",
"634 75 OFFCURVE",
"551 22 OFFCURVE",
"402 22 CURVE SMOOTH",
"322 22 OFFCURVE",
"291 65 OFFCURVE",
"291 118 CURVE SMOOTH",
"291 129 OFFCURVE",
"293 140 OFFCURVE",
"295 151 CURVE SMOOTH",
"315 248 OFFCURVE",
"453 363 OFFCURVE",
"567 395 CURVE SMOOTH",
"594 403 OFFCURVE",
"617 406 OFFCURVE",
"638 406 CURVE SMOOTH",
"702 406 OFFCURVE",
"729 371 OFFCURVE",
"729 325 CURVE SMOOTH",
"729 279 OFFCURVE",
"700 221 OFFCURVE",
"650 177 CURVE SMOOTH",
"637 167 OFFCURVE",
"625 160 OFFCURVE",
"615 156 CURVE",
"609 155 OFFCURVE",
"606 157 OFFCURVE",
"606 167 CURVE SMOOTH",
"606 178 OFFCURVE",
"612 195 OFFCURVE",
"623 218 CURVE SMOOTH",
"629 233 OFFCURVE",
"630 245 OFFCURVE",
"626 249 CURVE SMOOTH",
"620 255 OFFCURVE",
"603 257 OFFCURVE",
"595 252 CURVE",
"491 168 LINE SMOOTH",
"478 158 OFFCURVE",
"438 129 OFFCURVE",
"415 129 CURVE SMOOTH",
"405 129 OFFCURVE",
"397 134 OFFCURVE",
"400 155 CURVE SMOOTH",
"406 202 OFFCURVE",
"528 299 OFFCURVE",
"583 293 CURVE SMOOTH",
"600 291 OFFCURVE",
"599 274 OFFCURVE",
"599 269 CURVE SMOOTH",
"599 260 OFFCURVE",
"607 257 OFFCURVE",
"613 260 CURVE SMOOTH",
"617 263 OFFCURVE",
"621 270 OFFCURVE",
"620 277 CURVE SMOOTH",
"616 306 OFFCURVE",
"604 324 OFFCURVE",
"572 324 CURVE SMOOTH",
"557 324 OFFCURVE",
"539 320 OFFCURVE",
"516 313 CURVE SMOOTH",
"450 293 OFFCURVE",
"366 211 OFFCURVE",
"366 156 CURVE SMOOTH",
"366 146 OFFCURVE",
"369 135 OFFCURVE",
"377 127 CURVE SMOOTH",
"388 115 OFFCURVE",
"402 109 OFFCURVE",
"417 109 CURVE SMOOTH",
"467 109 OFFCURVE",
"533 167 OFFCURVE",
"568 200 CURVE",
"563 187 OFFCURVE",
"560 173 OFFCURVE",
"560 160 CURVE SMOOTH",
"560 139 OFFCURVE",
"575 128 OFFCURVE",
"597 128 CURVE SMOOTH",
"618 128 OFFCURVE",
"648 139 OFFCURVE",
"678 163 CURVE SMOOTH"
);
}
);
width = 673;
}
);
note = at;
unicode = 0040;
},
{
glyphname = A;
layers = (
{
hints = (
{
horizontal = 1;
place = "{-350, 30}";
type = Stem;
},
{
horizontal = 1;
place = "{54, 25}";
type = Stem;
},
{
horizontal = 1;
place = "{100, 9}";
type = Stem;
},
{
horizontal = 1;
place = "{112, 30}";
type = Stem;
},
{
horizontal = 1;
place = "{511, 19}";
type = Stem;
},
{
place = "{1323, 66}";
type = Stem;
},
{
place = "{1925, 40}";
type = Stem;
}
);
layerId = "A14CB8BB-4075-44A2-8ACC-F29FBF19C8BE";
paths = (
{
closed = 1;
nodes = (
"1032 109 OFFCURVE",
"1130 137 OFFCURVE",
"1126 198 CURVE SMOOTH",
"1124 220 OFFCURVE",
"1104 220 OFFCURVE",
"1105 199 CURVE SMOOTH",
"1108 158 OFFCURVE",
"1039 135 OFFCURVE",
"959 126 CURVE",
"1008 217 OFFCURVE",
"1051 331 OFFCURVE",
"1051 411 CURVE SMOOTH",
"1051 478 OFFCURVE",
"1009 527 OFFCURVE",
"957 530 CURVE SMOOTH",
"745 544 OFFCURVE",
"165 170 OFFCURVE",
"-4 -4 CURVE SMOOTH",
"-61 -62 OFFCURVE",
"-94 -120 OFFCURVE",
"-76 -165 CURVE SMOOTH",
"-63 -198 OFFCURVE",
"-31 -212 OFFCURVE",
"-8 -215 CURVE SMOOTH",
"4 -216 OFFCURVE",
"15 -215 OFFCURVE",
"21 -210 CURVE SMOOTH",
"30 -204 OFFCURVE",
"25 -194 OFFCURVE",
"16 -188 CURVE SMOOTH",
"-4 -174 OFFCURVE",
"-13 -154 OFFCURVE",
"-13 -132 CURVE SMOOTH",
"-13 -106 OFFCURVE",
"0 -77 OFFCURVE",
"20 -56 CURVE SMOOTH",
"168 105 OFFCURVE",
"671 495 OFFCURVE",
"927 495 CURVE SMOOTH",
"971 495 OFFCURVE",
"1001 478 OFFCURVE",
"1001 426 CURVE SMOOTH",
"1001 354 OFFCURVE",
"959 222 OFFCURVE",
"918 121 CURVE",
"896 119 OFFCURVE",
"875 119 OFFCURVE",
"856 119 CURVE SMOOTH",
"838 119 OFFCURVE",
"823 119 OFFCURVE",
"812 120 CURVE",
"772 168 OFFCURVE",
"654 226 OFFCURVE",
"578 226 CURVE SMOOTH",
"552 226 OFFCURVE",
"530 220 OFFCURVE",
"517 204 CURVE SMOOTH",
"501 183 OFFCURVE",
"517 161 OFFCURVE",
"541 147 CURVE SMOOTH",
"565 133 OFFCURVE",
"603 123 OFFCURVE",
"641 116 CURVE SMOOTH",
"679 108 OFFCURVE",
"718 102 OFFCURVE",
"743 98 CURVE SMOOTH",
"767 94 OFFCURVE",
"786 90 OFFCURVE",
"789 89 CURVE SMOOTH",
"800 86 OFFCURVE",
"852 7 OFFCURVE",
"866 -30 CURVE",
"866 -35 OFFCURVE",
"866 -39 OFFCURVE",
"867 -42 CURVE SMOOTH",
"870 -60 OFFCURVE",
"888 -61 OFFCURVE",
"900 -55 CURVE SMOOTH",
"913 -50 OFFCURVE",
"926 -36 OFFCURVE",
"924 -19 CURVE SMOOTH",
"924 -18 OFFCURVE",
"923 -15 OFFCURVE",
"923 -13 CURVE SMOOTH",
"921 -1 OFFCURVE",
"919 10 OFFCURVE",
"922 22 CURVE SMOOTH",
"926 44 OFFCURVE",
"939 81 OFFCURVE",
"947 98 CURVE"
);
},
{
closed = 1;
nodes = (
"852 91 OFFCURVE",
"874 92 OFFCURVE",
"900 93 CURVE",
"893 74 OFFCURVE",
"888 52 OFFCURVE",
"883 32 CURVE SMOOTH",
"882 28 OFFCURVE",
"882 25 OFFCURVE",
"881 22 CURVE",
"867 48 OFFCURVE",
"849 73 OFFCURVE",
"834 92 CURVE"
);
},
{
closed = 1;
nodes = (
"649 175 OFFCURVE",
"705 149 OFFCURVE",
"740 128 CURVE",
"698 134 OFFCURVE",
"628 148 OFFCURVE",
"596 160 CURVE SMOOTH",
"583 164 OFFCURVE",
"565 182 OFFCURVE",
"602 179 CURVE SMOOTH"
);
}
);
width = 1006;
}
);
note = A;
unicode = 0041;
},
{
glyphname = B;
layers = (
{
hints = (
{
horizontal = 1;
place = "{-129, 33}";
type = Stem;
},
{
horizontal = 1;
place = "{46, 24}";
type = Stem;
},
{
horizontal = 1;
place = "{239, 20}";
type = Stem;
},
{
horizontal = 1;
place = "{295, 43}";
type = Stem;
},
{
horizontal = 1;
place = "{517, 25}";
type = Stem;
},
{
place = "{7, 34}";
type = Stem;
},
{
place = "{791, 26}";
type = Stem;
},
{
place = "{824, 25}";
type = Stem;
},
{
place = "{1038, 34}";
type = Stem;
},
{
place = "{1584, 33}";
type = Stem;
},
{
place = "{1756, 43}";
type = Stem;
}
);
layerId = "A14CB8BB-4075-44A2-8ACC-F29FBF19C8BE";
paths = (
{
closed = 1;
nodes = (
"1368 376 OFFCURVE",
"1372 379 OFFCURVE",
"1372 386 CURVE",
"1374 400 OFFCURVE",
"1354 419 OFFCURVE",
"1339 420 CURVE SMOOTH",
"1331 421 OFFCURVE",
"1308 408 OFFCURVE",
"1283 387 CURVE SMOOTH",
"1208 325 OFFCURVE",
"1087 204 OFFCURVE",
"1068 103 CURVE SMOOTH",
"1063 78 OFFCURVE",
"1075 58 OFFCURVE",
"1105 38 CURVE SMOOTH",
"1122 27 OFFCURVE",
"1126 45 OFFCURVE",
"1121 53 CURVE SMOOTH",
"1113 66 OFFCURVE",
"1109 76 OFFCURVE",
"1110 87 CURVE SMOOTH",
"1119 173 OFFCURVE",
"1280 334 OFFCURVE",
"1361 370 CURVE"
);
},
{
closed = 1;
nodes = (
"1723 378 OFFCURVE",
"1766 415 OFFCURVE",
"1766 449 CURVE SMOOTH",
"1766 512 OFFCURVE",
"1624 548 OFFCURVE",
"1419 550 CURVE SMOOTH",
"862 555 OFFCURVE",
"2 407 OFFCURVE",
"7 172 CURVE SMOOTH",
"8 99 OFFCURVE",
"134 52 OFFCURVE",
"228 52 CURVE SMOOTH",
"241 52 OFFCURVE",
"256 56 OFFCURVE",
"262 59 CURVE SMOOTH",
"265 61 OFFCURVE",
"271 69 OFFCURVE",
"262 73 CURVE SMOOTH",
"258 74 OFFCURVE",
"251 75 OFFCURVE",
"240 75 CURVE SMOOTH",
"162 75 OFFCURVE",
"67 113 OFFCURVE",
"67 163 CURVE SMOOTH",
"67 375 OFFCURVE",
"889 525 OFFCURVE",
"1403 525 CURVE SMOOTH",
"1516 525 OFFCURVE",
"1697 496 OFFCURVE",
"1697 443 CURVE SMOOTH",
"1697 423 OFFCURVE",
"1673 397 OFFCURVE",
"1603 364 CURVE SMOOTH",
"1526 329 OFFCURVE",
"1425 288 OFFCURVE",
"1382 278 CURVE",
"1379 278 OFFCURVE",
"1367 279 OFFCURVE",
"1357 278 CURVE SMOOTH",
"1343 276 OFFCURVE",
"1330 270 OFFCURVE",
"1330 258 CURVE SMOOTH",
"1330 249 OFFCURVE",
"1345 221 OFFCURVE",
"1369 221 CURVE SMOOTH",
"1375 221 OFFCURVE",
"1377 222 OFFCURVE",
"1380 224 CURVE",
"1381 224 OFFCURVE",
"1381 224 OFFCURVE",
"1383 224 CURVE SMOOTH",
"1475 224 OFFCURVE",
"1569 168 OFFCURVE",
"1569 93 CURVE SMOOTH",
"1569 73 OFFCURVE",
"1563 53 OFFCURVE",
"1549 30 CURVE SMOOTH",
"1495 -54 OFFCURVE",
"1371 -86 OFFCURVE",
"1249 -86 CURVE SMOOTH",
"1176 -86 OFFCURVE",
"1105 -75 OFFCURVE",
"1052 -57 CURVE SMOOTH",
"909 -11 OFFCURVE",
"822 62 OFFCURVE",
"822 181 CURVE SMOOTH",
"822 198 OFFCURVE",
"824 216 OFFCURVE",
"827 234 CURVE",
"861 235 OFFCURVE",
"899 238 OFFCURVE",
"934 238 CURVE SMOOTH",
"950 238 OFFCURVE",
"967 237 OFFCURVE",
"982 235 CURVE SMOOTH",
"1018 228 OFFCURVE",
"1008 245 OFFCURVE",
"989 255 CURVE SMOOTH",
"972 263 OFFCURVE",
"910 263 OFFCURVE",
"889 263 CURVE SMOOTH",
"877 263 OFFCURVE",
"854 262 OFFCURVE",
"835 263 CURVE",
"838 275 LINE",
"850 278 OFFCURVE",
"855 286 OFFCURVE",
"854 293 CURVE SMOOTH",
"853 301 OFFCURVE",
"844 308 OFFCURVE",
"835 302 CURVE",
"833 300 OFFCURVE",
"826 301 OFFCURVE",
"817 301 CURVE SMOOTH",
"807 302 OFFCURVE",
"794 303 OFFCURVE",
"782 303 CURVE SMOOTH",
"755 303 OFFCURVE",
"731 296 OFFCURVE",
"731 275 CURVE SMOOTH",
"731 245 OFFCURVE",
"761 237 OFFCURVE",
"795 234 CURVE",
"789 216 OFFCURVE",
"787 198 OFFCURVE",
"787 180 CURVE SMOOTH",
"787 55 OFFCURVE",
"932 -54 OFFCURVE",
"1043 -95 CURVE SMOOTH",
"1105 -118 OFFCURVE",
"1191 -132 OFFCURVE",
"1278 -132 CURVE SMOOTH",
"1406 -132 OFFCURVE",
"1540 -100 OFFCURVE",
"1596 -9 CURVE SMOOTH",
"1613 18 OFFCURVE",
"1621 44 OFFCURVE",
"1621 71 CURVE SMOOTH",
"1621 160 OFFCURVE",
"1530 233 OFFCURVE",
"1406 259 CURVE",
"1460 272 OFFCURVE",
"1565 308 OFFCURVE",
"1634 339 CURVE SMOOTH"
);
}
);
width = 1577;
}
);
note = B;
unicode = 0042;
},
{
glyphname = C;
layers = (
{
hints = (
{
horizontal = 1;
place = "{-108, 34}";
type = Stem;
},
{
horizontal = 1;
place = "{363, 31}";
type = Stem;
},
{
horizontal = 1;
place = "{508, 34}";
type = Stem;
},
{
place = "{25, 25}";
type = Stem;
},
{
place = "{636, 36}";
type = Stem;
},
{
place = "{736, 49}";
type = Stem;
}
);
layerId = "A14CB8BB-4075-44A2-8ACC-F29FBF19C8BE";
paths = (
{
closed = 1;
nodes = (
"757 -115 OFFCURVE",
"1086 -11 OFFCURVE",
"1277 203 CURVE SMOOTH",
"1280 207 OFFCURVE",
"1281 213 OFFCURVE",
"1279 217 CURVE SMOOTH",
"1277 222 OFFCURVE",
"1271 223 OFFCURVE",
"1266 219 CURVE SMOOTH",
"1060 21 OFFCURVE",
"757 -60 OFFCURVE",
"495 -76 CURVE SMOOTH",
"465 -78 OFFCURVE",
"438 -79 OFFCURVE",
"412 -79 CURVE SMOOTH",
"166 -79 OFFCURVE",
"61 -5 OFFCURVE",
"61 111 CURVE SMOOTH",
"61 298 OFFCURVE",
"366 502 OFFCURVE",
"615 502 CURVE SMOOTH",
"628 502 OFFCURVE",
"640 501 OFFCURVE",
"653 500 CURVE SMOOTH",
"681 498 OFFCURVE",
"702 495 OFFCURVE",
"715 489 CURVE",
"691 472 OFFCURVE",
"669 454 OFFCURVE",
"654 433 CURVE SMOOTH",
"639 412 OFFCURVE",
"632 396 OFFCURVE",
"632 384 CURVE SMOOTH",
"632 364 OFFCURVE",
"648 356 OFFCURVE",
"667 356 CURVE SMOOTH",
"712 356 OFFCURVE",
"792 400 OFFCURVE",
"790 461 CURVE SMOOTH",
"789 475 OFFCURVE",
"783 485 OFFCURVE",
"771 495 CURVE",
"788 507 OFFCURVE",
"805 519 OFFCURVE",
"821 532 CURVE SMOOTH",
"838 545 OFFCURVE",
"853 559 OFFCURVE",
"863 573 CURVE SMOOTH",
"867 579 OFFCURVE",
"870 583 OFFCURVE",
"870 587 CURVE SMOOTH",
"871 592 OFFCURVE",
"868 597 OFFCURVE",
"862 597 CURVE SMOOTH",
"855 597 OFFCURVE",
"845 590 OFFCURVE",
"837 581 CURVE SMOOTH",
"826 568 OFFCURVE",
"812 557 OFFCURVE",
"796 545 CURVE SMOOTH",
"780 533 OFFCURVE",
"764 522 OFFCURVE",
"747 511 CURVE",
"726 524 OFFCURVE",
"677 543 OFFCURVE",
"640 544 CURVE SMOOTH",
"280 551 OFFCURVE",
"25 336 OFFCURVE",
"25 114 CURVE SMOOTH",
"25 -42 OFFCURVE",
"188 -126 OFFCURVE",
"452 -126 CURVE SMOOTH",
"468 -126 OFFCURVE",
"483 -126 OFFCURVE",
"500 -125 CURVE SMOOTH"
);
},
{
closed = 1;
nodes = (
"726 441 OFFCURVE",
"713 421 OFFCURVE",
"695 406 CURVE SMOOTH",
"682 396 OFFCURVE",
"678 393 OFFCURVE",
"677 398 CURVE SMOOTH",
"676 403 OFFCURVE",
"679 414 OFFCURVE",
"685 421 CURVE SMOOTH",
"697 438 OFFCURVE",
"710 449 OFFCURVE",
"730 465 CURVE"
);
}
);
width = 1025;
}
);
note = C;
unicode = 0043;
},
{
glyphname = D;
layers = (
{
hints = (
{
horizontal = 1;
place = "{-95, 32}";
type = Stem;
},
{
horizontal = 1;
place = "{30, 25}";
type = Stem;
},
{
horizontal = 1;
place = "{500, 22}";
type = Stem;
},
{
place = "{-22, 34}";
type = Stem;
},
{
place = "{2122, 26}";
type = Stem;
}
);
layerId = "A14CB8BB-4075-44A2-8ACC-F29FBF19C8BE";
paths = (
{
closed = 1;
nodes = (
"1477 -96 OFFCURVE",
"1999 -32 OFFCURVE",
"1999 195 CURVE SMOOTH",
"1999 280 OFFCURVE",
"1948 343 OFFCURVE",
"1873 391 CURVE SMOOTH",
"1743 475 OFFCURVE",
"1505 510 OFFCURVE",
"1244 510 CURVE SMOOTH",
"690 510 OFFCURVE",
"11 352 OFFCURVE",
"14 154 CURVE SMOOTH",
"15 80 OFFCURVE",
"140 23 OFFCURVE",
"224 23 CURVE SMOOTH",
"245 23 OFFCURVE",
"269 24 OFFCURVE",
"285 30 CURVE SMOOTH",
"295 34 OFFCURVE",
"302 42 OFFCURVE",
"294 50 CURVE SMOOTH",
"289 54 OFFCURVE",
"280 57 OFFCURVE",
"270 56 CURVE SMOOTH",
"251 55 OFFCURVE",
"226 57 OFFCURVE",
"221 57 CURVE SMOOTH",
"152 57 OFFCURVE",
"53 88 OFFCURVE",
"54 138 CURVE SMOOTH",
"56 291 OFFCURVE",
"734 474 OFFCURVE",
"1292 474 CURVE SMOOTH",
"1520 474 OFFCURVE",
"1724 443 OFFCURVE",
"1849 368 CURVE SMOOTH",
"1931 319 OFFCURVE",
"1962 271 OFFCURVE",
"1962 228 CURVE SMOOTH",
"1962 176 OFFCURVE",
"1918 128 OFFCURVE",
"1856 89 CURVE SMOOTH",
"1703 -5 OFFCURVE",
"1430 -50 OFFCURVE",
"1326 -53 CURVE SMOOTH",
"1250 -55 OFFCURVE",
"1175 -48 OFFCURVE",
"1089 -24 CURVE SMOOTH",
"1061 -17 OFFCURVE",
"1046 -27 OFFCURVE",
"1079 -45 CURVE SMOOTH",
"1141 -79 OFFCURVE",
"1231 -94 OFFCURVE",
"1328 -95 CURVE SMOOTH"
);
},
{
closed = 1;
nodes = (
"1029 208 OFFCURVE",
"962 123 OFFCURVE",
"921 70 CURVE SMOOTH",
"906 50 OFFCURVE",
"853 -23 OFFCURVE",
"853 -54 CURVE SMOOTH",
"853 -71 OFFCURVE",
"872 -96 OFFCURVE",
"892 -103 CURVE SMOOTH",
"896 -104 OFFCURVE",
"907 -106 OFFCURVE",
"917 -96 CURVE SMOOTH",
"940 -70 OFFCURVE",
"989 -35 OFFCURVE",
"1005 -24 CURVE SMOOTH",
"1015 -18 OFFCURVE",
"1025 -12 OFFCURVE",
"1033 -6 CURVE SMOOTH",
"1042 0 OFFCURVE",
"1049 5 OFFCURVE",
"1054 11 CURVE SMOOTH",
"1065 22 OFFCURVE",
"1057 30 OFFCURVE",
"1044 24 CURVE",
"1026 12 OFFCURVE",
"1000 -2 OFFCURVE",
"976 -15 CURVE SMOOTH",
"952 -27 OFFCURVE",
"930 -38 OFFCURVE",
"921 -43 CURVE SMOOTH",
"908 -49 OFFCURVE",
"903 -51 OFFCURVE",
"913 -36 CURVE SMOOTH",
"957 34 OFFCURVE",
"1023 116 OFFCURVE",
"1089 189 CURVE SMOOTH",
"1128 231 OFFCURVE",
"1193 305 OFFCURVE",
"1193 310 CURVE SMOOTH",
"1193 322 OFFCURVE",
"1171 350 OFFCURVE",
"1157 350 CURVE SMOOTH",
"1152 350 OFFCURVE",
"1110 327 OFFCURVE",
"1081 295 CURVE SMOOTH",
"1075 288 OFFCURVE",
"1071 277 OFFCURVE",
"1082 268 CURVE"
);
}
);
width = 1929;
}
);
note = D;
unicode = 0044;
},
{
glyphname = E;
layers = (
{
hints = (
{
horizontal = 1;
place = "{-163, 45}";
type = Stem;
},
{
horizontal = 1;
place = "{152, 67}";
type = Stem;
},
{
horizontal = 1;
place = "{238, 29}";
type = Stem;
},
{
horizontal = 1;
place = "{372, 12}";
type = Stem;
},
{
horizontal = 1;
place = "{500, 23}";
type = Stem;
},
{
place = "{31, 24}";
type = Stem;
},
{
place = "{1017, 34}";
type = Stem;
}
);
layerId = "A14CB8BB-4075-44A2-8ACC-F29FBF19C8BE";
paths = (
{
closed = 1;
nodes = (
"1156 51 OFFCURVE",
"1237 106 OFFCURVE",
"1301 174 CURVE SMOOTH",
"1304 178 OFFCURVE",
"1305 183 OFFCURVE",
"1303 187 CURVE SMOOTH",
"1300 192 OFFCURVE",
"1294 193 OFFCURVE",
"1290 189 CURVE SMOOTH",
"1101 17 OFFCURVE",
"818 -63 OFFCURVE",
"591 -69 CURVE SMOOTH",
"517 -70 OFFCURVE",
"454 -66 OFFCURVE",
"404 -56 CURVE SMOOTH",
"280 -32 OFFCURVE",
"235 18 OFFCURVE",
"235 74 CURVE SMOOTH",
"235 108 OFFCURVE",
"244 140 OFFCURVE",
"261 168 CURVE",
"340 168 LINE SMOOTH",
"449 168 OFFCURVE",
"569 170 OFFCURVE",
"632 182 CURVE SMOOTH",
"661 187 OFFCURVE",
"676 192 OFFCURVE",
"680 197 CURVE SMOOTH",
"684 201 OFFCURVE",
"683 206 OFFCURVE",
"674 208 CURVE SMOOTH",
"670 209 OFFCURVE",
"664 209 OFFCURVE",
"658 208 CURVE SMOOTH",
"619 205 OFFCURVE",
"557 203 OFFCURVE",
"490 203 CURVE SMOOTH",
"422 203 OFFCURVE",
"348 204 OFFCURVE",
"288 207 CURVE",
"375 307 OFFCURVE",
"552 367 OFFCURVE",
"713 395 CURVE",
"836 359 OFFCURVE",
"975 324 OFFCURVE",
"1086 308 CURVE SMOOTH",
"1164 296 OFFCURVE",
"1171 345 OFFCURVE",
"1155 369 CURVE SMOOTH",
"1129 411 OFFCURVE",
"1049 447 OFFCURVE",
"929 451 CURVE SMOOTH",
"917 452 OFFCURVE",
"905 452 OFFCURVE",
"892 452 CURVE SMOOTH",
"830 452 OFFCURVE",
"761 446 OFFCURVE",
"693 434 CURVE",
"641 450 OFFCURVE",
"593 466 OFFCURVE",
"559 479 CURVE SMOOTH",
"461 514 OFFCURVE",
"324 550 OFFCURVE",
"213 550 CURVE SMOOTH",
"129 550 OFFCURVE",
"57 530 OFFCURVE",
"30 472 CURVE SMOOTH",
"18 444 OFFCURVE",
"26 402 OFFCURVE",
"58 364 CURVE SMOOTH",
"91 324 OFFCURVE",
"181 281 OFFCURVE",
"211 274 CURVE",
"213 274 OFFCURVE",
"215 273 OFFCURVE",
"217 273 CURVE",
"220 274 OFFCURVE",
"223 276 OFFCURVE",
"222 280 CURVE SMOOTH",
"222 282 OFFCURVE",
"220 285 OFFCURVE",
"216 289 CURVE",
"210 293 OFFCURVE",
"200 300 OFFCURVE",
"193 302 CURVE",
"156 321 OFFCURVE",
"110 350 OFFCURVE",
"85 375 CURVE SMOOTH",
"55 406 OFFCURVE",
"51 429 OFFCURVE",
"59 448 CURVE SMOOTH",
"78 492 OFFCURVE",
"138 510 OFFCURVE",
"216 510 CURVE SMOOTH",
"328 510 OFFCURVE",
"473 473 OFFCURVE",
"567 442 CURVE SMOOTH",
"587 435 OFFCURVE",
"608 429 OFFCURVE",
"629 422 CURVE",
"462 383 OFFCURVE",
"300 312 OFFCURVE",
"221 210 CURVE",
"213 211 OFFCURVE",
"205 212 OFFCURVE",
"199 212 CURVE SMOOTH",
"192 213 OFFCURVE",
"186 214 OFFCURVE",
"181 215 CURVE SMOOTH",
"157 221 OFFCURVE",
"133 226 OFFCURVE",
"112 226 CURVE SMOOTH",
"84 226 OFFCURVE",
"64 217 OFFCURVE",
"66 201 CURVE SMOOTH",
"68 182 OFFCURVE",
"82 170 OFFCURVE",
"120 170 CURVE SMOOTH",
"137 170 OFFCURVE",
"163 169 OFFCURVE",
"194 169 CURVE",
"179 139 OFFCURVE",
"171 108 OFFCURVE",
"171 74 CURVE SMOOTH",
"171 -33 OFFCURVE",
"304 -112 OFFCURVE",
"549 -112 CURVE SMOOTH",
"562 -112 OFFCURVE",
"575 -111 OFFCURVE",
"589 -111 CURVE SMOOTH",
"734 -107 OFFCURVE",
"912 -69 OFFCURVE",
"1067 8 CURVE SMOOTH"
);
},
{
closed = 1;
nodes = (
"1022 412 OFFCURVE",
"1093 394 OFFCURVE",
"1112 365 CURVE SMOOTH",
"1118 357 OFFCURVE",
"1117 330 OFFCURVE",
"1065 338 CURVE SMOOTH",
"1000 348 OFFCURVE",
"892 375 OFFCURVE",
"787 406 CURVE",
"841 412 OFFCURVE",
"890 415 OFFCURVE",
"931 414 CURVE SMOOTH"
);
}
);
width = 1075;
}
);
note = E;
unicode = 0045;
},
{
glyphname = F;
layers = (
{
hints = (
{
horizontal = 1;
place = "{-124, 21}";
target = up;
type = BottomGhost;
},
{
horizontal = 1;
place = "{120, 25}";
type = Stem;
},
{
horizontal = 1;
place = "{171, 28}";
type = Stem;
},
{
horizontal = 1;
place = "{514, 23}";
type = Stem;
},
{
place = "{16, 32}";
type = Stem;
},
{
place = "{1248, 22}";
type = Stem;
}
);
layerId = "A14CB8BB-4075-44A2-8ACC-F29FBF19C8BE";
paths = (
{
closed = 1;
nodes = (
"1211 172 OFFCURVE",
"1324 188 OFFCURVE",
"1347 190 CURVE SMOOTH",
"1354 191 OFFCURVE",
"1358 197 OFFCURVE",
"1358 202 CURVE SMOOTH",
"1358 208 OFFCURVE",
"1353 214 OFFCURVE",
"1346 213 CURVE SMOOTH",
"1205 197 LINE",
"1243 251 OFFCURVE",
"1270 304 OFFCURVE",
"1276 351 CURVE SMOOTH",
"1293 497 OFFCURVE",
"1138 530 OFFCURVE",
"942 530 CURVE SMOOTH",
"609 530 OFFCURVE",
"12 466 OFFCURVE",
"12 227 CURVE SMOOTH",
"12 155 OFFCURVE",
"121 118 OFFCURVE",
"207 118 CURVE SMOOTH",
"223 118 OFFCURVE",
"293 119 OFFCURVE",
"313 124 CURVE SMOOTH",
"319 126 OFFCURVE",
"323 128 OFFCURVE",
"326 130 CURVE SMOOTH",
"330 134 OFFCURVE",
"329 139 OFFCURVE",
"326 142 CURVE SMOOTH",
"321 146 OFFCURVE",
"311 148 OFFCURVE",
"300 147 CURVE SMOOTH",
"288 146 OFFCURVE",
"273 145 OFFCURVE",
"259 145 CURVE SMOOTH",
"157 145 OFFCURVE",
"52 174 OFFCURVE",
"52 228 CURVE SMOOTH",
"52 414 OFFCURVE",
"693 503 OFFCURVE",
"964 503 CURVE SMOOTH",
"1140 503 OFFCURVE",
"1225 463 OFFCURVE",
"1225 383 CURVE SMOOTH",
"1225 335 OFFCURVE",
"1195 271 OFFCURVE",
"1129 191 CURVE",
"1046 185 OFFCURVE",
"954 182 OFFCURVE",
"871 182 CURVE SMOOTH",
"825 182 OFFCURVE",
"781 183 OFFCURVE",
"744 185 CURVE SMOOTH",
"722 186 OFFCURVE",
"706 178 OFFCURVE",
"706 165 CURVE SMOOTH",
"706 148 OFFCURVE",
"731 132 OFFCURVE",
"771 130 CURVE SMOOTH",
"787 129 OFFCURVE",
"804 128 OFFCURVE",
"821 128 CURVE SMOOTH",
"909 128 OFFCURVE",
"1008 142 OFFCURVE",
"1103 156 CURVE",
"1018 46 OFFCURVE",
"919 -57 OFFCURVE",
"881 -92 CURVE SMOOTH",
"834 -135 OFFCURVE",
"872 -135 OFFCURVE",
"900 -113 CURVE SMOOTH",
"970 -57 OFFCURVE",
"1094 54 OFFCURVE",
"1182 168 CURVE"
);
}
);
width = 1233;
}
);
note = F;
unicode = 0046;
},
{
glyphname = G;
layers = (
{
hints = (
{
horizontal = 1;
place = "{-384, 14}";
type = Stem;
},
{
horizontal = 1;
place = "{-65, 34}";
type = Stem;
},
{
horizontal = 1;
place = "{370, 7}";
type = Stem;
},
{
horizontal = 1;
place = "{507, 17}";
type = Stem;
},
{
place = "{43, 22}";
type = Stem;
},
{
place = "{735, 41}";
type = Stem;
},
{
place = "{1148, 19}";
type = Stem;
}
);
layerId = "A14CB8BB-4075-44A2-8ACC-F29FBF19C8BE";
paths = (
{
closed = 1;
nodes = (
"980 142 OFFCURVE",
"639 -27 OFFCURVE",
"414 -27 CURVE SMOOTH",
"295 -27 OFFCURVE",
"200 18 OFFCURVE",
"200 94 CURVE SMOOTH",
"200 126 OFFCURVE",
"216 163 OFFCURVE",
"255 207 CURVE",
"502 208 OFFCURVE",
"765 294 OFFCURVE",
"877 380 CURVE SMOOTH",
"905 401 OFFCURVE",
"949 440 OFFCURVE",
"950 477 CURVE SMOOTH",
"950 516 OFFCURVE",
"907 528 OFFCURVE",
"859 529 CURVE SMOOTH",
"659 532 OFFCURVE",
"379 412 OFFCURVE",
"250 281 CURVE SMOOTH",
"236 267 OFFCURVE",
"224 253 OFFCURVE",
"214 240 CURVE",
"125 255 OFFCURVE",
"87 301 OFFCURVE",
"87 350 CURVE SMOOTH",
"87 389 OFFCURVE",
"123 441 OFFCURVE",
"174 471 CURVE SMOOTH",
"180 475 OFFCURVE",
"181 479 OFFCURVE",
"181 481 CURVE SMOOTH",
"181 484 OFFCURVE",
"179 487 OFFCURVE",
"173 488 CURVE SMOOTH",
"167 489 OFFCURVE",
"158 488 OFFCURVE",
"151 484 CURVE SMOOTH",
"94 453 OFFCURVE",
"63 396 OFFCURVE",
"63 350 CURVE SMOOTH",
"63 290 OFFCURVE",
"103 233 OFFCURVE",
"195 214 CURVE",
"168 173 OFFCURVE",
"155 132 OFFCURVE",
"155 96 CURVE SMOOTH",
"155 3 OFFCURVE",
"244 -61 OFFCURVE",
"403 -61 CURVE SMOOTH",
"641 -61 OFFCURVE",
"993 94 OFFCURVE",
"1080 270 CURVE",
"1083 260 OFFCURVE",
"1084 248 OFFCURVE",
"1084 233 CURVE SMOOTH",
"1084 179 OFFCURVE",
"1065 102 OFFCURVE",
"1037 43 CURVE",
"1017 41 OFFCURVE",
"997 38 OFFCURVE",
"977 34 CURVE SMOOTH",
"806 -6 OFFCURVE",
"376 -156 OFFCURVE",
"342 -376 CURVE SMOOTH",
"327 -469 OFFCURVE",
"414 -498 OFFCURVE",
"484 -497 CURVE SMOOTH",
"712 -494 OFFCURVE",
"967 -213 OFFCURVE",
"1081 14 CURVE",
"1099 15 OFFCURVE",
"1118 14 OFFCURVE",
"1137 13 CURVE SMOOTH",
"1182 10 OFFCURVE",
"1222 0 OFFCURVE",
"1229 -16 CURVE SMOOTH",
"1232 -23 OFFCURVE",
"1240 -22 OFFCURVE",
"1244 -20 CURVE SMOOTH",
"1248 -18 OFFCURVE",
"1252 -12 OFFCURVE",
"1249 -6 CURVE SMOOTH",
"1237 22 OFFCURVE",
"1185 35 OFFCURVE",
"1141 41 CURVE SMOOTH",
"1125 43 OFFCURVE",
"1110 43 OFFCURVE",
"1095 44 CURVE",
"1101 56 LINE SMOOTH",
"1135 129 OFFCURVE",
"1149 199 OFFCURVE",
"1149 251 CURVE SMOOTH",
"1149 303 OFFCURVE",
"1131 342 OFFCURVE",
"1093 337 CURVE SMOOTH",
"1073 334 OFFCURVE",
"1062 325 OFFCURVE",
"1057 316 CURVE SMOOTH",
"1054 309 OFFCURVE",
"1053 300 OFFCURVE",
"1060 294 CURVE"
);
},
{
closed = 1;
nodes = (
"338 289 OFFCURVE",
"415 344 OFFCURVE",
"488 386 CURVE SMOOTH",
"583 440 OFFCURVE",
"737 498 OFFCURVE",
"838 502 CURVE SMOOTH",
"884 504 OFFCURVE",
"895 494 OFFCURVE",
"895 483 CURVE SMOOTH",
"895 464 OFFCURVE",
"865 434 OFFCURVE",
"838 412 CURVE SMOOTH",
"697 294 OFFCURVE",
"437 235 OFFCURVE",
"281 235 CURVE"
);
},
{
closed = 1;
nodes = (
"989 3 OFFCURVE",
"1003 6 OFFCURVE",
"1018 8 CURVE",
"914 -183 OFFCURVE",
"686 -466 OFFCURVE",
"470 -469 CURVE SMOOTH",
"409 -470 OFFCURVE",
"371 -441 OFFCURVE",
"371 -396 CURVE SMOOTH",
"371 -352 OFFCURVE",
"408 -290 OFFCURVE",
"501 -221 CURVE SMOOTH",
"644 -115 OFFCURVE",
"826 -30 OFFCURVE",
"974 0 CURVE SMOOTH"
);
}
);
width = 1175;
}
);
note = G;
unicode = 0047;
},
{
glyphname = H;
layers = (
{
hints = (
{
horizontal = 1;
place = "{-126, 21}";
target = up;
type = BottomGhost;
},
{
horizontal = 1;
place = "{96, 17}";
type = Stem;
},
{
horizontal = 1;
place = "{119, 24}";
type = Stem;
},
{
horizontal = 1;
place = "{180, 40}";
type = Stem;
},
{
horizontal = 1;
place = "{511, 22}";
type = Stem;
},
{
horizontal = 1;
place = "{529, 18}";
type = Stem;
},
{
place = "{21, 32}";
type = Stem;
},
{
place = "{1177, 63}";
type = Stem;
},
{
place = "{1558, 41}";
type = Stem;
},
{
place = "{1711, 12}";
type = Stem;
}
);
layerId = "A14CB8BB-4075-44A2-8ACC-F29FBF19C8BE";
paths = (
{
closed = 1;
nodes = (
"1945 486 OFFCURVE",
"1950 489 OFFCURVE",
"1951 493 CURVE",
"1955 531 OFFCURVE",
"1941 548 OFFCURVE",
"1918 548 CURVE SMOOTH",
"1884 548 OFFCURVE",
"1834 512 OFFCURVE",
"1823 499 CURVE SMOOTH",
"1750 417 OFFCURVE",
"1664 265 OFFCURVE",
"1613 121 CURVE",
"1598 120 OFFCURVE",
"1584 120 OFFCURVE",
"1571 120 CURVE SMOOTH",
"1546 120 OFFCURVE",
"1525 121 OFFCURVE",
"1512 123 CURVE",
"1474 159 OFFCURVE",
"1342 221 OFFCURVE",
"1268 221 CURVE SMOOTH",
"1247 221 OFFCURVE",
"1231 217 OFFCURVE",
"1221 204 CURVE SMOOTH",
"1205 184 OFFCURVE",
"1220 162 OFFCURVE",
"1245 148 CURVE SMOOTH",
"1268 134 OFFCURVE",
"1307 124 OFFCURVE",
"1345 116 CURVE SMOOTH",
"1383 109 OFFCURVE",
"1422 103 OFFCURVE",
"1448 99 CURVE SMOOTH",
"1471 95 OFFCURVE",
"1491 91 OFFCURVE",
"1494 90 CURVE SMOOTH",
"1505 87 OFFCURVE",
"1567 3 OFFCURVE",
"1584 -34 CURVE SMOOTH",
"1585 -37 OFFCURVE",
"1585 -42 OFFCURVE",
"1586 -45 CURVE SMOOTH",
"1590 -63 OFFCURVE",
"1608 -62 OFFCURVE",
"1620 -56 CURVE SMOOTH",
"1633 -49 OFFCURVE",
"1645 -34 OFFCURVE",
"1640 -17 CURVE",
"1640 -15 OFFCURVE",
"1638 -9 OFFCURVE",
"1636 -1 CURVE SMOOTH",
"1635 6 OFFCURVE",
"1634 15 OFFCURVE",
"1635 23 CURVE SMOOTH",
"1637 46 OFFCURVE",
"1644 72 OFFCURVE",
"1652 99 CURVE",
"1738 110 OFFCURVE",
"1836 138 OFFCURVE",
"1832 199 CURVE SMOOTH",
"1830 221 OFFCURVE",
"1809 221 OFFCURVE",
"1811 200 CURVE SMOOTH",
"1814 154 OFFCURVE",
"1744 133 OFFCURVE",
"1661 124 CURVE",
"1704 237 OFFCURVE",
"1780 375 OFFCURVE",
"1852 449 CURVE",
"1853 451 OFFCURVE",
"1877 479 OFFCURVE",
"1898 497 CURVE SMOOTH",
"1915 511 OFFCURVE",
"1932 521 OFFCURVE",
"1928 493 CURVE SMOOTH",
"1928 489 OFFCURVE",
"1933 485 OFFCURVE",
"1940 485 CURVE"
);
},
{
closed = 1;
nodes = (
"1001 -20 OFFCURVE",
"1236 210 OFFCURVE",
"1253 354 CURVE SMOOTH",
"1268 492 OFFCURVE",
"1104 531 OFFCURVE",
"916 531 CURVE SMOOTH",
"676 531 OFFCURVE",
"381 467 OFFCURVE",
"309 445 CURVE SMOOTH",
"130 391 OFFCURVE",
"32 324 OFFCURVE",
"22 246 CURVE SMOOTH",
"12 171 OFFCURVE",
"145 115 OFFCURVE",
"238 115 CURVE SMOOTH",
"261 115 OFFCURVE",
"288 117 OFFCURVE",
"307 123 CURVE SMOOTH",
"324 128 OFFCURVE",
"324 136 OFFCURVE",
"319 142 CURVE SMOOTH",
"314 147 OFFCURVE",
"304 149 OFFCURVE",
"293 149 CURVE SMOOTH",
"272 148 OFFCURVE",
"244 150 OFFCURVE",
"239 150 CURVE SMOOTH",
"159 150 OFFCURVE",
"56 179 OFFCURVE",
"64 228 CURVE SMOOTH",
"74 294 OFFCURVE",
"186 355 OFFCURVE",
"350 406 CURVE SMOOTH",
"430 432 OFFCURVE",
"731 502 OFFCURVE",
"955 502 CURVE SMOOTH",
"1084 502 OFFCURVE",
"1184 478 OFFCURVE",
"1208 415 CURVE SMOOTH",
"1245 317 OFFCURVE",
"944 -18 OFFCURVE",
"864 -93 CURVE SMOOTH",
"817 -137 OFFCURVE",
"855 -136 OFFCURVE",
"883 -114 CURVE SMOOTH"
);
},
{
closed = 1;
nodes = (
"1556 92 OFFCURVE",
"1579 93 OFFCURVE",
"1605 94 CURVE",
"1598 74 OFFCURVE",
"1593 53 OFFCURVE",
"1588 33 CURVE SMOOTH",
"1587 29 OFFCURVE",
"1587 26 OFFCURVE",
"1586 23 CURVE",
"1572 49 OFFCURVE",
"1554 74 OFFCURVE",
"1539 92 CURVE"
);
},
{
closed = 1;
nodes = (
"1353 169 OFFCURVE",
"1399 153 OFFCURVE",
"1442 130 CURVE",
"1400 135 OFFCURVE",
"1332 150 OFFCURVE",
"1300 160 CURVE SMOOTH",
"1289 164 OFFCURVE",
"1273 175 OFFCURVE",
"1305 173 CURVE SMOOTH"
);
}
);
width = 1729;
}
);
note = H;
unicode = 0048;
},
{
glyphname = I;
layers = (
{
hints = (
{
horizontal = 1;
place = "{-144, 14}";
type = Stem;
},
{
horizontal = 1;
place = "{-72, 21}";
type = Stem;
},
{
horizontal = 1;
place = "{139, 22}";
type = Stem;
},
{
horizontal = 1;
place = "{189, 27}";
type = Stem;
},
{
horizontal = 1;
place = "{533, 17}";
type = Stem;
},
{
place = "{22, 11}";
type = Stem;
},
{
place = "{732, 38}";
type = Stem;
},
{
place = "{982, 24}";
type = Stem;
},
{
horizontal = 1;
place = "{154, 23}";
type = Stem;
},
{
place = "{14, 34}";
type = Stem;
}
);
layerId = "A14CB8BB-4075-44A2-8ACC-F29FBF19C8BE";
paths = (
{
closed = 1;
nodes = (
"173 193 OFFCURVE",
"153 216 OFFCURVE",
"111 180 CURVE",
"100 181 OFFCURVE",
"91 181 OFFCURVE",
"91 186 CURVE SMOOTH",
"91 189 OFFCURVE",
"93 190 OFFCURVE",
"97 191 CURVE SMOOTH",
"110 194 OFFCURVE",
"134 193 OFFCURVE",
"140 208 CURVE SMOOTH",
"144 217 OFFCURVE",
"115 218 OFFCURVE",
"103 218 CURVE SMOOTH",
"93 218 OFFCURVE",
"80 219 OFFCURVE",
"67 219 CURVE SMOOTH",
"41 219 OFFCURVE",
"17 213 OFFCURVE",
"17 192 CURVE SMOOTH",
"17 162 OFFCURVE",
"47 153 OFFCURVE",
"82 151 CURVE",
"38 101 OFFCURVE",
"14 46 OFFCURVE",
"14 -4 CURVE SMOOTH",
"14 -90 OFFCURVE",
"81 -157 OFFCURVE",
"224 -157 CURVE SMOOTH",
"396 -157 OFFCURVE",
"576 -55 OFFCURVE",
"713 45 CURVE",
"724 -25 OFFCURVE",
"756 -111 OFFCURVE",
"824 -111 CURVE SMOOTH",
"877 -111 OFFCURVE",
"915 -80 OFFCURVE",
"954 -20 CURVE SMOOTH",
"957 -15 OFFCURVE",
"959 -9 OFFCURVE",
"958 -5 CURVE SMOOTH",
"958 -4 OFFCURVE",
"955 2 OFFCURVE",
"950 0 CURVE SMOOTH",
"947 -1 OFFCURVE",
"945 -4 OFFCURVE",
"943 -6 CURVE",
"917 -45 OFFCURVE",
"864 -90 OFFCURVE",
"827 -74 CURVE SMOOTH",
"785 -55 OFFCURVE",
"768 28 OFFCURVE",
"763 82 CURVE",
"854 153 OFFCURVE",
"941 240 OFFCURVE",
"998 316 CURVE SMOOTH",
"1044 378 OFFCURVE",
"1063 431 OFFCURVE",
"1063 472 CURVE SMOOTH",
"1063 522 OFFCURVE",
"1031 552 OFFCURVE",
"985 552 CURVE SMOOTH",
"804 552 OFFCURVE",
"697 265 OFFCURVE",
"710 77 CURVE",
"580 -17 OFFCURVE",
"400 -113 OFFCURVE",
"242 -113 CURVE SMOOTH",
"118 -113 OFFCURVE",
"54 -55 OFFCURVE",
"54 15 CURVE SMOOTH",
"54 57 OFFCURVE",
"75 104 OFFCURVE",
"122 151 CURVE",
"154 152 OFFCURVE",
"189 154 OFFCURVE",
"220 154 CURVE SMOOTH",
"237 154 OFFCURVE",
"252 154 OFFCURVE",
"267 152 CURVE SMOOTH",
"303 145 OFFCURVE",
"293 162 OFFCURVE",
"274 172 CURVE SMOOTH",
"258 180 OFFCURVE",
"196 180 OFFCURVE",
"174 180 CURVE SMOOTH",
"169 180 OFFCURVE",
"163 180 OFFCURVE",
"156 179 CURVE"
);
},
{
closed = 1;
nodes = (
"1020 525 OFFCURVE",
"1034 512 OFFCURVE",
"1034 484 CURVE SMOOTH",
"1034 450 OFFCURVE",
"1013 395 OFFCURVE",
"959 321 CURVE SMOOTH",
"910 254 OFFCURVE",
"838 176 OFFCURVE",
"761 115 CURVE",
"759 217 OFFCURVE",
"790 354 OFFCURVE",
"861 435 CURVE SMOOTH",
"916 497 OFFCURVE",
"966 525 OFFCURVE",
"999 525 CURVE SMOOTH"
);
}
);
width = 929;
}
);
note = I;
unicode = 0049;
},
{
glyphname = J;
layers = (
{
hints = (
{
horizontal = 1;
place = "{-447, 14}";
type = Stem;
},
{
horizontal = 1;
place = "{-380, 28}";
type = Stem;
},
{
horizontal = 1;
place = "{-5, 13}";
type = Stem;
},
{
horizontal = 1;
place = "{169, 19}";
type = Stem;
},
{
horizontal = 1;
place = "{223, 30}";
type = Stem;
},
{
horizontal = 1;
place = "{257, 17}";
type = Stem;
},
{
horizontal = 1;
place = "{332, 7}";
type = Stem;
},
{
horizontal = 1;
place = "{520, 30}";
type = Stem;
},
{
place = "{-98, 34}";
type = Stem;
},
{
place = "{12, 24}";
type = Stem;
},
{
place = "{156, 13}";
type = Stem;
},
{
place = "{256, 26}";
type = Stem;
},
{
place = "{287, 20}";
type = Stem;
},
{
place = "{318, 30}";
type = Stem;
},
{
place = "{1254, 36}";
type = Stem;
},
{
horizontal = 1;
place = "{-12, 16}";
type = Stem;
},
{
horizontal = 1;
place = "{-1, 13}";
type = Stem;
}
);
layerId = "A14CB8BB-4075-44A2-8ACC-F29FBF19C8BE";
paths = (
{
closed = 1;
nodes = (
"1305 -13 OFFCURVE",
"1310 -8 OFFCURVE",
"1307 -1 CURVE SMOOTH",
"1289 36 OFFCURVE",
"1189 44 OFFCURVE",
"1149 45 CURVE",
"1158 58 OFFCURVE",
"1166 73 OFFCURVE",
"1174 87 CURVE SMOOTH",
"1222 168 OFFCURVE",
"1258 278 OFFCURVE",
"1258 346 CURVE SMOOTH",
"1258 471 OFFCURVE",
"1110 510 OFFCURVE",
"952 510 CURVE SMOOTH",
"629 510 OFFCURVE",
"22 390 OFFCURVE",
"22 115 CURVE SMOOTH",
"22 32 OFFCURVE",
"108 -13 OFFCURVE",
"200 -13 CURVE SMOOTH",
"223 -13 OFFCURVE",
"248 -10 OFFCURVE",
"271 -4 CURVE SMOOTH",
"281 -1 OFFCURVE",
"286 2 OFFCURVE",
"288 4 CURVE SMOOTH",
"291 8 OFFCURVE",
"290 13 OFFCURVE",
"282 15 CURVE SMOOTH",
"274 17 OFFCURVE",
"261 18 OFFCURVE",
"251 16 CURVE SMOOTH",
"239 14 OFFCURVE",
"226 13 OFFCURVE",
"213 13 CURVE SMOOTH",
"142 13 OFFCURVE",
"71 42 OFFCURVE",
"71 109 CURVE SMOOTH",
"71 303 OFFCURVE",
"617 478 OFFCURVE",
"963 478 CURVE SMOOTH",
"1056 478 OFFCURVE",
"1220 468 OFFCURVE",
"1220 360 CURVE SMOOTH",
"1220 292 OFFCURVE",
"1177 199 OFFCURVE",
"1127 112 CURVE SMOOTH",
"1115 90 OFFCURVE",
"1100 67 OFFCURVE",
"1084 44 CURVE",
"888 32 OFFCURVE",
"651 -48 OFFCURVE",
"501 -127 CURVE SMOOTH",
"387 -187 OFFCURVE",
"302 -262 OFFCURVE",
"286 -346 CURVE SMOOTH",
"270 -435 OFFCURVE",
"368 -461 OFFCURVE",
"445 -460 CURVE SMOOTH",
"680 -458 OFFCURVE",
"969 -215 OFFCURVE",
"1130 18 CURVE",
"1148 18 OFFCURVE",
"1165 18 OFFCURVE",
"1182 17 CURVE SMOOTH",
"1233 13 OFFCURVE",
"1278 5 OFFCURVE",
"1287 -11 CURVE",
"1289 -18 OFFCURVE",
"1298 -17 OFFCURVE",
"1301 -15 CURVE SMOOTH"
);
},
{
closed = 1;
nodes = (
"637 -91 OFFCURVE",
"862 -4 OFFCURVE",
"1063 14 CURVE",
"914 -188 OFFCURVE",
"647 -430 OFFCURVE",
"430 -433 CURVE SMOOTH",
"361 -434 OFFCURVE",
"321 -404 OFFCURVE",
"321 -363 CURVE SMOOTH",
"321 -320 OFFCURVE",
"363 -261 OFFCURVE",
"469 -195 CURVE SMOOTH"
);
}
);
width = 1250;
}
);
note = J;
unicode = 004A;
},
{
glyphname = K;
layers = (
{
hints = (
{
horizontal = 1;
place = "{-228, 61}";
type = Stem;
},
{
horizontal = 1;
place = "{-2, 21}";
target = up;
type = BottomGhost;
},
{
horizontal = 1;
place = "{108, 34}";
type = Stem;
},
{
horizontal = 1;
place = "{504, 33}";
type = Stem;
},
{
place = "{6, 35}";
type = Stem;
},
{
place = "{1679, 31}";
type = Stem;
},
{
horizontal = 1;
place = "{562, 32}";
type = Stem;
},
{
place = "{1013, 30}";
type = Stem;
},
{
place = "{1812, 37}";
type = Stem;
}
);
layerId = "A14CB8BB-4075-44A2-8ACC-F29FBF19C8BE";
paths = (
{
closed = 1;
nodes = (
"1845 544 OFFCURVE",
"1849 557 OFFCURVE",
"1849 567 CURVE SMOOTH",
"1849 586 OFFCURVE",
"1833 594 OFFCURVE",
"1814 594 CURVE SMOOTH",
"1803 594 OFFCURVE",
"1792 591 OFFCURVE",
"1780 588 CURVE SMOOTH",
"1564 524 OFFCURVE",
"1143 282 OFFCURVE",
"856 50 CURVE",
"847 57 LINE",
"940 164 OFFCURVE",
"1036 295 OFFCURVE",
"1043 362 CURVE SMOOTH",
"1058 497 OFFCURVE",
"927 537 OFFCURVE",
"773 537 CURVE SMOOTH",
"564 537 OFFCURVE",
"301 465 OFFCURVE",
"246 443 CURVE SMOOTH",
"106 388 OFFCURVE",
"14 319 OFFCURVE",
"6 241 CURVE SMOOTH",
"-2 165 OFFCURVE",
"103 108 OFFCURVE",
"177 108 CURVE SMOOTH",
"195 108 OFFCURVE",
"217 109 OFFCURVE",
"232 115 CURVE SMOOTH",
"241 118 OFFCURVE",
"248 126 OFFCURVE",
"241 134 CURVE SMOOTH",
"237 139 OFFCURVE",
"228 142 OFFCURVE",
"220 141 CURVE SMOOTH",
"203 140 OFFCURVE",
"181 142 OFFCURVE",
"177 142 CURVE SMOOTH",
"117 142 OFFCURVE",
"34 172 OFFCURVE",
"41 223 CURVE SMOOTH",
"49 291 OFFCURVE",
"137 352 OFFCURVE",
"266 406 CURVE SMOOTH",
"325 430 OFFCURVE",
"588 504 OFFCURVE",
"786 504 CURVE SMOOTH",
"897 504 OFFCURVE",
"985 481 OFFCURVE",
"1008 417 CURVE SMOOTH",
"1011 408 OFFCURVE",
"1013 400 OFFCURVE",
"1013 389 CURVE SMOOTH",
"1013 347 OFFCURVE",
"987 298 OFFCURVE",
"953 250 CURVE SMOOTH",
"920 203 OFFCURVE",
"881 160 OFFCURVE",
"857 130 CURVE SMOOTH",
"847 119 OFFCURVE",
"832 101 OFFCURVE",
"815 81 CURVE",
"784 107 OFFCURVE",
"753 134 OFFCURVE",
"724 163 CURVE SMOOTH",
"714 172 OFFCURVE",
"704 173 OFFCURVE",
"696 168 CURVE SMOOTH",
"690 163 OFFCURVE",
"687 152 OFFCURVE",
"695 145 CURVE SMOOTH",
"726 113 OFFCURVE",
"759 83 OFFCURVE",
"793 55 CURVE",
"739 -8 OFFCURVE",
"666 -74 OFFCURVE",
"655 -84 CURVE SMOOTH",
"617 -119 OFFCURVE",
"636 -126 OFFCURVE",
"660 -114 CURVE SMOOTH",
"665 -112 OFFCURVE",
"670 -109 OFFCURVE",
"674 -105 CURVE SMOOTH",
"700 -84 OFFCURVE",
"775 -13 OFFCURVE",
"823 30 CURVE",
"828 26 LINE",
"817 18 OFFCURVE",
"807 9 OFFCURVE",
"797 0 CURVE SMOOTH",
"721 -66 OFFCURVE",
"604 -176 OFFCURVE",
"569 -270 CURVE SMOOTH",
"567 -275 OFFCURVE",
"573 -282 OFFCURVE",
"580 -284 CURVE SMOOTH",
"588 -287 OFFCURVE",
"596 -285 OFFCURVE",
"598 -280 CURVE SMOOTH",
"624 -213 OFFCURVE",
"726 -112 OFFCURVE",
"863 -2 CURVE",
"1045 -136 OFFCURVE",
"1257 -226 OFFCURVE",
"1491 -228 CURVE SMOOTH",
"1571 -228 OFFCURVE",
"1710 -204 OFFCURVE",
"1710 -106 CURVE SMOOTH",
"1710 -92 OFFCURVE",
"1707 -76 OFFCURVE",
"1700 -59 CURVE SMOOTH",
"1694 -41 OFFCURVE",
"1683 -39 OFFCURVE",
"1678 -43 CURVE SMOOTH",
"1672 -48 OFFCURVE",
"1671 -60 OFFCURVE",
"1675 -72 CURVE SMOOTH",
"1702 -150 OFFCURVE",
"1593 -167 OFFCURVE",
"1541 -167 CURVE SMOOTH",
"1305 -167 OFFCURVE",
"1084 -103 OFFCURVE",
"895 23 CURVE",
"1186 253 OFFCURVE",
"1606 508 OFFCURVE",
"1788 558 CURVE SMOOTH",
"1802 562 OFFCURVE",
"1812 566 OFFCURVE",
"1812 557 CURVE SMOOTH",
"1812 552 OFFCURVE",
"1809 542 OFFCURVE",
"1800 524 CURVE SMOOTH",
"1795 514 OFFCURVE",
"1796 509 OFFCURVE",
"1798 507 CURVE SMOOTH",
"1800 504 OFFCURVE",
"1805 503 OFFCURVE",
"1811 507 CURVE SMOOTH",
"1819 512 OFFCURVE",
"1829 522 OFFCURVE",
"1834 529 CURVE SMOOTH"
);
}
);
width = 1350;
}
);
note = K;
unicode = 004B;
},
{
glyphname = L;
layers = (
{
hints = (
{
horizontal = 1;
place = "{-105, 21}";
target = up;
type = BottomGhost;
},
{
horizontal = 1;
place = "{-78, 13}";
type = Stem;
},
{
horizontal = 1;
place = "{-61, 42}";
type = Stem;
},
{
horizontal = 1;
place = "{-31, 24}";
type = Stem;
},
{
place = "{20, 401}";
type = Stem;
}
);
layerId = "A14CB8BB-4075-44A2-8ACC-F29FBF19C8BE";
paths = (
{
closed = 1;
nodes = (
"281 255 OFFCURVE",
"278 256 OFFCURVE",
"274 258 CURVE SMOOTH",
"237 275 OFFCURVE",
"217 305 OFFCURVE",
"222 349 CURVE SMOOTH",
"225 372 OFFCURVE",
"202 374 OFFCURVE",
"198 349 CURVE SMOOTH",
"189 295 OFFCURVE",
"218 256 OFFCURVE",
"261 232 CURVE SMOOTH",
"265 230 OFFCURVE",
"269 228 OFFCURVE",
"273 226 CURVE",
"226 140 LINE",
"184 176 OFFCURVE",
"149 208 OFFCURVE",
"121 231 CURVE SMOOTH",
"93 255 OFFCURVE",
"70 271 OFFCURVE",
"52 271 CURVE SMOOTH",
"33 270 OFFCURVE",
"16 251 OFFCURVE",
"19 201 CURVE SMOOTH",
"22 155 OFFCURVE",
"61 -36 OFFCURVE",
"101 -82 CURVE SMOOTH",
"130 -114 OFFCURVE",
"165 -83 OFFCURVE",
"194 -35 CURVE SMOOTH",
"219 6 OFFCURVE",
"241 57 OFFCURVE",
"252 80 CURVE",
"338 11 OFFCURVE",
"426 -63 OFFCURVE",
"516 -124 CURVE SMOOTH",
"607 -186 OFFCURVE",
"700 -236 OFFCURVE",
"791 -251 CURVE SMOOTH",
"817 -255 OFFCURVE",
"844 -258 OFFCURVE",
"872 -258 CURVE SMOOTH",
"948 -258 OFFCURVE",
"1023 -235 OFFCURVE",
"1023 -154 CURVE SMOOTH",
"1023 -137 OFFCURVE",
"1019 -117 OFFCURVE",
"1012 -95 CURVE SMOOTH",
"1010 -88 OFFCURVE",
"1007 -83 OFFCURVE",
"1004 -79 CURVE SMOOTH",
"1002 -76 OFFCURVE",
"997 -73 OFFCURVE",
"992 -78 CURVE SMOOTH",
"987 -83 OFFCURVE",
"988 -95 OFFCURVE",
"992 -107 CURVE SMOOTH",
"995 -117 OFFCURVE",
"996 -128 OFFCURVE",
"996 -136 CURVE SMOOTH",
"996 -186 OFFCURVE",
"951 -208 OFFCURVE",
"884 -208 CURVE SMOOTH",
"854 -208 OFFCURVE",
"821 -203 OFFCURVE",
"786 -195 CURVE SMOOTH",
"603 -152 OFFCURVE",
"429 -26 OFFCURVE",
"267 108 CURVE",
"283 137 OFFCURVE",
"311 192 OFFCURVE",
"324 219 CURVE",
"490 217 OFFCURVE",
"683 376 OFFCURVE",
"767 487 CURVE SMOOTH",
"795 525 OFFCURVE",
"813 572 OFFCURVE",
"813 613 CURVE SMOOTH",
"813 664 OFFCURVE",
"784 705 OFFCURVE",
"713 705 CURVE SMOOTH",
"523 705 OFFCURVE",
"398 481 OFFCURVE",
"285 253 CURVE"
);
},
{
closed = 1;
nodes = (
"754 665 OFFCURVE",
"770 646 OFFCURVE",
"770 616 CURVE SMOOTH",
"770 570 OFFCURVE",
"733 500 OFFCURVE",
"669 434 CURVE SMOOTH",
"620 384 OFFCURVE",
"489 264 OFFCURVE",
"336 245 CURVE",
"383 348 OFFCURVE",
"561 665 OFFCURVE",
"717 665 CURVE SMOOTH"
);
},
{
closed = 1;
nodes = (
"149 167 OFFCURVE",
"177 142 OFFCURVE",
"212 113 CURVE",
"163 23 OFFCURVE",
"131 -32 OFFCURVE",
"117 -34 CURVE",
"86 5 OFFCURVE",
"61 162 OFFCURVE",
"61 201 CURVE SMOOTH",
"61 216 OFFCURVE",
"67 219 OFFCURVE",
"74 218 CURVE SMOOTH",
"85 217 OFFCURVE",
"102 206 OFFCURVE",
"126 186 CURVE SMOOTH"
);
}
);
width = 493;
}
);
note = L;
unicode = 004C;
},
{
glyphname = M;
layers = (
{
hints = (
{
horizontal = 1;
place = "{-161, 21}";
target = up;
type = BottomGhost;
},
{
horizontal = 1;
place = "{-122, 21}";
target = up;
type = BottomGhost;
},
{
horizontal = 1;
place = "{-14, 14}";
type = Stem;
},
{
horizontal = 1;
place = "{188, 36}";
type = Stem;
},
{
horizontal = 1;
place = "{319, 43}";
type = Stem;
},
{
horizontal = 1;
place = "{516, 22}";
type = Stem;
},
{
place = "{1179, 40}";
type = Stem;
},
{
place = "{1271, 56}";
type = Stem;
},
{
place = "{1365, 58}";
type = Stem;
},
{
place = "{1434, 36}";
type = Stem;
}
);
layerId = "A14CB8BB-4075-44A2-8ACC-F29FBF19C8BE";
paths = (
{
closed = 1;
nodes = (
"1987 220 OFFCURVE",
"1980 222 OFFCURVE",
"1970 214 CURVE SMOOTH",
"1907 163 LINE SMOOTH",
"1852 118 OFFCURVE",
"1792 74 OFFCURVE",
"1737 47 CURVE SMOOTH",
"1719 38 OFFCURVE",
"1700 33 OFFCURVE",
"1683 33 CURVE SMOOTH",
"1666 33 OFFCURVE",
"1652 38 OFFCURVE",
"1644 50 CURVE SMOOTH",
"1605 103 OFFCURVE",
"1624 183 OFFCURVE",
"1599 244 CURVE SMOOTH",
"1587 270 OFFCURVE",
"1560 273 OFFCURVE",
"1537 258 CURVE SMOOTH",
"1527 250 OFFCURVE",
"1495 221 OFFCURVE",
"1464 194 CURVE SMOOTH",
"1448 180 OFFCURVE",
"1433 166 OFFCURVE",
"1421 155 CURVE SMOOTH",
"1415 150 OFFCURVE",
"1410 145 OFFCURVE",
"1405 142 CURVE",
"1416 192 OFFCURVE",
"1483 323 OFFCURVE",
"1506 366 CURVE SMOOTH",
"1513 380 OFFCURVE",
"1517 393 OFFCURVE",
"1517 404 CURVE SMOOTH",
"1517 438 OFFCURVE",
"1484 450 OFFCURVE",
"1443 444 CURVE SMOOTH",
"1375 435 OFFCURVE",
"1286 354 OFFCURVE",
"1207 266 CURVE SMOOTH",
"1149 202 OFFCURVE",
"1095 133 OFFCURVE",
"1057 83 CURVE",
"1066 99 OFFCURVE",
"1076 117 OFFCURVE",
"1088 138 CURVE SMOOTH",
"1118 191 OFFCURVE",
"1153 254 OFFCURVE",
"1182 310 CURVE SMOOTH",
"1217 379 OFFCURVE",
"1245 447 OFFCURVE",
"1245 500 CURVE SMOOTH",
"1245 570 OFFCURVE",
"1199 613 OFFCURVE",
"1083 613 CURVE SMOOTH",
"642 613 OFFCURVE",
"-8 264 OFFCURVE",
"40 33 CURVE SMOOTH",
"52 -24 OFFCURVE",
"104 -44 OFFCURVE",
"161 -44 CURVE SMOOTH",
"194 -44 OFFCURVE",
"228 -39 OFFCURVE",
"260 -28 CURVE SMOOTH",
"268 -25 OFFCURVE",
"277 -17 OFFCURVE",
"267 -10 CURVE SMOOTH",
"261 -6 OFFCURVE",
"252 -5 OFFCURVE",
"243 -7 CURVE SMOOTH",
"217 -13 OFFCURVE",
"185 -21 OFFCURVE",
"155 -21 CURVE SMOOTH",
"121 -21 OFFCURVE",
"92 -10 OFFCURVE",
"86 26 CURVE SMOOTH",
"45 241 OFFCURVE",
"682 586 OFFCURVE",
"1078 586 CURVE SMOOTH",
"1162 586 OFFCURVE",
"1189 551 OFFCURVE",
"1189 501 CURVE SMOOTH",
"1189 453 OFFCURVE",
"1164 391 OFFCURVE",
"1134 331 CURVE SMOOTH",
"1088 240 OFFCURVE",
"1026 134 OFFCURVE",
"974 46 CURVE SMOOTH",
"924 -41 OFFCURVE",
"883 -112 OFFCURVE",
"883 -129 CURVE SMOOTH",
"883 -155 OFFCURVE",
"919 -176 OFFCURVE",
"937 -147 CURVE SMOOTH",
"1040 18 OFFCURVE",
"1242 308 OFFCURVE",
"1407 397 CURVE SMOOTH",
"1420 404 OFFCURVE",
"1429 407 OFFCURVE",
"1435 407 CURVE SMOOTH",
"1445 407 OFFCURVE",
"1450 398 OFFCURVE",
"1450 385 CURVE SMOOTH",
"1450 372 OFFCURVE",
"1446 358 OFFCURVE",
"1442 351 CURVE SMOOTH",
"1408 277 OFFCURVE",
"1337 98 OFFCURVE",
"1337 82 CURVE SMOOTH",
"1337 54 OFFCURVE",
"1361 46 OFFCURVE",
"1376 68 CURVE SMOOTH",
"1388 85 OFFCURVE",
"1485 182 OFFCURVE",
"1521 207 CURVE SMOOTH",
"1535 217 OFFCURVE",
"1541 214 OFFCURVE",
"1545 205 CURVE SMOOTH",
"1562 171 OFFCURVE",
"1560 127 OFFCURVE",
"1569 88 CURVE SMOOTH",
"1573 69 OFFCURVE",
"1577 52 OFFCURVE",
"1582 38 CURVE SMOOTH",
"1594 9 OFFCURVE",
"1613 -9 OFFCURVE",
"1648 -9 CURVE SMOOTH",
"1672 -9 OFFCURVE",
"1703 0 OFFCURVE",
"1744 18 CURVE SMOOTH",
"1805 45 OFFCURVE",
"1869 92 OFFCURVE",
"1927 139 CURVE SMOOTH",
"1955 163 OFFCURVE",
"1975 185 OFFCURVE",
"1984 200 CURVE SMOOTH",
"1989 209 OFFCURVE",
"1990 216 OFFCURVE",
"1989 218 CURVE"
);
}
);
width = 1733;
}
);
note = M;
unicode = 004D;
},
{
glyphname = N;
layers = (
{
hints = (
{
horizontal = 1;
place = "{550, 14}";
type = Stem;
},
{
place = "{45, 41}";
type = Stem;
},
{
place = "{1303, 44}";
type = Stem;
}
);
layerId = "A14CB8BB-4075-44A2-8ACC-F29FBF19C8BE";
paths = (
{
closed = 1;
nodes = (
"1383 488 OFFCURVE",
"1402 503 OFFCURVE",
"1408 518 CURVE SMOOTH",
"1421 558 OFFCURVE",
"1388 584 OFFCURVE",
"1359 586 CURVE SMOOTH",
"1188 600 OFFCURVE",
"1020 360 OFFCURVE",
"933 172 CURVE",
"936 201 OFFCURVE",
"937 230 OFFCURVE",
"937 259 CURVE SMOOTH",
"937 308 OFFCURVE",
"933 357 OFFCURVE",
"922 402 CURVE SMOOTH",
"916 429 OFFCURVE",
"905 452 OFFCURVE",
"892 473 CURVE",
"902 499 LINE SMOOTH",
"905 506 OFFCURVE",
"904 519 OFFCURVE",
"900 526 CURVE SMOOTH",
"897 530 OFFCURVE",
"891 532 OFFCURVE",
"886 528 CURVE SMOOTH",
"882 525 OFFCURVE",
"879 518 OFFCURVE",
"876 509 CURVE SMOOTH",
"873 499 LINE",
"824 553 OFFCURVE",
"749 574 OFFCURVE",
"666 574 CURVE SMOOTH",
"647 574 OFFCURVE",
"627 573 OFFCURVE",
"607 571 CURVE SMOOTH",
"440 554 OFFCURVE",
"280 478 OFFCURVE",
"146 374 CURVE SMOOTH",
"81 324 OFFCURVE",
"14 260 OFFCURVE",
"-2 209 CURVE SMOOTH",
"-6 196 OFFCURVE",
"-2 179 OFFCURVE",
"4 160 CURVE SMOOTH",
"10 143 OFFCURVE",
"28 149 OFFCURVE",
"28 159 CURVE SMOOTH",
"27 196 OFFCURVE",
"89 263 OFFCURVE",
"154 322 CURVE SMOOTH",
"280 435 OFFCURVE",
"435 527 OFFCURVE",
"614 549 CURVE SMOOTH",
"632 551 OFFCURVE",
"649 551 OFFCURVE",
"665 551 CURVE SMOOTH",
"749 551 OFFCURVE",
"819 524 OFFCURVE",
"855 455 CURVE",
"768 259 OFFCURVE",
"525 -19 OFFCURVE",
"385 -95 CURVE SMOOTH",
"339 -119 OFFCURVE",
"285 -138 OFFCURVE",
"227 -138 CURVE SMOOTH",
"211 -138 OFFCURVE",
"194 -137 OFFCURVE",
"178 -134 CURVE SMOOTH",
"117 -122 OFFCURVE",
"72 -89 OFFCURVE",
"50 -33 CURVE",
"46 -19 OFFCURVE",
"38 -13 OFFCURVE",
"33 -14 CURVE SMOOTH",
"29 -14 OFFCURVE",
"23 -22 OFFCURVE",
"29 -39 CURVE SMOOTH",
"52 -101 OFFCURVE",
"107 -138 OFFCURVE",
"168 -156 CURVE SMOOTH",
"192 -163 OFFCURVE",
"217 -165 OFFCURVE",
"242 -165 CURVE SMOOTH",
"305 -165 OFFCURVE",
"371 -149 OFFCURVE",
"421 -125 CURVE SMOOTH",
"575 -52 OFFCURVE",
"765 199 OFFCURVE",
"869 420 CURVE",
"872 408 OFFCURVE",
"876 396 OFFCURVE",
"878 383 CURVE SMOOTH",
"883 351 OFFCURVE",
"885 316 OFFCURVE",
"885 281 CURVE SMOOTH",
"885 167 OFFCURVE",
"863 47 OFFCURVE",
"844 -26 CURVE SMOOTH",
"841 -39 OFFCURVE",
"848 -44 OFFCURVE",
"857 -45 CURVE",
"852 -68 OFFCURVE",
"850 -91 OFFCURVE",
"853 -110 CURVE SMOOTH",
"855 -125 OFFCURVE",
"877 -127 OFFCURVE",
"878 -106 CURVE SMOOTH",
"878 -85 OFFCURVE",
"881 -61 OFFCURVE",
"886 -35 CURVE",
"894 -30 OFFCURVE",
"901 -23 OFFCURVE",
"902 -16 CURVE SMOOTH",
"908 12 OFFCURVE",
"915 42 OFFCURVE",
"921 75 CURVE",
"927 90 OFFCURVE",
"933 105 OFFCURVE",
"940 119 CURVE SMOOTH",
"1015 278 OFFCURVE",
"1215 553 OFFCURVE",
"1343 549 CURVE SMOOTH",
"1368 549 OFFCURVE",
"1392 549 OFFCURVE",
"1388 523 CURVE SMOOTH"
);
}
);
width = 993;
}
);
note = N;
unicode = 004E;
},
{
glyphname = O;
layers = (
{
hints = (
{
horizontal = 1;
place = "{-50, 28}";
type = Stem;
},
{
horizontal = 1;
place = "{492, 31}";
type = Stem;
},
{
horizontal = 1;
place = "{625, 32}";
type = Stem;
},
{
place = "{-5, 53}";
type = Stem;
},
{
place = "{474, 40}";
type = Stem;
},
{
place = "{1146, 63}";
type = Stem;
}
);
layerId = "A14CB8BB-4075-44A2-8ACC-F29FBF19C8BE";
paths = (
{
closed = 1;
nodes = (
"1033 441 OFFCURVE",
"1053 454 OFFCURVE",
"1060 476 CURVE SMOOTH",
"1070 507 OFFCURVE",
"1036 521 OFFCURVE",
"1007 523 CURVE SMOOTH",
"866 534 OFFCURVE",
"692 437 OFFCURVE",
"605 355 CURVE SMOOTH",
"520 276 OFFCURVE",
"474 178 OFFCURVE",
"474 97 CURVE SMOOTH",
"474 13 OFFCURVE",
"525 -50 OFFCURVE",
"634 -50 CURVE SMOOTH",
"851 -50 OFFCURVE",
"1209 157 OFFCURVE",
"1209 410 CURVE SMOOTH",
"1209 631 OFFCURVE",
"877 657 OFFCURVE",
"712 657 CURVE SMOOTH",
"379 657 OFFCURVE",
"1 509 OFFCURVE",
"-5 285 CURVE SMOOTH",
"-7 221 OFFCURVE",
"48 159 OFFCURVE",
"140 135 CURVE SMOOTH",
"161 129 OFFCURVE",
"183 127 OFFCURVE",
"205 127 CURVE SMOOTH",
"215 127 OFFCURVE",
"226 128 OFFCURVE",
"236 129 CURVE SMOOTH",
"241 130 OFFCURVE",
"245 131 OFFCURVE",
"248 133 CURVE SMOOTH",
"250 134 OFFCURVE",
"254 139 OFFCURVE",
"250 143 CURVE SMOOTH",
"248 146 OFFCURVE",
"240 149 OFFCURVE",
"228 148 CURVE SMOOTH",
"207 147 OFFCURVE",
"160 157 OFFCURVE",
"134 165 CURVE SMOOTH",
"65 186 OFFCURVE",
"48 234 OFFCURVE",
"48 282 CURVE SMOOTH",
"48 507 OFFCURVE",
"415 625 OFFCURVE",
"710 625 CURVE SMOOTH",
"938 625 OFFCURVE",
"1146 569 OFFCURVE",
"1146 405 CURVE SMOOTH",
"1146 171 OFFCURVE",
"780 -22 OFFCURVE",
"633 -22 CURVE SMOOTH",
"562 -22 OFFCURVE",
"514 14 OFFCURVE",
"514 80 CURVE SMOOTH",
"514 134 OFFCURVE",
"545 209 OFFCURVE",
"627 302 CURVE SMOOTH",
"702 388 OFFCURVE",
"874 500 OFFCURVE",
"986 492 CURVE SMOOTH",
"1024 490 OFFCURVE",
"1027 477 OFFCURVE",
"1014 455 CURVE",
"1002 441 LINE SMOOTH",
"993 428 OFFCURVE",
"1009 425 OFFCURVE",
"1014 429 CURVE SMOOTH"
);
}
);
width = 1089;
}
);
note = O;
unicode = 004F;
},
{
glyphname = P;
layers = (
{
hints = (
{
horizontal = 1;
place = "{-22, 21}";
target = up;
type = BottomGhost;
},
{
horizontal = 1;
place = "{153, 24}";
type = Stem;
},
{
horizontal = 1;
place = "{241, 26}";
type = Stem;
},
{
horizontal = 1;
place = "{558, 28}";
type = Stem;
},
{
place = "{66, 45}";
type = Stem;
},
{
place = "{849, 38}";
type = Stem;
},
{
place = "{1526, 78}";
type = Stem;
},
{
horizontal = 1;
place = "{270, -20}";
target = down;
type = TopGhost;
}
);
layerId = "A14CB8BB-4075-44A2-8ACC-F29FBF19C8BE";
paths = (
{
closed = 1;
nodes = (
"1152 394 OFFCURVE",
"1158 400 OFFCURVE",
"1158 411 CURVE SMOOTH",
"1158 427 OFFCURVE",
"1134 445 OFFCURVE",
"1117 445 CURVE SMOOTH",
"1071 445 OFFCURVE",
"1004 360 OFFCURVE",
"943 269 CURVE SMOOTH",
"892 192 OFFCURVE",
"849 100 OFFCURVE",
"849 44 CURVE SMOOTH",
"849 8 OFFCURVE",
"862 -19 OFFCURVE",
"893 -22 CURVE SMOOTH",
"912 -24 OFFCURVE",
"911 -2 OFFCURVE",
"900 3 CURVE SMOOTH",
"889 8 OFFCURVE",
"887 22 OFFCURVE",
"887 35 CURVE SMOOTH",
"887 121 OFFCURVE",
"1059 342 OFFCURVE",
"1147 392 CURVE"
);
},
{
closed = 1;
nodes = (
"1564 362 OFFCURVE",
"1604 400 OFFCURVE",
"1604 436 CURVE SMOOTH",
"1604 523 OFFCURVE",
"1375 576 OFFCURVE",
"1174 583 CURVE SMOOTH",
"1126 585 OFFCURVE",
"1078 586 OFFCURVE",
"1032 586 CURVE SMOOTH",
"519 586 OFFCURVE",
"51 479 OFFCURVE",
"66 263 CURVE SMOOTH",
"72 172 OFFCURVE",
"185 147 OFFCURVE",
"275 153 CURVE SMOOTH",
"284 154 OFFCURVE",
"294 160 OFFCURVE",
"284 169 CURVE SMOOTH",
"280 173 OFFCURVE",
"271 177 OFFCURVE",
"262 177 CURVE SMOOTH",
"230 177 OFFCURVE",
"195 178 OFFCURVE",
"165 187 CURVE SMOOTH",
"135 196 OFFCURVE",
"113 213 OFFCURVE",
"111 247 CURVE SMOOTH",
"99 451 OFFCURVE",
"609 558 OFFCURVE",
"1056 558 CURVE SMOOTH",
"1102 558 OFFCURVE",
"1148 557 OFFCURVE",
"1192 555 CURVE SMOOTH",
"1326 548 OFFCURVE",
"1526 511 OFFCURVE",
"1526 444 CURVE SMOOTH",
"1526 422 OFFCURVE",
"1502 392 OFFCURVE",
"1438 356 CURVE SMOOTH",
"1334 299 OFFCURVE",
"1193 267 OFFCURVE",
"1092 267 CURVE SMOOTH",
"1076 267 OFFCURVE",
"1060 268 OFFCURVE",
"1046 270 CURVE SMOOTH",
"1037 271 OFFCURVE",
"1015 264 OFFCURVE",
"1015 252 CURVE SMOOTH",
"1015 247 OFFCURVE",
"1025 239 OFFCURVE",
"1062 241 CURVE SMOOTH",
"1199 246 OFFCURVE",
"1363 270 OFFCURVE",
"1476 322 CURVE SMOOTH"
);
}
);
width = 1307;
}
);
note = P;
unicode = 0050;
},
{
glyphname = Q;
layers = (
{
hints = (
{
horizontal = 1;
place = "{-276, 47}";
type = Stem;
},
{
horizontal = 1;
place = "{-84, 30}";
type = Stem;
},
{
horizontal = 1;
place = "{246, 19}";
type = Stem;
},
{
horizontal = 1;
place = "{481, 30}";
type = Stem;
},
{
horizontal = 1;
place = "{640, 29}";
type = Stem;
},
{
place = "{147, 41}";
type = Stem;
},
{
place = "{825, 34}";
type = Stem;
},
{
place = "{1020, 58}";
type = Stem;
},
{
place = "{1093, 35}";
type = Stem;
},
{
horizontal = 1;
place = "{161, 53}";
type = Stem;
}
);
layerId = "A14CB8BB-4075-44A2-8ACC-F29FBF19C8BE";
paths = (
{
closed = 1;
nodes = (
"1023 -276 OFFCURVE",
"1128 -257 OFFCURVE",
"1128 -156 CURVE SMOOTH",
"1128 -128 OFFCURVE",
"1119 -82 OFFCURVE",
"1086 -58 CURVE SMOOTH",
"1080 -53 OFFCURVE",
"1072 -51 OFFCURVE",
"1067 -52 CURVE SMOOTH",
"1057 -54 OFFCURVE",
"1060 -63 OFFCURVE",
"1064 -68 CURVE SMOOTH",
"1082 -93 OFFCURVE",
"1093 -123 OFFCURVE",
"1093 -157 CURVE SMOOTH",
"1093 -213 OFFCURVE",
"1041 -229 OFFCURVE",
"987 -229 CURVE SMOOTH",
"965 -229 OFFCURVE",
"943 -226 OFFCURVE",
"928 -223 CURVE SMOOTH",
"824 -202 OFFCURVE",
"716 -163 OFFCURVE",
"573 -76 CURVE",
"705 -47 OFFCURVE",
"865 48 OFFCURVE",
"972 179 CURVE SMOOTH",
"1046 269 OFFCURVE",
"1078 347 OFFCURVE",
"1078 413 CURVE SMOOTH",
"1078 568 OFFCURVE",
"899 649 OFFCURVE",
"681 666 CURVE SMOOTH",
"657 668 OFFCURVE",
"632 669 OFFCURVE",
"607 669 CURVE SMOOTH",
"340 669 OFFCURVE",
"49 570 OFFCURVE",
"19 396 CURVE SMOOTH",
"10 341 OFFCURVE",
"49 283 OFFCURVE",
"124 258 CURVE SMOOTH",
"150 249 OFFCURVE",
"178 244 OFFCURVE",
"207 246 CURVE",
"211 247 OFFCURVE",
"215 248 OFFCURVE",
"218 249 CURVE SMOOTH",
"220 250 OFFCURVE",
"225 253 OFFCURVE",
"222 259 CURVE",
"220 261 OFFCURVE",
"214 265 OFFCURVE",
"203 265 CURVE",
"128 280 OFFCURVE",
"65 328 OFFCURVE",
"75 394 CURVE SMOOTH",
"101 560 OFFCURVE",
"363 640 OFFCURVE",
"602 640 CURVE SMOOTH",
"627 640 OFFCURVE",
"652 639 OFFCURVE",
"677 637 CURVE SMOOTH",
"898 621 OFFCURVE",
"1020 542 OFFCURVE",
"1020 420 CURVE SMOOTH",
"1020 360 OFFCURVE",
"991 289 OFFCURVE",
"929 208 CURVE SMOOTH",
"822 68 OFFCURVE",
"653 -27 OFFCURVE",
"531 -49 CURVE",
"503 -31 OFFCURVE",
"475 -10 OFFCURVE",
"447 10 CURVE SMOOTH",
"421 28 OFFCURVE",
"398 47 OFFCURVE",
"377 64 CURVE",
"388 121 OFFCURVE",
"425 197 OFFCURVE",
"496 290 CURVE SMOOTH",
"566 383 OFFCURVE",
"704 481 OFFCURVE",
"797 481 CURVE SMOOTH",
"827 481 OFFCURVE",
"831 469 OFFCURVE",
"820 449 CURVE SMOOTH",
"812 435 LINE SMOOTH",
"804 420 OFFCURVE",
"819 420 OFFCURVE",
"824 425 CURVE SMOOTH",
"839 438 OFFCURVE",
"855 450 OFFCURVE",
"859 471 CURVE SMOOTH",
"865 500 OFFCURVE",
"836 511 OFFCURVE",
"812 511 CURVE SMOOTH",
"696 512 OFFCURVE",
"564 444 OFFCURVE",
"482 355 CURVE SMOOTH",
"410 276 OFFCURVE",
"355 179 OFFCURVE",
"340 97 CURVE",
"302 129 OFFCURVE",
"270 158 OFFCURVE",
"245 178 CURVE SMOOTH",
"219 200 OFFCURVE",
"197 214 OFFCURVE",
"179 214 CURVE SMOOTH",
"161 213 OFFCURVE",
"144 194 OFFCURVE",
"147 144 CURVE SMOOTH",
"150 96 OFFCURVE",
"186 15 OFFCURVE",
"226 -4 CURVE SMOOTH",
"242 -12 OFFCURVE",
"251 5 OFFCURVE",
"236 11 CURVE",
"207 26 OFFCURVE",
"188 103 OFFCURVE",
"188 145 CURVE SMOOTH",
"188 159 OFFCURVE",
"194 162 OFFCURVE",
"202 161 CURVE SMOOTH",
"213 160 OFFCURVE",
"229 151 OFFCURVE",
"253 134 CURVE SMOOTH",
"275 117 OFFCURVE",
"303 94 OFFCURVE",
"336 67 CURVE",
"329 -19 OFFCURVE",
"374 -84 OFFCURVE",
"498 -84 CURVE SMOOTH",
"507 -84 OFFCURVE",
"518 -83 OFFCURVE",
"528 -82 CURVE",
"586 -124 OFFCURVE",
"644 -167 OFFCURVE",
"705 -202 CURVE SMOOTH",
"767 -238 OFFCURVE",
"833 -265 OFFCURVE",
"903 -273 CURVE SMOOTH",
"916 -274 OFFCURVE",
"934 -276 OFFCURVE",
"952 -276 CURVE SMOOTH"
);
},
{
closed = 1;
nodes = (
"490 -54 LINE",
"487 -54 OFFCURVE",
"485 -54 OFFCURVE",
"483 -54 CURVE SMOOTH",
"409 -54 OFFCURVE",
"373 -23 OFFCURVE",
"374 36 CURVE",
"438 -15 LINE"
);
}
);
width = 936;
}
);
note = Q;
unicode = 0051;
},
{
glyphname = R;
layers = (
{
hints = (
{
horizontal = 1;
place = "{-129, 33}";
type = Stem;
},
{
horizontal = 1;
place = "{46, 24}";
type = Stem;
},
{
horizontal = 1;
place = "{239, 20}";
type = Stem;
},
{
horizontal = 1;
place = "{295, 43}";
type = Stem;
},
{
horizontal = 1;
place = "{517, 25}";
type = Stem;
},
{
place = "{7, 34}";
type = Stem;
},
{
place = "{791, 26}";
type = Stem;
},
{
place = "{824, 25}";
type = Stem;
},
{
place = "{1038, 34}";
type = Stem;
},
{
place = "{1584, 33}";
type = Stem;
},
{
place = "{1756, 43}";
type = Stem;
}
);
layerId = "A14CB8BB-4075-44A2-8ACC-F29FBF19C8BE";
paths = (
{
closed = 1;
nodes = (
"618 553 OFFCURVE",
"52 406 OFFCURVE",
"57 172 CURVE SMOOTH",
"59 96 OFFCURVE",
"139 69 OFFCURVE",
"217 69 CURVE SMOOTH",
"232 69 OFFCURVE",
"246 70 OFFCURVE",
"262 72 CURVE SMOOTH",
"271 73 OFFCURVE",
"280 80 OFFCURVE",
"271 88 CURVE",
"267 93 OFFCURVE",
"258 96 OFFCURVE",
"249 96 CURVE SMOOTH",
"237 95 OFFCURVE",
"224 95 OFFCURVE",
"211 95 CURVE SMOOTH",
"155 95 OFFCURVE",
"101 104 OFFCURVE",
"101 157 CURVE SMOOTH",
"101 380 OFFCURVE",
"709 520 OFFCURVE",
"1173 525 CURVE",
"1132 436 OFFCURVE",
"1059 331 OFFCURVE",
"980 236 CURVE",
"921 304 OFFCURVE",
"873 353 OFFCURVE",
"846 352 CURVE SMOOTH",
"830 352 OFFCURVE",
"798 347 OFFCURVE",
"801 294 CURVE SMOOTH",
"804 244 OFFCURVE",
"840 211 OFFCURVE",
"876 195 CURVE SMOOTH",
"892 187 OFFCURVE",
"900 204 OFFCURVE",
"888 211 CURVE SMOOTH",
"858 225 OFFCURVE",
"843 255 OFFCURVE",
"843 294 CURVE SMOOTH",
"843 308 OFFCURVE",
"849 311 OFFCURVE",
"856 311 CURVE SMOOTH",
"872 310 OFFCURVE",
"916 269 OFFCURVE",
"963 217 CURVE",
"874 112 OFFCURVE",
"776 22 OFFCURVE",
"706 -16 CURVE SMOOTH",
"660 -41 OFFCURVE",
"606 -60 OFFCURVE",
"548 -60 CURVE SMOOTH",
"532 -60 OFFCURVE",
"515 -58 OFFCURVE",
"498 -55 CURVE SMOOTH",
"437 -43 OFFCURVE",
"392 -11 OFFCURVE",
"371 46 CURVE SMOOTH",
"367 60 OFFCURVE",
"359 66 OFFCURVE",
"355 65 CURVE",
"350 65 OFFCURVE",
"344 57 OFFCURVE",
"350 40 CURVE SMOOTH",
"379 -57 OFFCURVE",
"477 -95 OFFCURVE",
"575 -95 CURVE SMOOTH",
"630 -95 OFFCURVE",
"687 -84 OFFCURVE",
"733 -62 CURVE SMOOTH",
"816 -23 OFFCURVE",
"910 70 OFFCURVE",
"995 182 CURVE",
"1113 53 OFFCURVE",
"1359 -165 OFFCURVE",
"1623 -179 CURVE SMOOTH",
"1633 -180 OFFCURVE",
"1645 -180 OFFCURVE",
"1659 -180 CURVE SMOOTH",
"1738 -180 OFFCURVE",
"1872 -165 OFFCURVE",
"1872 -82 CURVE SMOOTH",
"1872 -69 OFFCURVE",
"1868 -57 OFFCURVE",
"1863 -42 CURVE SMOOTH",
"1857 -26 OFFCURVE",
"1847 -25 OFFCURVE",
"1843 -29 CURVE SMOOTH",
"1838 -34 OFFCURVE",
"1838 -44 OFFCURVE",
"1841 -54 CURVE SMOOTH",
"1862 -113 OFFCURVE",
"1813 -140 OFFCURVE",
"1717 -140 CURVE SMOOTH",
"1687 -140 OFFCURVE",
"1654 -136 OFFCURVE",
"1618 -132 CURVE SMOOTH",
"1464 -111 OFFCURVE",
"1153 38 OFFCURVE",
"1010 200 CURVE",
"1013 205 LINE",
"1162 206 OFFCURVE",
"1348 242 OFFCURVE",
"1476 306 CURVE SMOOTH",
"1568 353 OFFCURVE",
"1609 394 OFFCURVE",
"1609 431 CURVE SMOOTH",
"1609 513 OFFCURVE",
"1405 553 OFFCURVE",
"1214 554 CURVE",
"1218 562 OFFCURVE",
"1221 570 OFFCURVE",
"1224 578 CURVE SMOOTH",
"1227 586 OFFCURVE",
"1226 599 OFFCURVE",
"1222 605 CURVE SMOOTH",
"1219 609 OFFCURVE",
"1214 611 OFFCURVE",
"1209 607 CURVE SMOOTH",
"1205 604 OFFCURVE",
"1202 597 OFFCURVE",
"1185 554 CURVE"
);
},
{
closed = 1;
nodes = (
"1338 526 OFFCURVE",
"1533 501 OFFCURVE",
"1533 435 CURVE SMOOTH",
"1533 412 OFFCURVE",
"1508 380 OFFCURVE",
"1439 340 CURVE SMOOTH",
"1324 273 OFFCURVE",
"1176 223 OFFCURVE",
"1033 232 CURVE",
"1101 327 OFFCURVE",
"1159 430 OFFCURVE",
"1202 526 CURVE"
);
}
);
width = 1364;
}
);
note = R;
unicode = 0052;
},
{
glyphname = S;
layers = (
{
hints = (
{
horizontal = 1;
place = "{-131, 49}";
type = Stem;
},
{
horizontal = 1;
place = "{91, 35}";
type = Stem;
},
{
horizontal = 1;
place = "{357, 31}";
type = Stem;
},
{
horizontal = 1;
place = "{594, 51}";
type = Stem;
},
{
place = "{238, 34}";
type = Stem;
},
{
place = "{351, 56}";
type = Stem;
},
{
place = "{867, 33}";
type = Stem;
}
);
layerId = "A14CB8BB-4075-44A2-8ACC-F29FBF19C8BE";
paths = (
{
closed = 1;
nodes = (
"755 357 OFFCURVE",
"900 414 OFFCURVE",
"900 490 CURVE SMOOTH",
"900 595 OFFCURVE",
"739 645 OFFCURVE",
"584 645 CURVE SMOOTH",
"446 645 OFFCURVE",
"245 594 OFFCURVE",
"238 444 CURVE SMOOTH",
"234 361 OFFCURVE",
"267 265 OFFCURVE",
"297 179 CURVE SMOOTH",
"302 161 OFFCURVE",
"307 143 OFFCURVE",
"315 126 CURVE",
"202 128 OFFCURVE",
"100 137 OFFCURVE",
"42 144 CURVE",
"36 158 OFFCURVE",
"22 175 OFFCURVE",
"-6 181 CURVE SMOOTH",
"-19 184 OFFCURVE",
"-29 185 OFFCURVE",
"-37 185 CURVE SMOOTH",
"-62 185 OFFCURVE",
"-69 174 OFFCURVE",
"-69 159 CURVE SMOOTH",
"-67 133 OFFCURVE",
"-18 114 OFFCURVE",
"31 106 CURVE",
"59 -16 OFFCURVE",
"176 -131 OFFCURVE",
"320 -131 CURVE SMOOTH",
"385 -131 OFFCURVE",
"407 -100 OFFCURVE",
"407 -58 CURVE SMOOTH",
"407 -11 OFFCURVE",
"380 49 OFFCURVE",
"360 91 CURVE",
"530 96 OFFCURVE",
"700 117 OFFCURVE",
"765 162 CURVE SMOOTH",
"770 166 OFFCURVE",
"775 171 OFFCURVE",
"776 176 CURVE SMOOTH",
"780 187 OFFCURVE",
"770 188 OFFCURVE",
"763 184 CURVE SMOOTH",
"673 139 OFFCURVE",
"521 126 OFFCURVE",
"345 126 CURVE",
"337 149 OFFCURVE",
"328 168 OFFCURVE",
"323 182 CURVE SMOOTH",
"297 249 OFFCURVE",
"272 323 OFFCURVE",
"272 396 CURVE SMOOTH",
"272 437 OFFCURVE",
"274 594 OFFCURVE",
"590 594 CURVE SMOOTH",
"702 594 OFFCURVE",
"867 570 OFFCURVE",
"867 487 CURVE SMOOTH",
"867 430 OFFCURVE",
"755 388 OFFCURVE",
"680 388 CURVE SMOOTH",
"657 388 OFFCURVE",
"657 357 OFFCURVE",
"680 357 CURVE SMOOTH"
);
},
{
closed = 1;
nodes = (
"342 46 OFFCURVE",
"352 1 OFFCURVE",
"351 -34 CURVE SMOOTH",
"349 -70 OFFCURVE",
"323 -87 OFFCURVE",
"279 -82 CURVE SMOOTH",
"209 -74 OFFCURVE",
"112 -23 OFFCURVE",
"56 105 CURVE",
"129 94 OFFCURVE",
"226 89 OFFCURVE",
"327 90 CURVE"
);
}
);
width = 547;
}
);
note = S;
unicode = 0053;
},
{
glyphname = T;
layers = (
{
hints = (
{
horizontal = 1;
place = "{-172, 29}";
type = Stem;
},
{
horizontal = 1;
place = "{197, 15}";
type = Stem;
},
{
horizontal = 1;
place = "{539, 29}";
type = Stem;
},
{
place = "{13, 39}";
type = Stem;
},
{
place = "{907, 13}";
type = Stem;
},
{
horizontal = 1;
place = "{532, 24}";
type = Stem;
}
);
layerId = "A14CB8BB-4075-44A2-8ACC-F29FBF19C8BE";
paths = (
{
closed = 1;
nodes = (
"920 566 OFFCURVE",
"923 580 OFFCURVE",
"916 590 CURVE SMOOTH",
"913 594 OFFCURVE",
"908 597 OFFCURVE",
"903 592 CURVE SMOOTH",
"899 589 OFFCURVE",
"896 582 OFFCURVE",
"888 560 CURVE",
"828 565 OFFCURVE",
"758 568 OFFCURVE",
"683 568 CURVE SMOOTH",
"386 568 OFFCURVE",
"8 517 OFFCURVE",
"13 332 CURVE SMOOTH",
"14 262 OFFCURVE",
"118 212 OFFCURVE",
"204 202 CURVE SMOOTH",
"212 201 OFFCURVE",
"233 199 OFFCURVE",
"255 197 CURVE SMOOTH",
"277 195 OFFCURVE",
"301 194 OFFCURVE",
"316 196 CURVE SMOOTH",
"322 197 OFFCURVE",
"326 198 OFFCURVE",
"329 201 CURVE SMOOTH",
"333 205 OFFCURVE",
"331 210 OFFCURVE",
"328 212 CURVE SMOOTH",
"324 216 OFFCURVE",
"314 219 OFFCURVE",
"304 220 CURVE SMOOTH",
"191 228 OFFCURVE",
"54 267 OFFCURVE",
"52 330 CURVE SMOOTH",
"48 480 OFFCURVE",
"464 539 OFFCURVE",
"767 539 CURVE SMOOTH",
"807 539 OFFCURVE",
"845 538 OFFCURVE",
"879 536 CURVE",
"796 334 OFFCURVE",
"519 -7 OFFCURVE",
"365 -94 CURVE SMOOTH",
"315 -121 OFFCURVE",
"257 -143 OFFCURVE",
"195 -143 CURVE SMOOTH",
"178 -143 OFFCURVE",
"160 -141 OFFCURVE",
"142 -138 CURVE SMOOTH",
"77 -126 OFFCURVE",
"29 -89 OFFCURVE",
"6 -25 CURVE",
"2 -10 OFFCURVE",
"-7 -3 OFFCURVE",
"-12 -4 CURVE SMOOTH",
"-17 -4 OFFCURVE",
"-24 -13 OFFCURVE",
"-17 -32 CURVE SMOOTH",
"8 -100 OFFCURVE",
"67 -142 OFFCURVE",
"132 -162 CURVE SMOOTH",
"157 -169 OFFCURVE",
"183 -172 OFFCURVE",
"210 -172 CURVE SMOOTH",
"278 -172 OFFCURVE",
"349 -154 OFFCURVE",
"403 -127 CURVE SMOOTH",
"580 -40 OFFCURVE",
"808 298 OFFCURVE",
"907 534 CURVE",
"947 531 LINE SMOOTH",
"1074 519 OFFCURVE",
"1240 481 OFFCURVE",
"1261 374 CURVE SMOOTH",
"1267 348 OFFCURVE",
"1281 346 OFFCURVE",
"1289 356 CURVE SMOOTH",
"1297 366 OFFCURVE",
"1301 387 OFFCURVE",
"1295 413 CURVE SMOOTH",
"1280 482 OFFCURVE",
"1124 535 OFFCURVE",
"928 556 CURVE SMOOTH",
"924 556 OFFCURVE",
"920 557 OFFCURVE",
"916 557 CURVE"
);
}
);
width = 763;
}
);
note = T;
unicode = 0054;
},
{
glyphname = U;
layers = (
{
hints = (
{
horizontal = 1;
place = "{-161, 21}";
target = up;
type = BottomGhost;
},
{
horizontal = 1;
place = "{-122, 21}";
target = up;
type = BottomGhost;
},
{
horizontal = 1;
place = "{-14, 14}";
type = Stem;
},
{
horizontal = 1;
place = "{188, 36}";
type = Stem;
},
{
horizontal = 1;
place = "{319, 43}";
type = Stem;
},
{
horizontal = 1;
place = "{516, 22}";
type = Stem;
},
{
place = "{14, 28}";
type = Stem;
},
{
place = "{256, 26}";
type = Stem;
},
{
place = "{1179, 40}";
type = Stem;
},
{
place = "{1271, 56}";
type = Stem;
},
{
place = "{1365, 58}";
type = Stem;
},
{
place = "{1434, 36}";
type = Stem;
},
{
horizontal = 1;
place = "{-12, 16}";
type = Stem;
}
);
layerId = "A14CB8BB-4075-44A2-8ACC-F29FBF19C8BE";
paths = (
{
closed = 1;
nodes = (
"1294 383 OFFCURVE",
"1322 417 OFFCURVE",
"1331 435 CURVE SMOOTH",
"1339 450 OFFCURVE",
"1297 470 OFFCURVE",
"1282 470 CURVE SMOOTH",
"1263 470 OFFCURVE",
"1250 461 OFFCURVE",
"1238 446 CURVE SMOOTH",
"1232 438 OFFCURVE",
"1226 430 OFFCURVE",
"1219 420 CURVE SMOOTH",
"1213 410 OFFCURVE",
"1207 399 OFFCURVE",
"1199 387 CURVE SMOOTH",
"1121 265 OFFCURVE",
"993 146 OFFCURVE",
"954 113 CURVE SMOOTH",
"884 54 OFFCURVE",
"824 20 OFFCURVE",
"795 20 CURVE SMOOTH",
"784 20 OFFCURVE",
"778 25 OFFCURVE",
"778 37 CURVE SMOOTH",
"778 57 OFFCURVE",
"794 94 OFFCURVE",
"831 152 CURVE SMOOTH",
"856 190 OFFCURVE",
"902 246 OFFCURVE",
"945 303 CURVE SMOOTH",
"988 361 OFFCURVE",
"1030 420 OFFCURVE",
"1047 464 CURVE SMOOTH",
"1052 478 OFFCURVE",
"1054 490 OFFCURVE",
"1054 502 CURVE SMOOTH",
"1054 571 OFFCURVE",
"977 606 OFFCURVE",
"857 606 CURVE SMOOTH",
"443 606 OFFCURVE",
"-9 271 OFFCURVE",
"31 45 CURVE SMOOTH",
"41 -12 OFFCURVE",
"85 -31 OFFCURVE",
"134 -31 CURVE SMOOTH",
"161 -31 OFFCURVE",
"190 -25 OFFCURVE",
"216 -16 CURVE",
"224 -12 OFFCURVE",
"231 -4 OFFCURVE",
"223 2 CURVE SMOOTH",
"218 6 OFFCURVE",
"209 7 OFFCURVE",
"201 5 CURVE SMOOTH",
"191 2 OFFCURVE",
"178 -1 OFFCURVE",
"166 -4 CURVE SMOOTH",
"153 -6 OFFCURVE",
"141 -8 OFFCURVE",
"129 -8 CURVE SMOOTH",
"102 -8 OFFCURVE",
"80 1 OFFCURVE",
"75 37 CURVE SMOOTH",
"41 250 OFFCURVE",
"469 580 OFFCURVE",
"855 580 CURVE SMOOTH",
"955 580 OFFCURVE",
"988 546 OFFCURVE",
"988 499 CURVE SMOOTH",
"988 448 OFFCURVE",
"948 378 OFFCURVE",
"901 312 CURVE SMOOTH",
"853 246 OFFCURVE",
"800 185 OFFCURVE",
"775 153 CURVE SMOOTH",
"735 101 OFFCURVE",
"718 61 OFFCURVE",
"718 34 CURVE SMOOTH",
"718 0 OFFCURVE",
"743 -13 OFFCURVE",
"775 -13 CURVE SMOOTH",
"810 -13 OFFCURVE",
"856 3 OFFCURVE",
"896 32 CURVE SMOOTH",
"982 93 OFFCURVE",
"1088 204 OFFCURVE",
"1150 276 CURVE",
"1148 270 LINE SMOOTH",
"1113 190 OFFCURVE",
"1076 77 OFFCURVE",
"1083 -12 CURVE SMOOTH",
"1086 -49 OFFCURVE",
"1101 -108 OFFCURVE",
"1166 -107 CURVE SMOOTH",
"1206 -107 OFFCURVE",
"1235 -92 OFFCURVE",
"1267 -73 CURVE SMOOTH",
"1281 -64 OFFCURVE",
"1284 -56 OFFCURVE",
"1283 -52 CURVE SMOOTH",
"1281 -48 OFFCURVE",
"1273 -45 OFFCURVE",
"1263 -52 CURVE SMOOTH",
"1250 -61 OFFCURVE",
"1223 -73 OFFCURVE",
"1180 -78 CURVE SMOOTH",
"1131 -85 OFFCURVE",
"1119 -55 OFFCURVE",
"1119 -18 CURVE SMOOTH",
"1119 -3 OFFCURVE",
"1121 13 OFFCURVE",
"1124 28 CURVE SMOOTH",
"1127 42 OFFCURVE",
"1130 55 OFFCURVE",
"1131 63 CURVE SMOOTH",
"1155 180 OFFCURVE",
"1214 304 OFFCURVE",
"1281 377 CURVE"
);
}
);
width = 1248;
}
);
note = U;
unicode = 0055;
},
{
glyphname = V;
layers = (
{
hints = (
{
horizontal = 1;
place = "{-124, 21}";
target = up;
type = BottomGhost;
},
{
horizontal = 1;
place = "{-17, 21}";
target = up;
type = BottomGhost;
},
{
horizontal = 1;
place = "{120, 25}";
type = Stem;
},
{
horizontal = 1;
place = "{171, 28}";
type = Stem;
},
{
horizontal = 1;
place = "{253, 15}";
type = Stem;
},
{
horizontal = 1;
place = "{514, 23}";
type = Stem;
},
{
place = "{16, 32}";
type = Stem;
},
{
place = "{1248, 22}";
type = Stem;
},
{
place = "{48, 41}";
type = Stem;
}
);
layerId = "A14CB8BB-4075-44A2-8ACC-F29FBF19C8BE";
paths = (
{
closed = 1;
nodes = (
"1574 487 OFFCURVE",
"1578 492 OFFCURVE",
"1580 496 CURVE SMOOTH",
"1596 525 OFFCURVE",
"1571 550 OFFCURVE",
"1545 546 CURVE",
"1400 545 OFFCURVE",
"1095 257 OFFCURVE",
"933 91 CURVE",
"992 176 OFFCURVE",
"1065 299 OFFCURVE",
"1064 383 CURVE SMOOTH",
"1064 515 OFFCURVE",
"919 549 OFFCURVE",
"753 549 CURVE SMOOTH",
"736 549 OFFCURVE",
"719 549 OFFCURVE",
"702 548 CURVE SMOOTH",
"546 543 OFFCURVE",
"-5 480 OFFCURVE",
"-5 246 CURVE SMOOTH",
"-5 205 OFFCURVE",
"24 166 OFFCURVE",
"89 139 CURVE SMOOTH",
"126 124 OFFCURVE",
"185 118 OFFCURVE",
"237 118 CURVE SMOOTH",
"281 118 OFFCURVE",
"321 122 OFFCURVE",
"340 127 CURVE SMOOTH",
"343 128 OFFCURVE",
"346 129 OFFCURVE",
"347 130 CURVE SMOOTH",
"349 131 OFFCURVE",
"352 135 OFFCURVE",
"349 139 CURVE SMOOTH",
"348 141 OFFCURVE",
"344 143 OFFCURVE",
"337 145 CURVE SMOOTH",
"327 147 OFFCURVE",
"311 148 OFFCURVE",
"301 148 CURVE SMOOTH",
"291 147 OFFCURVE",
"281 147 OFFCURVE",
"270 147 CURVE SMOOTH",
"217 147 OFFCURVE",
"155 153 OFFCURVE",
"113 166 CURVE SMOOTH",
"56 183 OFFCURVE",
"37 211 OFFCURVE",
"37 240 CURVE SMOOTH",
"37 453 OFFCURVE",
"622 515 OFFCURVE",
"716 519 CURVE SMOOTH",
"735 519 OFFCURVE",
"755 519 OFFCURVE",
"774 519 CURVE SMOOTH",
"903 519 OFFCURVE",
"985 500 OFFCURVE",
"1009 447 CURVE SMOOTH",
"1014 436 OFFCURVE",
"1017 422 OFFCURVE",
"1017 406 CURVE SMOOTH",
"1017 313 OFFCURVE",
"931 151 OFFCURVE",
"846 44 CURVE SMOOTH",
"792 -23 LINE SMOOTH",
"777 -41 OFFCURVE",
"792 -52 OFFCURVE",
"807 -56 CURVE SMOOTH",
"822 -60 OFFCURVE",
"842 -60 OFFCURVE",
"853 -58 CURVE SMOOTH",
"864 -55 OFFCURVE",
"909 -6 OFFCURVE",
"923 14 CURVE",
"923 22 OFFCURVE",
"930 33 OFFCURVE",
"942 47 CURVE SMOOTH",
"954 61 OFFCURVE",
"970 78 OFFCURVE",
"986 95 CURVE SMOOTH",
"1144 274 OFFCURVE",
"1393 467 OFFCURVE",
"1554 508 CURVE SMOOTH",
"1563 510 OFFCURVE",
"1564 509 OFFCURVE",
"1559 495 CURVE SMOOTH",
"1557 489 OFFCURVE",
"1559 486 OFFCURVE",
"1560 485 CURVE SMOOTH",
"1562 483 OFFCURVE",
"1566 482 OFFCURVE",
"1570 484 CURVE SMOOTH"
);
}
);
width = 1180;
}
);
note = V;
unicode = 0056;
},
{
glyphname = W;
layers = (
{
hints = (
{
horizontal = 1;
place = "{-32, 25}";
type = Stem;
},
{
horizontal = 1;
place = "{118, 29}";
type = Stem;
},
{
horizontal = 1;
place = "{571, 26}";
type = Stem;
},
{
place = "{12, 40}";
type = Stem;
},
{
place = "{1008, 47}";
type = Stem;
},
{
place = "{1151, 50}";
type = Stem;
},
{
place = "{1618, 60}";
type = Stem;
},
{
horizontal = 1;
place = "{534, 24}";
type = Stem;
}
);
layerId = "A14CB8BB-4075-44A2-8ACC-F29FBF19C8BE";
paths = (
{
closed = 1;
nodes = (
"1650 263 OFFCURVE",
"1678 341 OFFCURVE",
"1678 410 CURVE SMOOTH",
"1678 488 OFFCURVE",
"1642 557 OFFCURVE",
"1541 558 CURVE SMOOTH",
"1522 558 OFFCURVE",
"1501 554 OFFCURVE",
"1480 546 CURVE SMOOTH",
"1458 538 OFFCURVE",
"1474 526 OFFCURVE",
"1486 526 CURVE",
"1504 532 OFFCURVE",
"1521 535 OFFCURVE",
"1535 534 CURVE SMOOTH",
"1597 531 OFFCURVE",
"1618 478 OFFCURVE",
"1618 413 CURVE SMOOTH",
"1618 354 OFFCURVE",
"1599 288 OFFCURVE",
"1579 248 CURVE SMOOTH",
"1521 133 OFFCURVE",
"1404 -7 OFFCURVE",
"1276 -7 CURVE SMOOTH",
"1222 -7 OFFCURVE",
"1201 41 OFFCURVE",
"1201 106 CURVE SMOOTH",
"1201 215 OFFCURVE",
"1257 353 OFFCURVE",
"1287 358 CURVE SMOOTH",
"1301 360 OFFCURVE",
"1342 401 OFFCURVE",
"1353 421 CURVE SMOOTH",
"1362 437 OFFCURVE",
"1315 458 OFFCURVE",
"1299 458 CURVE SMOOTH",
"1279 458 OFFCURVE",
"1266 450 OFFCURVE",
"1254 435 CURVE SMOOTH",
"1248 428 OFFCURVE",
"1243 419 OFFCURVE",
"1236 408 CURVE SMOOTH",
"1230 398 OFFCURVE",
"1223 386 OFFCURVE",
"1202 345 CURVE",
"1097 256 OFFCURVE",
"995 155 OFFCURVE",
"924 81 CURVE",
"982 174 OFFCURVE",
"1055 326 OFFCURVE",
"1055 420 CURVE SMOOTH",
"1054 561 OFFCURVE",
"914 597 OFFCURVE",
"752 597 CURVE SMOOTH",
"735 597 OFFCURVE",
"718 597 OFFCURVE",
"700 596 CURVE SMOOTH",
"436 586 OFFCURVE",
"12 466 OFFCURVE",
"12 228 CURVE SMOOTH",
"12 157 OFFCURVE",
"115 118 OFFCURVE",
"201 118 CURVE SMOOTH",
"209 118 OFFCURVE",
"230 118 OFFCURVE",
"252 119 CURVE SMOOTH",
"274 120 OFFCURVE",
"298 122 OFFCURVE",
"313 125 CURVE SMOOTH",
"319 127 OFFCURVE",
"324 129 OFFCURVE",
"326 131 CURVE SMOOTH",
"330 135 OFFCURVE",
"330 140 OFFCURVE",
"326 143 CURVE SMOOTH",
"321 147 OFFCURVE",
"311 148 OFFCURVE",
"301 148 CURVE SMOOTH",
"291 148 OFFCURVE",
"281 147 OFFCURVE",
"271 147 CURVE SMOOTH",
"164 147 OFFCURVE",
"52 172 OFFCURVE",
"52 229 CURVE SMOOTH",
"52 416 OFFCURVE",
"520 561 OFFCURVE",
"761 570 CURVE SMOOTH",
"773 571 OFFCURVE",
"784 571 OFFCURVE",
"796 571 CURVE SMOOTH",
"898 571 OFFCURVE",
"976 548 OFFCURVE",
"1000 489 CURVE SMOOTH",
"1006 476 OFFCURVE",
"1008 461 OFFCURVE",
"1008 441 CURVE SMOOTH",
"1008 335 OFFCURVE",
"931 150 OFFCURVE",
"846 45 CURVE SMOOTH",
"792 -22 LINE SMOOTH",
"777 -41 OFFCURVE",
"793 -52 OFFCURVE",
"807 -56 CURVE SMOOTH",
"822 -60 OFFCURVE",
"843 -60 OFFCURVE",
"853 -58 CURVE SMOOTH",
"864 -55 OFFCURVE",
"909 -6 OFFCURVE",
"924 14 CURVE",
"924 22 OFFCURVE",
"931 34 OFFCURVE",
"945 50 CURVE SMOOTH",
"958 66 OFFCURVE",
"975 84 OFFCURVE",
"990 101 CURVE SMOOTH",
"1040 158 OFFCURVE",
"1107 226 OFFCURVE",
"1177 289 CURVE",
"1159 247 OFFCURVE",
"1151 180 OFFCURVE",
"1151 137 CURVE SMOOTH",
"1151 55 OFFCURVE",
"1175 -33 OFFCURVE",
"1269 -32 CURVE SMOOTH",
"1408 -31 OFFCURVE",
"1542 99 OFFCURVE",
"1617 212 CURVE SMOOTH"
);
}
);
width = 1550;
}
);
note = W;
unicode = 0057;
},
{
glyphname = X;
layers = (
{
hints = (
{
horizontal = 1;
place = "{-142, 43}";
type = Stem;
},
{
horizontal = 1;
place = "{119, 27}";
type = Stem;
},
{
horizontal = 1;
place = "{572, 26}";
type = Stem;
},
{
place = "{52, 40}";
type = Stem;
},
{
place = "{461, 26}";
type = Stem;
},
{
place = "{1071, 60}";
type = Stem;
}
);
layerId = "A14CB8BB-4075-44A2-8ACC-F29FBF19C8BE";
paths = (
{
closed = 1;
nodes = (
"1389 650 OFFCURVE",
"1388 661 OFFCURVE",
"1376 661 CURVE SMOOTH",
"1365 661 OFFCURVE",
"1347 648 OFFCURVE",
"1342 639 CURVE SMOOTH",
"1295 552 OFFCURVE",
"1218 456 OFFCURVE",
"1128 363 CURVE",
"1112 515 OFFCURVE",
"1023 598 OFFCURVE",
"787 598 CURVE SMOOTH",
"772 598 OFFCURVE",
"756 597 OFFCURVE",
"739 597 CURVE SMOOTH",
"475 587 OFFCURVE",
"52 467 OFFCURVE",
"52 227 CURVE SMOOTH",
"52 156 OFFCURVE",
"155 118 OFFCURVE",
"241 118 CURVE SMOOTH",
"249 118 OFFCURVE",
"270 118 OFFCURVE",
"292 119 CURVE SMOOTH",
"314 119 OFFCURVE",
"338 121 OFFCURVE",
"353 125 CURVE SMOOTH",
"359 126 OFFCURVE",
"363 128 OFFCURVE",
"366 131 CURVE SMOOTH",
"370 134 OFFCURVE",
"369 139 OFFCURVE",
"366 142 CURVE SMOOTH",
"361 146 OFFCURVE",
"351 148 OFFCURVE",
"341 147 CURVE SMOOTH",
"331 147 OFFCURVE",
"321 146 OFFCURVE",
"311 146 CURVE SMOOTH",
"203 146 OFFCURVE",
"92 172 OFFCURVE",
"92 228 CURVE SMOOTH",
"92 416 OFFCURVE",
"560 563 OFFCURVE",
"800 571 CURVE SMOOTH",
"809 571 OFFCURVE",
"819 572 OFFCURVE",
"828 572 CURVE SMOOTH",
"1027 572 OFFCURVE",
"1076 464 OFFCURVE",
"1071 307 CURVE",
"865 108 OFFCURVE",
"615 -65 OFFCURVE",
"497 -99 CURVE SMOOTH",
"486 -102 OFFCURVE",
"484 -101 OFFCURVE",
"491 -83 CURVE",
"493 -73 OFFCURVE",
"487 -66 OFFCURVE",
"478 -72 CURVE SMOOTH",
"474 -74 OFFCURVE",
"469 -80 OFFCURVE",
"466 -84 CURVE",
"448 -119 OFFCURVE",
"479 -148 OFFCURVE",
"510 -142 CURVE",
"626 -138 OFFCURVE",
"873 71 OFFCURVE",
"1069 265 CURVE",
"1067 236 OFFCURVE",
"1064 207 OFFCURVE",
"1060 177 CURVE SMOOTH",
"1052 121 OFFCURVE",
"1037 69 OFFCURVE",
"1020 31 CURVE SMOOTH",
"1014 17 OFFCURVE",
"1011 3 OFFCURVE",
"1011 -8 CURVE SMOOTH",
"1011 -36 OFFCURVE",
"1032 -55 OFFCURVE",
"1055 -34 CURVE SMOOTH",
"1086 -6 OFFCURVE",
"1111 76 OFFCURVE",
"1125 201 CURVE SMOOTH",
"1129 235 OFFCURVE",
"1131 268 OFFCURVE",
"1131 298 CURVE SMOOTH",
"1131 308 OFFCURVE",
"1131 317 OFFCURVE",
"1130 326 CURVE",
"1237 435 OFFCURVE",
"1322 533 OFFCURVE",
"1351 577 CURVE SMOOTH",
"1371 607 OFFCURVE",
"1381 627 OFFCURVE",
"1385 639 CURVE SMOOTH"
);
}
);
width = 1180;
}
);
note = X;
unicode = 0058;
},
{
glyphname = Y;
layers = (
{
hints = (
{
horizontal = 1;
place = "{-556, 28}";
type = Stem;
},
{
horizontal = 1;
place = "{-32, 29}";
type = Stem;
},
{
horizontal = 1;
place = "{217, 33}";
type = Stem;
},
{
place = "{10, 52}";
type = Stem;
},
{
place = "{292, 51}";
type = Stem;
},
{
place = "{851, 72}";
type = Stem;
},
{
horizontal = 1;
place = "{-72, 33}";
type = Stem;
},
{
horizontal = 1;
place = "{-39, 21}";
target = up;
type = BottomGhost;
}
);
layerId = "A14CB8BB-4075-44A2-8ACC-F29FBF19C8BE";
paths = (
{
closed = 1;
nodes = (
"960 -62 OFFCURVE",
"966 -56 OFFCURVE",
"961 -49 CURVE",
"950 -21 OFFCURVE",
"899 -9 OFFCURVE",
"855 -5 CURVE SMOOTH",
"840 -4 OFFCURVE",
"825 -3 OFFCURVE",
"811 -3 CURVE",
"866 111 OFFCURVE",
"921 284 OFFCURVE",
"923 346 CURVE SMOOTH",
"926 412 OFFCURVE",
"903 460 OFFCURVE",
"857 459 CURVE SMOOTH",
"832 459 OFFCURVE",
"819 452 OFFCURVE",
"815 441 CURVE SMOOTH",
"812 430 OFFCURVE",
"819 421 OFFCURVE",
"832 415 CURVE",
"761 315 OFFCURVE",
"677 226 OFFCURVE",
"594 142 CURVE SMOOTH",
"527 74 OFFCURVE",
"461 10 OFFCURVE",
"424 -15 CURVE SMOOTH",
"398 -32 OFFCURVE",
"381 -39 OFFCURVE",
"369 -39 CURVE SMOOTH",
"351 -39 OFFCURVE",
"343 -23 OFFCURVE",
"343 6 CURVE SMOOTH",
"343 57 OFFCURVE",
"368 131 OFFCURVE",
"378 160 CURVE SMOOTH",
"431 318 OFFCURVE",
"545 485 OFFCURVE",
"588 544 CURVE SMOOTH",
"593 552 OFFCURVE",
"585 563 OFFCURVE",
"571 570 CURVE SMOOTH",
"560 576 OFFCURVE",
"545 580 OFFCURVE",
"537 580 CURVE SMOOTH",
"515 580 OFFCURVE",
"476 517 OFFCURVE",
"443 460 CURVE",
"369 386 OFFCURVE",
"221 256 OFFCURVE",
"101 250 CURVE SMOOTH",
"69 248 OFFCURVE",
"59 263 OFFCURVE",
"62 290 CURVE SMOOTH",
"69 342 OFFCURVE",
"119 397 OFFCURVE",
"159 430 CURVE",
"167 435 OFFCURVE",
"163 439 OFFCURVE",
"159 441 CURVE SMOOTH",
"157 442 OFFCURVE",
"154 441 OFFCURVE",
"151 441 CURVE SMOOTH",
"146 440 OFFCURVE",
"138 438 OFFCURVE",
"132 435 CURVE SMOOTH",
"72 399 OFFCURVE",
"10 326 OFFCURVE",
"10 274 CURVE SMOOTH",
"10 242 OFFCURVE",
"32 221 OFFCURVE",
"81 217 CURVE SMOOTH",
"158 212 OFFCURVE",
"284 276 OFFCURVE",
"387 358 CURVE",
"351 265 LINE SMOOTH",
"323 190 OFFCURVE",
"291 72 OFFCURVE",
"292 19 CURVE SMOOTH",
"293 -44 OFFCURVE",
"329 -72 OFFCURVE",
"371 -72 CURVE SMOOTH",
"393 -72 OFFCURVE",
"417 -65 OFFCURVE",
"438 -52 CURVE SMOOTH",
"497 -15 OFFCURVE",
"559 47 OFFCURVE",
"620 116 CURVE SMOOTH",
"696 200 OFFCURVE",
"770 282 OFFCURVE",
"850 388 CURVE",
"851 381 OFFCURVE",
"851 373 OFFCURVE",
"851 363 CURVE SMOOTH",
"851 269 OFFCURVE",
"798 79 OFFCURVE",
"752 -3 CURVE",
"752 -4 OFFCURVE",
"751 -4 OFFCURVE",
"751 -5 CURVE",
"731 -7 OFFCURVE",
"712 -10 OFFCURVE",
"692 -15 CURVE SMOOTH",
"520 -58 OFFCURVE",
"87 -217 OFFCURVE",
"47 -438 CURVE SMOOTH",
"30 -531 OFFCURVE",
"115 -558 OFFCURVE",
"184 -556 CURVE SMOOTH",
"413 -548 OFFCURVE",
"640 -320 OFFCURVE",
"795 -33 CURVE",
"803 -32 OFFCURVE",
"812 -32 OFFCURVE",
"820 -32 CURVE SMOOTH",
"830 -32 OFFCURVE",
"840 -32 OFFCURVE",
"850 -33 CURVE SMOOTH",
"895 -34 OFFCURVE",
"934 -44 OFFCURVE",
"942 -59 CURVE",
"944 -68 OFFCURVE",
"954 -65 OFFCURVE",
"956 -64 CURVE SMOOTH"
);
},
{
closed = 1;
nodes = (
"702 -45 OFFCURVE",
"716 -42 OFFCURVE",
"731 -39 CURVE",
"598 -267 OFFCURVE",
"385 -520 OFFCURVE",
"172 -528 CURVE SMOOTH",
"112 -531 OFFCURVE",
"75 -502 OFFCURVE",
"75 -459 CURVE SMOOTH",
"75 -415 OFFCURVE",
"113 -351 OFFCURVE",
"210 -278 CURVE SMOOTH",
"355 -170 OFFCURVE",
"539 -80 OFFCURVE",
"688 -48 CURVE SMOOTH"
);
}
);
width = 829;
}
);
note = Y;
unicode = 0059;
},
{
glyphname = Z;
layers = (
{
hints = (
{
horizontal = 1;
place = "{-336, 29}";
type = Stem;
},
{
horizontal = 1;
place = "{-75, 25}";
type = Stem;
},
{
horizontal = 1;
place = "{62, 24}";
type = Stem;
},
{
horizontal = 1;
place = "{521, 36}";
type = Stem;
},
{
place = "{211, 28}";
type = Stem;
}
);
layerId = "A14CB8BB-4075-44A2-8ACC-F29FBF19C8BE";
paths = (
{
closed = 1;
nodes = (
"982 -336 OFFCURVE",
"1047 -318 OFFCURVE",
"1056 -272 CURVE SMOOTH",
"1088 -99 OFFCURVE",
"711 73 OFFCURVE",
"393 86 CURVE",
"543 231 OFFCURVE",
"731 405 OFFCURVE",
"844 462 CURVE",
"861 454 OFFCURVE",
"875 446 OFFCURVE",
"887 438 CURVE SMOOTH",
"905 426 OFFCURVE",
"912 447 OFFCURVE",
"902 457 CURVE SMOOTH",
"894 464 OFFCURVE",
"886 470 OFFCURVE",
"876 476 CURVE",
"904 493 OFFCURVE",
"885 512 OFFCURVE",
"854 505 CURVE",
"852 505 OFFCURVE",
"850 505 OFFCURVE",
"847 505 CURVE SMOOTH",
"838 506 OFFCURVE",
"827 510 OFFCURVE",
"749 528 CURVE",
"692 545 OFFCURVE",
"615 557 OFFCURVE",
"537 557 CURVE SMOOTH",
"399 557 OFFCURVE",
"254 520 OFFCURVE",
"214 404 CURVE SMOOTH",
"206 379 OFFCURVE",
"212 340 OFFCURVE",
"245 331 CURVE",
"259 329 OFFCURVE",
"277 338 OFFCURVE",
"251 350 CURVE SMOOTH",
"231 359 OFFCURVE",
"240 380 OFFCURVE",
"248 400 CURVE SMOOTH",
"284 486 OFFCURVE",
"456 521 OFFCURVE",
"597 521 CURVE SMOOTH",
"634 521 OFFCURVE",
"667 519 OFFCURVE",
"696 515 CURVE SMOOTH",
"727 510 OFFCURVE",
"756 502 OFFCURVE",
"784 493 CURVE",
"717 457 OFFCURVE",
"641 388 OFFCURVE",
"565 313 CURVE SMOOTH",
"487 234 OFFCURVE",
"408 148 OFFCURVE",
"341 86 CURVE",
"183 81 OFFCURVE",
"49 29 OFFCURVE",
"31 -27 CURVE SMOOTH",
"28 -38 OFFCURVE",
"26 -49 OFFCURVE",
"26 -58 CURVE SMOOTH",
"26 -73 OFFCURVE",
"30 -86 OFFCURVE",
"38 -90 CURVE SMOOTH",
"45 -93 OFFCURVE",
"56 -89 OFFCURVE",
"61 -69 CURVE SMOOTH",
"85 11 OFFCURVE",
"202 52 OFFCURVE",
"313 61 CURVE",
"251 9 OFFCURVE",
"170 -46 OFFCURVE",
"135 -50 CURVE SMOOTH",
"123 -52 OFFCURVE",
"114 -51 OFFCURVE",
"108 -49 CURVE",
"105 -49 OFFCURVE",
"103 -48 OFFCURVE",
"101 -47 CURVE SMOOTH",
"97 -46 OFFCURVE",
"94 -47 OFFCURVE",
"92 -49 CURVE",
"87 -58 OFFCURVE",
"101 -74 OFFCURVE",
"122 -75 CURVE SMOOTH",
"197 -79 OFFCURVE",
"292 -11 OFFCURVE",
"371 64 CURVE",
"383 63 OFFCURVE",
"395 62 OFFCURVE",
"406 62 CURVE SMOOTH",
"670 42 OFFCURVE",
"1029 -130 OFFCURVE",
"1004 -261 CURVE SMOOTH",
"998 -292 OFFCURVE",
"951 -307 OFFCURVE",
"890 -307 CURVE SMOOTH",
"867 -307 OFFCURVE",
"844 -305 OFFCURVE",
"820 -301 CURVE SMOOTH",
"812 -300 OFFCURVE",
"804 -301 OFFCURVE",
"799 -304 CURVE SMOOTH",
"796 -306 OFFCURVE",
"794 -310 OFFCURVE",
"797 -314 CURVE SMOOTH",
"799 -317 OFFCURVE",
"803 -319 OFFCURVE",
"807 -320 CURVE SMOOTH",
"829 -328 OFFCURVE",
"879 -333 OFFCURVE",
"893 -334 CURVE SMOOTH",
"903 -335 OFFCURVE",
"913 -336 OFFCURVE",
"924 -336 CURVE SMOOTH"
);
}
);
width = 638;
}
);
note = Z;
unicode = 005A;
},
{
glyphname = bracketleft;
layers = (
{
hints = (
{
horizontal = 1;
place = "{-16, 18}";
type = Stem;
},
{
place = "{7, 17}";
type = Stem;
},
{
place = "{92, 87}";
type = Stem;
},
{
place = "{196, 100}";
type = Stem;
}
);
layerId = "A14CB8BB-4075-44A2-8ACC-F29FBF19C8BE";
paths = (
{
closed = 1;
nodes = (
"740 598 OFFCURVE",
"733 618 OFFCURVE",
"695 625 CURVE SMOOTH",
"665 631 OFFCURVE",
"605 636 OFFCURVE",
"561 636 CURVE SMOOTH",
"534 636 OFFCURVE",
"510 631 OFFCURVE",
"492 618 CURVE SMOOTH",
"385 546 OFFCURVE",
"124 79 OFFCURVE",
"124 -53 CURVE SMOOTH",
"124 -76 OFFCURVE",
"157 -89 OFFCURVE",
"197 -93 CURVE SMOOTH",
"226 -96 OFFCURVE",
"260 -97 OFFCURVE",
"291 -97 CURVE SMOOTH",
"340 -97 OFFCURVE",
"383 -95 OFFCURVE",
"397 -94 CURVE SMOOTH",
"446 -91 OFFCURVE",
"445 -60 OFFCURVE",
"419 -62 CURVE SMOOTH",
"397 -65 OFFCURVE",
"358 -67 OFFCURVE",
"317 -67 CURVE SMOOTH",
"293 -67 OFFCURVE",
"269 -67 OFFCURVE",
"249 -64 CURVE SMOOTH",
"210 -58 OFFCURVE",
"187 -47 OFFCURVE",
"187 -18 CURVE SMOOTH",
"187 109 OFFCURVE",
"452 526 OFFCURVE",
"523 590 CURVE",
"539 599 OFFCURVE",
"576 601 OFFCURVE",
"614 601 CURVE SMOOTH",
"646 601 OFFCURVE",
"677 600 OFFCURVE",
"693 599 CURVE SMOOTH"
);
}
);
width = 441;
}
);
note = bracketleft;
unicode = 005B;
},
{
glyphname = backslash;
layers = (
{
hints = (
{
place = "{95, 32}";
type = Stem;
}
);
layerId = "A14CB8BB-4075-44A2-8ACC-F29FBF19C8BE";
paths = (
{
closed = 1;
nodes = (
"436 -66 OFFCURVE",
"434 -61 OFFCURVE",
"430 -56 CURVE",
"392 8 OFFCURVE",
"222 329 OFFCURVE",
"186 490 CURVE SMOOTH",
"184 497 OFFCURVE",
"177 503 OFFCURVE",
"166 503 CURVE SMOOTH",
"143 504 OFFCURVE",
"138 479 OFFCURVE",
"156 430 CURVE SMOOTH",
"208 285 OFFCURVE",
"354 1 OFFCURVE",
"404 -62 CURVE SMOOTH",
"411 -71 OFFCURVE",
"420 -78 OFFCURVE",
"427 -78 CURVE",
"431 -79 OFFCURVE",
"436 -76 OFFCURVE",
"436 -70 CURVE SMOOTH"
);
}
);
width = 406;
}
);
note = backslash;
unicode = 005C;
},
{
glyphname = bracketright;
layers = (
{
hints = (
{
horizontal = 1;
place = "{-101, 39}";
type = Stem;
},
{
horizontal = 1;
place = "{595, 35}";
type = Stem;
},
{
place = "{671, 56}";
type = Stem;
}
);
layerId = "A14CB8BB-4075-44A2-8ACC-F29FBF19C8BE";
paths = (
{
closed = 1;
nodes = (
"466 -10 OFFCURVE",
"727 457 OFFCURVE",
"727 589 CURVE SMOOTH",
"727 612 OFFCURVE",
"705 626 OFFCURVE",
"653 629 CURVE SMOOTH",
"644 629 OFFCURVE",
"631 630 OFFCURVE",
"616 630 CURVE SMOOTH",
"568 630 OFFCURVE",
"503 628 OFFCURVE",
"487 627 CURVE SMOOTH",
"451 625 OFFCURVE",
"452 591 OFFCURVE",
"476 594 CURVE SMOOTH",
"488 595 OFFCURVE",
"507 595 OFFCURVE",
"527 595 CURVE SMOOTH",
"581 595 OFFCURVE",
"649 591 OFFCURVE",
"671 585 CURVE",
"666 453 OFFCURVE",
"422 11 OFFCURVE",
"334 -46 CURVE",
"294 -59 OFFCURVE",
"209 -62 OFFCURVE",
"151 -62 CURVE SMOOTH",
"129 -62 OFFCURVE",
"112 -61 OFFCURVE",
"102 -61 CURVE SMOOTH",
"82 -60 OFFCURVE",
"77 -69 OFFCURVE",
"79 -74 CURVE SMOOTH",
"81 -82 OFFCURVE",
"92 -87 OFFCURVE",
"104 -89 CURVE SMOOTH",
"134 -95 OFFCURVE",
"215 -101 OFFCURVE",
"259 -101 CURVE SMOOTH",
"285 -101 OFFCURVE",
"349 -96 OFFCURVE",
"367 -82 CURVE SMOOTH"
);
}
);
width = 500;
}
);
note = bracketright;
unicode = 005D;
},
{
glyphname = asciicircum;
layers = (
{
hints = (
{
horizontal = 1;
place = "{324, 127}";
type = Stem;
},
{
place = "{64, 272}";
type = Stem;
}
);
layerId = "A14CB8BB-4075-44A2-8ACC-F29FBF19C8BE";
paths = (
{
closed = 1;
nodes = (
"87 344 LINE",
"80 332 OFFCURVE",
"84 327 OFFCURVE",
"93 327 CURVE SMOOTH",
"103 327 OFFCURVE",
"202 378 OFFCURVE",
"254 405 CURVE",
"257 403 OFFCURVE",
"260 399 OFFCURVE",
"264 395 CURVE SMOOTH",
"270 388 OFFCURVE",
"277 380 OFFCURVE",
"285 371 CURVE SMOOTH",
"301 353 OFFCURVE",
"319 331 OFFCURVE",
"335 320 CURVE SMOOTH",
"339 317 OFFCURVE",
"367 322 OFFCURVE",
"353 340 CURVE SMOOTH",
"342 355 OFFCURVE",
"332 372 OFFCURVE",
"323 389 CURVE SMOOTH",
"314 405 OFFCURVE",
"306 421 OFFCURVE",
"299 431 CURVE SMOOTH",
"284 456 OFFCURVE",
"260 445 OFFCURVE",
"245 438 CURVE SMOOTH",
"220 426 OFFCURVE",
"91 351 OFFCURVE",
"86 343 CURVE"
);
}
);
width = 370;
}
);
note = asciicircum;
unicode = 005E;
},
{
glyphname = underscore;
layers = (
{
hints = (
{
horizontal = 1;
place = "{-118, 23}";
type = Stem;
},
{
place = "{-6, 801}";
type = Stem;
},
{
horizontal = 1;
place = "{-121, 26}";
type = Stem;
}
);
layerId = "A14CB8BB-4075-44A2-8ACC-F29FBF19C8BE";
paths = (
{
closed = 1;
nodes = (
"88 -121 OFFCURVE",
"678 -118 OFFCURVE",
"768 -118 CURVE SMOOTH",
"818 -118 OFFCURVE",
"788 -101 OFFCURVE",
"769 -100 CURVE SMOOTH",
"705 -96 OFFCURVE",
"502 -95 OFFCURVE",
"320 -95 CURVE SMOOTH",
"192 -95 OFFCURVE",
"76 -96 OFFCURVE",
"26 -96 CURVE SMOOTH",
"8 -97 OFFCURVE",
"-4 -101 OFFCURVE",
"-6 -108 CURVE SMOOTH",
"-8 -115 OFFCURVE",
"1 -121 OFFCURVE",
"11 -121 CURVE SMOOTH"
);
}
);
width = 769;
}
);
note = underscore;
unicode = 005F;
},
{
glyphname = grave;
lastChange = "2020-07-28 18:14:41 +0000";
layers = (
{
hints = (
{
horizontal = 1;
place = "{484, 90}";
type = Stem;
},
{
place = "{188, 157}";
type = Stem;
}
);
layerId = "A14CB8BB-4075-44A2-8ACC-F29FBF19C8BE";
paths = (
{
closed = 1;
nodes = (
"291 396 OFFCURVE",
"284 401 OFFCURVE",
"273 407 CURVE SMOOTH",
"233 429 OFFCURVE",
"193 458 OFFCURVE",
"168 479 CURVE",
"149 483 OFFCURVE",
"126 456 OFFCURVE",
"131 448 CURVE",
"160 431 OFFCURVE",
"218 402 OFFCURVE",
"255 388 CURVE SMOOTH",
"263 385 OFFCURVE",
"279 381 OFFCURVE",
"287 381 CURVE SMOOTH",
"297 381 OFFCURVE",
"300 385 OFFCURVE",
"294 392 CURVE SMOOTH"
);
}
);
width = 401;
}
);
note = grave;
unicode = 0060;
},
{
glyphname = a;
layers = (
{
hints = (
{
horizontal = 1;
place = "{-12, 16}";
type = Stem;
},
{
horizontal = 1;
place = "{-5, 13}";
type = Stem;
},
{
horizontal = 1;
place = "{256, 25}";
type = Stem;
},
{
place = "{14, 28}";
type = Stem;
},
{
place = "{255, 27}";
type = Stem;
},
{
place = "{310, 15}";
type = Stem;
}
);
layerId = "A14CB8BB-4075-44A2-8ACC-F29FBF19C8BE";
paths = (
{
closed = 1;
nodes = (
"643 40 OFFCURVE",
"758 144 OFFCURVE",
"775 166 CURVE SMOOTH",
"782 175 OFFCURVE",
"782 189 OFFCURVE",
"765 183 CURVE",
"757 176 OFFCURVE",
"751 172 OFFCURVE",
"745 167 CURVE SMOOTH",
"739 163 OFFCURVE",
"733 158 OFFCURVE",
"726 152 CURVE SMOOTH",
"670 106 OFFCURVE",
"596 56 OFFCURVE",
"528 31 CURVE SMOOTH",
"496 20 OFFCURVE",
"473 14 OFFCURVE",
"457 14 CURVE SMOOTH",
"437 14 OFFCURVE",
"429 23 OFFCURVE",
"429 38 CURVE SMOOTH",
"429 61 OFFCURVE",
"445 97 OFFCURVE",
"467 143 CURVE SMOOTH",
"477 163 OFFCURVE",
"479 179 OFFCURVE",
"472 184 CURVE SMOOTH",
"464 191 OFFCURVE",
"443 195 OFFCURVE",
"432 188 CURVE",
"391 152 OFFCURVE",
"332 107 OFFCURVE",
"291 72 CURVE SMOOTH",
"275 58 OFFCURVE",
"216 18 OFFCURVE",
"183 18 CURVE SMOOTH",
"169 18 OFFCURVE",
"158 25 OFFCURVE",
"162 54 CURVE SMOOTH",
"172 122 OFFCURVE",
"339 257 OFFCURVE",
"415 248 CURVE SMOOTH",
"439 246 OFFCURVE",
"438 220 OFFCURVE",
"438 213 CURVE SMOOTH",
"438 203 OFFCURVE",
"446 197 OFFCURVE",
"454 202 CURVE SMOOTH",
"460 206 OFFCURVE",
"464 215 OFFCURVE",
"463 225 CURVE SMOOTH",
"457 264 OFFCURVE",
"441 287 OFFCURVE",
"399 287 CURVE SMOOTH",
"379 287 OFFCURVE",
"355 282 OFFCURVE",
"324 272 CURVE SMOOTH",
"234 243 OFFCURVE",
"121 131 OFFCURVE",
"121 57 CURVE SMOOTH",
"121 42 OFFCURVE",
"125 28 OFFCURVE",
"135 17 CURVE SMOOTH",
"149 1 OFFCURVE",
"167 -6 OFFCURVE",
"187 -6 CURVE SMOOTH",
"257 -6 OFFCURVE",
"352 79 OFFCURVE",
"398 125 CURVE",
"391 105 OFFCURVE",
"385 83 OFFCURVE",
"385 63 CURVE SMOOTH",
"384 6 OFFCURVE",
"423 -11 OFFCURVE",
"464 -11 CURVE SMOOTH",
"489 -11 OFFCURVE",
"517 -4 OFFCURVE",
"537 3 CURVE SMOOTH"
);
}
);
width = 557;
}
);
note = a;
unicode = 0061;
},
{
glyphname = b;
layers = (
{
hints = (
{
horizontal = 1;
place = "{-16, 15}";
type = Stem;
},
{
horizontal = 1;
place = "{38, 16}";
type = Stem;
},
{
horizontal = 1;
place = "{208, 15}";
type = Stem;
},
{
horizontal = 1;
place = "{459, 51}";
type = Stem;
},
{
place = "{12, 35}";
type = Stem;
},
{
place = "{105, 19}";
type = Stem;
},
{
place = "{375, 33}";
type = Stem;
}
);
layerId = "A14CB8BB-4075-44A2-8ACC-F29FBF19C8BE";
paths = (
{
closed = 1;
nodes = (
"635 182 OFFCURVE",
"694 189 OFFCURVE",
"757 191 CURVE SMOOTH",
"814 193 OFFCURVE",
"766 210 OFFCURVE",
"757 210 CURVE SMOOTH",
"733 210 OFFCURVE",
"656 205 OFFCURVE",
"580 193 CURVE",
"573 216 OFFCURVE",
"546 243 OFFCURVE",
"490 239 CURVE SMOOTH",
"391 233 OFFCURVE",
"278 159 OFFCURVE",
"211 86 CURVE",
"263 191 OFFCURVE",
"392 393 OFFCURVE",
"543 459 CURVE",
"544 459 OFFCURVE",
"545 459 OFFCURVE",
"546 459 CURVE SMOOTH",
"549 459 OFFCURVE",
"554 456 OFFCURVE",
"557 453 CURVE",
"557 453 OFFCURVE",
"557 452 OFFCURVE",
"557 452 CURVE",
"559 449 LINE SMOOTH",
"561 445 OFFCURVE",
"564 442 OFFCURVE",
"566 442 CURVE SMOOTH",
"573 442 OFFCURVE",
"580 457 OFFCURVE",
"580 463 CURVE SMOOTH",
"581 480 OFFCURVE",
"564 518 OFFCURVE",
"541 518 CURVE SMOOTH",
"530 518 OFFCURVE",
"520 512 OFFCURVE",
"513 507 CURVE SMOOTH",
"382 414 OFFCURVE",
"252 261 OFFCURVE",
"182 123 CURVE SMOOTH",
"162 82 OFFCURVE",
"149 44 OFFCURVE",
"149 21 CURVE SMOOTH",
"149 9 OFFCURVE",
"157 -12 OFFCURVE",
"175 -12 CURVE SMOOTH",
"182 -12 OFFCURVE",
"186 -7 OFFCURVE",
"189 -3 CURVE SMOOTH",
"211 34 LINE SMOOTH",
"250 95 OFFCURVE",
"348 168 OFFCURVE",
"417 195 CURVE SMOOTH",
"442 205 OFFCURVE",
"476 215 OFFCURVE",
"501 215 CURVE SMOOTH",
"518 215 OFFCURVE",
"536 209 OFFCURVE",
"539 186 CURVE",
"405 160 OFFCURVE",
"314 112 OFFCURVE",
"286 81 CURVE SMOOTH",
"273 66 OFFCURVE",
"265 51 OFFCURVE",
"265 37 CURVE SMOOTH",
"265 12 OFFCURVE",
"289 -2 OFFCURVE",
"321 -2 CURVE SMOOTH",
"409 -2 OFFCURVE",
"578 72 OFFCURVE",
"582 170 CURVE"
);
},
{
closed = 1;
nodes = (
"357 100 OFFCURVE",
"432 134 OFFCURVE",
"533 159 CURVE",
"519 134 OFFCURVE",
"483 94 OFFCURVE",
"433 62 CURVE SMOOTH",
"397 39 OFFCURVE",
"355 28 OFFCURVE",
"327 28 CURVE SMOOTH",
"306 28 OFFCURVE",
"298 34 OFFCURVE",
"298 41 CURVE SMOOTH",
"298 47 OFFCURVE",
"304 59 OFFCURVE",
"324 74 CURVE SMOOTH"
);
}
);
width = 580;
}
);
note = b;
unicode = 0062;
},
